<svg xmlns="http://www.w3.org/2000/svg" width="1080" height="1080"><defs><clipPath id="a"><ellipse cx="541.43" cy="429.9" class="a" rx="13.75" ry="10" transform="rotate(-75.52 541.387 429.904)"/></clipPath><clipPath id="b"><path d="M525.48 432c-10.17-2.38-13.59-9.18-13-16.23 8.02.55 12.38 6.29 13 16.23Z" class="a"/></clipPath><style>.a{fill:none}.b{fill:#f15a29}.c{fill:#f0dfd2}.d{fill:#33ae90}.f{fill:#1c6655}</style></defs><path d="M523.5 388.5c-9.87.79-11 12-19.5 32.5-4.84 11.68-17.5 29.5-17.5 29.5s27 19 53 14c19.66-3.78 35 12 35 12l15-16s-16-76-66-72Z" class="b"/><path d="M546 519s3 34 1.5 65.5c-.77 16.11-2 34-2 34-6 7-13 25-7 27s30-18 28-23 3-35 5-55S546 519 546 519Z" class="c"/><path d="M361.5 673.5c19.89-8.62 56.12.35 80.89 7.37C459.13 657 490 656 509.37 647.55 529 639 547.1 635 557.26 635c2-8.15 8.5-15.31 17.24-20.47 53.09-31.37 60-72.35 86.39-69.78 10.65-16.92 20.43-32.78 32.61-47.22 18.47-21.89 29.7-45.71 48.11-53.44 3-13.37 5.84-28.58 6.89-42.56 3-40 25.38-90.74 61-82 26.5 6.5 46 45 60 90 4.61 14.83 5.87 31.92 6.89 47.37 15 3.15 24.11 9.11 28.11 24.63 8 31 17.5 73.5 6 131-7.43 37.12-17.5 55.47-31.66 72.67 10.36 15.56 10.19 36.91 1.66 57.3-18 43-54.5 84.5-132 112-40 14.19-85.5 26.5-107.71 7.48-15.83 5.57-38 10.85-69.14 11.5-51 1.06-89.63-19.31-115-36.86-9.11-6.3-18.83-16.41-23.63-24.34-12.48-6.71-22.4-8.6-30.47-12.78-29-15-65.09-49.27-70-64-7.05-21-1.05-49 28.95-62Z" class="c"/><path d="M551.5 479.5c10.88-5.54 22.36-16.82 42-7 24 12 46 43 55 57s23 50 23 50l-77.55 27L582 618l-2.5-5.5s-18.5-44.5-24-60c-7.2-20.3-30.5-59.5-4-73Z" class="d"/><path d="M511.5 401.5a136.51 136.51 0 0 0-1 23c.8 21.54.5 31.5 7 39 7.54 8.7 22 7 22 7a48.88 48.88 0 0 0 5 7 68.21 68.21 0 0 1 6 9s5 1 9-1a8.74 8.74 0 0 0 5-6s-3-11-2-20c.78-7 12.22-17 12.23-33s-10-35.67-30.54-40.19c-21.33-4.7-32.19 7.14-32.69 15.19ZM602.5 529.5s2.08 20-1 57c-1 12-5 18-4 30s-7 14-8 19c-1 5.22-1.53 9.26-3 10-2 1-3-5-3-5s-1 4-3 4-3-5-3-5-1 5-3 4-2-3-2-8c0-10 12-11 11-27-2-31.94-7-77-7-77Z" class="c"/><path d="m629 594.5 31-11 1 5.5-18 102 1 5-11 28-30-10 15-6 2.25-24.75L623 678l6-83.5z"/><circle cx="371" cy="429" r="11" class="d"/><path d="M562.29 427.76c-4.56 7.3-12.42 9.79-21.59 7.35 1.44-9.11 14.23-12.91 21.59-7.35Z" class="f" style="clip-path:url(#a)"/><g style="clip-path:url(#b)"><ellipse cx="510.05" cy="424.83" class="f" rx="13.75" ry="10" transform="rotate(-79.59 510.07 424.828)"/><path d="M508.92 439a7.79 7.79 0 0 1-1.44-.13c-5.7-1-9.17-8.18-7.75-15.92a17.08 17.08 0 0 1 4.78-9.3 8.71 8.71 0 0 1 14.71 2.7A18.13 18.13 0 0 1 515.6 436a9.76 9.76 0 0 1-6.68 3Zm-8.21-15.87c-1.32 7.19 1.8 13.81 7 14.76a8.36 8.36 0 0 0 7.25-2.56 17.09 17.09 0 0 0 3.4-18.55 7.72 7.72 0 0 0-13.11-2.41 16.06 16.06 0 0 0-4.49 8.76Z" class="f"/></g><path d="M531.5 396.5S541 402 547 406s14 12 14 12 1.5 16.5 4.5 22.5 7 10 11 17c3.14 5.49 4 13 4 13S592 472 597 470a23.18 23.18 0 0 0 8-6c11 0 18-9 18-9s-3.65-13.27-11.5-18.5c-6-4-14.51-3.61-18-10-6-11 7.86-35-30.5-43.5-9-2-22.28-4.67-28.5-3.5-16 3-23.5 15.5-23.75 24.25s6.75-9.25 20.75-7.25Z" class="b"/><path d="M512 418.77c0 1.74-.56 4.05-.36 6.12s.21 4.23.34 6.34c.16 2.43-.32 4.92 1 7.19-2.37 1.75.53 4.24-.83 6.17-.18.25.08 1 .35 1.32 2.3 2.87 2.59 6.45 3.55 9.8 1.58 5.57 5.8 8.9 10.28 12a2.53 2.53 0 0 0 1.4.3 14.54 14.54 0 0 1 5.73.92c1.59.62 3.63-.48 5.2 1 .17.17 1-.1 1.3-.39 1.06-1 1.74-.18 2.59.35a14.89 14.89 0 0 1 4.49 6.4 15.85 15.85 0 0 0 2.87 6.06 4.55 4.55 0 0 0 5.8 1.75c.79-.31 1.59-.94 3-.34s3.24-.82 3.86-2.77c.5-1.54 1.18-3-.84-4.09-.73-.41-1.68-1.89-1.46-2.3 1-1.85-1.15-3.7.13-5.33a1.76 1.76 0 0 0-.11-2.61 1.7 1.7 0 0 1-.25-.91c-.09-1.59 1.65-2.67 1.54-4s-.79-2.72-.45-4.14c.21-.91 2.34 1.06 1.91-1.18a3.06 3.06 0 0 1 1.11-3.1c.89-.74 1.66-1.63 2.5-2.45.47-.46.92-1 1.68-.88s1.9-.43 2.31.34c.24.45-.32 1.45-.72 2.08a11.22 11.22 0 0 1-1.67 1.85c-2.2 2.16-2.38 5-2.63 7.81 0 .28.37.59.34.87-.1 1.13-1.68 2-.12 3.45s2.36-.75 3.52-.39c2.18.69 4.18-.94 6.49-.15 2 .66 4.22-.78 6.4.1 1.92.78 4 1.18 5.85 2.09 2 1 4.4 1.14 6.18 2.63 2.84 2.37 6.42 3.57 9.21 6.12 2.37 2.16 5.7 3.17 7.78 5.83.47.61 1.24.31 1.88.35s1.57-.11 1.75.58c.57 2.21 3 2.58 4 4 2.27 3.36 6 5 8.4 8.1 1.19 1.54 3 2.66 3.52 4.67a2.66 2.66 0 0 0 1.87 1.94 1.93 1.93 0 0 1 1.36 1.9c-.19 1.85 1.27 2.69 2.35 3.56 1.85 1.5 2.56 3.85 4.29 5.36 1.25 1.1-1.08 2 0 3 1.56 1.46 2.19 3.62 3.92 5a6.36 6.36 0 0 1 2.8 4.44 2.85 2.85 0 0 0 2.32 2.77 2.12 2.12 0 0 1 1.3 1.4c.77 4 4.85 6.23 5.13 10.42.1 1.34 2.05 1.74 2 3.28a14.83 14.83 0 0 0 3.44-.61c.86-.36.79-1.65.35-2.18-1.17-1.37-1-2.57.42-3.26 2.93-1.46 3.38-4.52 4.56-7 1.48-3.07 3.58-5.63 5.4-8.42 2.07-3.2 5.15-5.86 5.75-9.85.29-2 1.77.49 1.93-.67a3.61 3.61 0 0 1 1.49-2.41c3-2.33 4.22-5.93 6.68-8.62.9-1 .87-3.05 3.08-2.51.34.08.75-.51.73-1.1a2.59 2.59 0 0 1 2.18-2.84c1.82-.52 1.76-3.09 3.7-3.52.43-2.9 3.18-4.17 4.5-6.41 1.41-2.4 3.21-4.51 4.65-6.8 2.32-3.68 5.09-7.05 7.27-10.83 1.48-2.56 2.45-5.71 5.68-6.95.54-.2.77-1 1.09-1.56 1.66-3.14 4.08-5.29 7.6-8.25 2.13-1.79 4.3-3.52 6.46-5.28.76-.61 1.29-1.59 2.49-1.36 2.4.45 3.31-1.2 3.81-3 .74-2.62 1.82-5.2 1.57-8-.14-1.48-.67-2.86-.09-4.47a28.08 28.08 0 0 0 .88-4.21c.61-3.15.2-6.46 1.16-9.65.41-1.35-.38-3 .92-4.2-2-1.37-.2-2.81.24-3.87.66-1.54-2-2.63-.23-4 1.38-1.09.42-2.76 1-4.11s-.3-2.95.47-4.35-1.35-2.81.17-4.43a7.65 7.65 0 0 0 1.39-4c.23-1.63-.15-3.36.1-5 .43-2.73 2.26-5.25 1.18-8.2 2.94-1.23 1.21-3.88 1.83-5.82.67-2.09 2-4 2.65-6.08.88-2.73 2.7-5 3.33-7.87a3.14 3.14 0 0 1 .53-.83c.93-1.4 4.17-.3 3.54-3.63-.4-2.08 2.38-2.83 3.16-4.75a27 27 0 0 1 2.93-5 70.42 70.42 0 0 1 4.39-5.9c1.5-1.74 3.5-2.77 5.07-4.44a26 26 0 0 1 4.93-4.57c2.62-1.63 5-3.33 8.25-3.82 2.31-.35 4.28-2.36 6.9-1.88 3-2.24 6.91.32 9.89-1.95l4.4 2.06c.54 1.51 1.33 1.79 2.87 1a2.76 2.76 0 0 1 2.52 1c1 2 3.69 1.06 4.68 3 .84 1.7 3.79 1.1 4.2 3.48 1.9-1.66 1.51 1.33 2.57 1.27 1.51-.09.8 2 2.34 2.14s1.44 2.14 2.38 2.86c2.76 2.1 4.27 5.21 6.59 7.64.8.84.42 1.33 0 2a11.5 11.5 0 0 1 2.08 1.2c1.25 1.1 2.68 2.26 1.25 4.16-.64.86.19 1.08.51 1.53.47.68 1.62.3 1.94 1.29.48 1.49 1 2.71 3 2.86 1.59.12.41 2.54 1.53 3.34 2.31 1.67 2.42 4.49 3.73 6.66s3.58 3.78 3.81 6.63c0 .54.79 1 1.22 1.52.91 1 2.65 1.87 1 3.64-.08.08.47.74.69 1.15a31.43 31.43 0 0 1 4 11c.18 1.53 1.67 2 2 3.26.24.85-1.45 1.24-.38 2 .48.35 1.32.2 1.38 1.1s1.46 1.5.19 2.5a.87.87 0 0 0 .2 1.31c2.25 1.28 1.22 2.93.66 4.61a3.78 3.78 0 0 0 .06 2c.14.52.74.6 1.24.52.88-.15.39-1.84 1.28-1.5s.4 1.51.35 2.28a5.39 5.39 0 0 0 1.54 4.48 2.78 2.78 0 0 1 .54 3.76 1.79 1.79 0 0 0 0 1.45c1 2.46 2.37 4.82 1 7.61-.26.53.29.92.81 1 .86.1 1.36 1 1 1.31-1.8 1.5 1.16 1.75.64 2.54-1 1.48-.31 1.84 1 2.46.77.37-.21.67-.53.72-.94.14-1.07 1.31-.86 1.38 3 .91-.08 3.46 1.49 5.09 1.13 1.18 1.07 3.59 1.34 5.47a5.24 5.24 0 0 1-.53 3.33c-.59 1.12 2 1.67 1.45 2.64-1.21 2.11-.25 3.61.75 5.23.51.84-.71 1.06-.57 1.62s-1 2.93 1.46 1.42a2.39 2.39 0 0 1 2.34.17c1.56.81 3 2 5 1.66.16 0 .42-.07.49 0 2.48 3 7 3.1 9.11 6.15 1.94 2.88 5.14 5.08 5.62 8.91a2.27 2.27 0 0 0 .78 1.21c.8.74 1.15 1.18.19 2.3-1.49 1.76-1.33 1.94.58 3.58 1.56 1.34 2.23 2.69 1.52 4.91-.49 1.52-.73 3.65 1.69 4.38-.07 1.36.73 2.44 1.17 3.65s-1.63 2.49.3 3.82c.7.49.61 2.21.57 3.17a9.24 9.24 0 0 0 .69 4c1.87 3.79 1.84 7.94 2.93 11.85a12.23 12.23 0 0 1 .51 1.34c.32 2.26.2 4.58.36 6.84.13 1.94.83 3.81.71 5.79a11.15 11.15 0 0 0 .71 4.77 6.35 6.35 0 0 1-.45 5.72c-.6.91-.8 2.09.9 2.68 1.42.49-.57 1.34-.13 1.79 1.35 1.34-.73 3 .51 4.3 1.41 1.52-.3 2.71-.6 4.05-.26 1.16.63 1.82 1 2.68a6.49 6.49 0 0 1 0 5.42c-.3.71-1.07 1.18-.89 2.18s3.57 1.58.26 2.78a7.1 7.1 0 0 1 .69 3.66c-.07 1.5 0 3 0 4.5-.05 1 .57 2.42-1.33 2.65-.74.09-.21.67 0 1.07s.23.93.41 1.37c.67 1.65-2.82 2-1.16 4.1 1.09 1.39-1.06 2.61-.88 4.12.1.79-.42 1.08-1.13 1.32-1.1.38-1.09 1.52-.25 1.77 2 .62 1.53 1.74 1 3s-1.28 2.68-1 4.36c.21 1.26-1.22 2.46-.06 4 .74 1-.63.57-1 .77a12.29 12.29 0 0 1-1.32.49 9.22 9.22 0 0 0 1.28.51c.68.16 1.61-.35 1 1.25-1.76 4.47-2.33 9.28-3.4 14a82.09 82.09 0 0 1-3.87 13.31c-.45 1.07-.06 2.21-.47 3.37-1.48 4.18-3 8.35-4.72 12.44-.25.59-.83 1.11-.91 1.7-.78 6.51-3.83 12-6.91 17.69-2.06 3.78-3.49 7.91-6.15 11.38-1.41 1.85-2.87 3.67-4.24 5.55-.69.94-2.69-.44-2.63 1.45 0 1.25 1.34 1.81 2.12 2.62 1.51 1.57 3 3.22 2.72 5.52-.19 1.86 1.68 2.33 2.06 3.78 1 3.74 0 7.79 1.78 11.39-2.35 2.31 1.16 5.21-.75 7.57.93 1.28.11 2-.48 3.23a9.38 9.38 0 0 0-.89 5.29 3.49 3.49 0 0 1-1 3.56c-1.11.89-1.44 2.71-1.77 4.37a32.27 32.27 0 0 1-4.36 11.43c-.63 1 .44 1.25.11 2-1 2.53-1.85 5.14-3.45 7.39-.46.66-1.36 1.1-1.18 2.06.37 1.93-1.78 3.09-1.75 4.28 0 1.6-3 .68-1.6 2.71 1 1.33-.68 2.31-1.06 3.46-.82 2.47-2.44 4.54-3.73 6.77s-2.51 5.05-4.54 6.13-.77 3-2.32 4c-1 .69-2.41 1.19-3.24 2.65a10.87 10.87 0 0 1-5 4.67c-.91.4-1.81 1-1.77 2.15s-.59 1.56-1.57 2.06a5 5 0 0 0-2.35 2.48 6.8 6.8 0 0 1-2.82 3.34 10.93 10.93 0 0 0-3.5 3.78c-1.13 2-3.6 2.32-4.56 3.86-1.12 1.8-3.24 2.86-3.69 5.08-3.32.42-5.15 3.94-8.51 4.15-1.3.08-2 1-3 1.4-2.94 1.2-4.57 4.27-7.8 5s-4.64 4-7.43 5.47a98.46 98.46 0 0 0-12.22 7.87c-1.35 1-3.3 1.21-4.84 2-3.68 1.94-7.24 4.15-11 5.83-4.94 2.2-9.67 4.87-14.89 6.48-3.34 1-6.89 1.85-9.57 4.27-1.22 1.11-1.66-.72-2.54-.27s-1.71.9-2.58 1.32c-1.27.63-2.95-1-4.09 1-.78 1.33-2.68 1-4 1.46a33 33 0 0 1-4.57 1.46c-4.54.85-8.57 3.48-13.24 4.06-5.73.7-11 3.25-16.84 3.86-3.07.32-6.1 1.9-9.3 2.19-5.14.47-9.89 3.31-15.19 2.59-1.94-.27-3.41.9-5.18 1.18s-3.46-1.29-5.51-.28c-1.42.69-3.49-.43-5.06-.32-2.27.17-3.5-2.09-5.76-1.6-1.95.42-3.63-1.07-5.5-1.52s-2.64-3.4-5.23-2.44a18.39 18.39 0 0 0-5.38-3.27c-.57-.24-.93-1.05-1.51-1.27-1.36-.51-.44 1.38-1.26 1.37-.52 0-.8-.72-1.65-.3-2.87 1.41-5.82 2.68-8.79 3.88-2.23.9-4.46 2-7 1.62-1.52-.21-2.84.72-4.21.89-6.39.82-12.55 3.08-19.07 3.1-3.19 2.13-7.2-.2-10.39 1.93a6.82 6.82 0 0 0-5.35-.42c-1.22.44-2.4-2.4-3.79-1.09s-2.34-.6-3.44.15c-1.39 1-1-2.24-1.51-1.05-.91 2.12-2.35 1.38-3.67 1.46-1.66.1-3.41-.29-5 .11s-3-1.71-4.46-.14c-1.21-1.12-2.84 0-4.22-.87s-3.06 1-5 .08c-1.27-.62-3.2-.38-4.84.15-1.86.61-4-1.47-5.77.54-.38-3-3.42-1.05-4.67-2.49a1.07 1.07 0 0 0-1.72.13c-2 2.34-3.75.47-5.35-.41-1-.51-1.44-1.08-2.4-.15a1.62 1.62 0 0 1-1.4 0c-.91-2.47-3.54-1.18-5.18-2.4s-4.29-1.09-6.37-1.87c-1-.37-1.68-.95-2.6 0-.19.2-.71.38-.87.27-2.9-2.11-6.83-1.62-9.7-4.08-1.77-1.5-3.92-2.94-6.55-2.85-.67 0-1.39 0-1.59-.79-.35-1.44-1.06-1.34-2.12-.68s-2-.43-2.42-.85c-.72-.7-.93-1.3-2.25-1.11-.81.13-1.41-1.75-2.85-1.59-.68.08-1.36-.14-1.37-1 0-1.37 0-2.23-1.79-1.1-.91.57-1.63-.84-2.34-1.48-1.32-1.2-2.33-2.92-4.57-2.42-.28.06-.78 0-.91-.21-.88-1.37-2.74-1.43-3.6-3.07s-3.37-.14-4.74-1.92c-.92-1.19-2.59-1.86-3.85-2.92-1.64-1.39-3.59-2.36-5.3-3.74-2.3-1.85-5.05-3.12-6.41-6-1.81.19-1.56-3.18-3.82-2.21-.43-2-2.07-2.92-3.36-4.22-2-2-3-4.82-5.86-6-.45-.17-.6-1.09-.9-1.65a15.84 15.84 0 0 0-2.12-3.26c-1.55-1.76-1.5-1.53-5-2.25-1.44-.3-3.77-.13-4.49-2.41-.55-1.75-1.32-1.71-2 0-.21.53-.51.76-1 .3a11.45 11.45 0 0 0-4.42-2.83c-1.59-.52-3.06-1.43-4.84-1.89-1.14-.3-2.89-.77-3.81-2.08a1.3 1.3 0 0 0-1.18-.67c-.67 0-1.34-.06-2 0-1.85.1-2.08-2.35-4.3-2.39a7.89 7.89 0 0 1-5-2.68A9.87 9.87 0 0 0 391 796c-2.88-1-4.71-3.29-6.94-5.07-1.64-1.31-2.84-3.15-5.13-3.55-1.83-.32-2.41-2.28-4-3.12-2-1.09-3.12-3.33-5.8-4.11-2.14-.62-3.51-3.49-5.9-4.53-.29-.12-.46-.49-.74-.65-3.21-1.85-3.46-7-8.11-7.24-2.73-2.69-5.35-5.49-8.22-8a15.49 15.49 0 0 1-3.74-5.11c-1.9-4.11-5.42-7.11-7.14-11.15-1.11-2.61-2.64-5-3.49-7.82-.43-1.4-.52-3.15-1.89-4.4-1.06-1-.33-2.85-1-4.09a3.37 3.37 0 0 1 .1-3.47 2.69 2.69 0 0 0 .41-2c-.27-1.84-3.7-2.44-1.76-5 1.15-1.51-.64-3.07-.22-4.72.62-2.4.41-5.31 1.73-7.17 1.57-2.19 1.88-4.79 3.35-6.93s2.24-4.75 3.91-6.64c3.25-3.68 5.79-8.08 10.3-10.61 1.82-1 2.77-3.3 5-3.93-.93-1.56.13-2 1.26-2.76 1.29-.85 2.76-.82 4.09-1.4 1.17-.51 2.11-1.73 3.52-1.51 1.81.28 3.31-1.46 5.49-.25 1.3.73-.24-1.08.18-1.39a16.07 16.07 0 0 1 2.56-1.36c1.64-.8 3.16 1.51 5 .06 1.25-1 3-1 4.63-1.18 2.84-.34 5.57-1.45 8.42 0a2.17 2.17 0 0 0 2.31-.53c.76-.65 1.54-.59 1.82.55.13.55.61 1.16.88.92 2-1.83 3.42 1.09 5.52.54 1.79-.46 3.7 1.47 5.82 1.68.85.08 1.53.95 2.5 0a1.92 1.92 0 0 1 1.8.17c1 2.08 3 1.46 4.5 1.64 1.78.21 3.22 1.34 5.19 1.22a14.87 14.87 0 0 1 6.54 1.31c2 .87 3.81 1.82 6 1.57.77-.09 1.17.5 1.67.92s.74.62 1.12.92c2.66-3.34 5.2.15 7.72.39 1.33.13 2.32.31 2.56-.79.55-2.51 2.56-3.59 4.24-5 3-2.44 6.6-3.91 9.64-6.35a26.11 26.11 0 0 1 9.4-4.72 15.63 15.63 0 0 0 6.07-2.87c.95-.79 2.49-2.53 4.24-.77 1.14-3.11 5.39-1.18 6.67-4.12a1 1 0 0 1 1.62-.34c.62.56 1.15.65 1.56-.09 1.15-2.09 3.28-1.91 5.14-2.17 2.78-.4 5.42-1 7.31-3.28.54-.66.94-.53 1.6-.1a2.15 2.15 0 0 0 1.85.27c3.54-2.53 7.76-3 11.82-3.88 1.22-.26.51-2.13 1.76-1.63a4.88 4.88 0 0 0 2.33.55c1.26-.11.66-2.33 2.37-2a3.31 3.31 0 0 0 3.18-.94c1.42-1.48 3.71.83 5-1.19 1.17-1.8 3.7.07 4.94-1.74.09-.13.92.11 1.3.34.92.57 1.15.09 1-.67s-.31-4.24.11-4.68c2.27-2.39 2.73-5.74 4.58-8.41 2.11-3.05 2.45-6.89 3.34-10.44 1-4.22.78-8.64 1.84-12.91.43-1.73-1.71-3.87.07-5.87-2.24-3.63.38-7.88-1.46-11.53-.36-.7.26-.82.29-1.22.17-2.45 1-4.8.37-7.36s.69-5.28-.85-7.73c1-5-1.71-10.14.62-15.07-1-3.57.43-7 .74-10.46-1.81-1.35 1.76-3-.23-4.32.57-4.64-2.38-8.27-3.68-12.37-.91-2.86-1.35-6-3.29-8.45-1-1.27.63-1.86.18-3a63.66 63.66 0 0 1-1.57-6.51c-.54-2 .43-3.92.34-6a13.38 13.38 0 0 1 1-6c.8-1.66-.15-3.86.84-4.65a10.35 10.35 0 0 0 2.63-3.28c2.62-4.82 2.63-4.88.11-9.68-1.11-2.14-1.84-5.45-5.53-3-2.65-1.18-5.75-1.11-8.22-2.4-1.45-.76-2.28 1-3.48-.05-.8-.71-2.07-.86-3-1.42a23.18 23.18 0 0 1-9.61-11.26 29 29 0 0 1-2.4-10.52c0-1-.49-1.3-.83-1.89-.2-.36-1-.72-.26-1.14 2.39-1.41.63-3.28.25-4.6-1-3.54-1-3.48-.82-6.16.14-1.94-1.5-3.87 0-5.93a2 2 0 0 0-.05-1.86 2.13 2.13 0 0 1 0-3.05 2.13 2.13 0 0 0 .18-1.89 5.07 5.07 0 0 1 .61-5.73c1-1.33.17-2.41-.48-3.59-.35-.62.34-1.17.79-1.66.69-.76 1.06-.13 1.53.28 1 .91 1.83 1.84 1.63 3.4a37.94 37.94 0 0 0-.15 4.47ZM580 614c-4.22 1.84-7.49 5.08-11.27 7.55-4.64 3-6.14 7.62-7.65 12.31-.74 2.28-.49 4.83-.8 7.21-.18 1.33.86 4-2 4.29.83 1.77-.15 3.26-.84 4.75-.31.66-.62 1.53.08 1.66 2.08.38 1.36 1.89 1.53 3.09.25 1.76-.64 3.66.61 5.3-1.16 1.4.12 3-.34 4.63-.36 1.26.58 3.35 1.61 4.87.29.42 0 1.26-.07 1.9a34.47 34.47 0 0 0 .62 7.35c.52.9 2.2 1.35 1.25 2.82-1.13 1.75 1.3 1.9 1.3 3.11a6 6 0 0 1 0 2c-1.28 3.09-.26 5.55 2 7.62a3.3 3.3 0 0 1 1 3.14c-.18 1.6.6 3.35-.75 4.77 1.24 1.3 1.67 3 2.3 4.59a22.08 22.08 0 0 1 .49 2.36c1.34 4.42 2.79 8.81 4.13 13.23.25.81 1.85-.15 1.46 1.33-.22.81.81 2 1.5 2.86.55.7 2.61.94 1.16 2.58 1 2.49 2.56 4.8 2.22 7.68 2.56 3.23 3.71 7 4.57 11a10.25 10.25 0 0 0 1.83 3.38c.74 1 2.36 1.66 1.41 3.39a55.8 55.8 0 0 1 7.11 16.1 16.63 16.63 0 0 0 4.33 7.43c.4.4 1.1.64 1 1.49-.49 2.85 1.29 5 2.36 7.38a20.91 20.91 0 0 0 3 4.94c1.59 1.84.28 4.2 1.5 6.07.5.77.36 2 .9 2.7 1.63 2.2 2.14 5 3.69 7.12 2.2 3 3.82 5.89 4.26 9.64.11.91.85 3 1.35 3.19 1.67.55 1.43 2.09 2.18 3 .89 1.12.89 3 2.2 3.7 2.09 1.12 1.39 3.59 2.84 5 1 1 2.91 1.86 2.57 3.21-.55 2.18 1.65 2.1 2 3.36.1.3.31.57.41.87 1.1 3.58 4.32 6 5.28 9.66a14.24 14.24 0 0 1 4.83 5.25 12.66 12.66 0 0 0 5.24 5 3.89 3.89 0 0 1 .72.69c1.26 1.28 2.41 2.61 4.49 2.7a4.12 4.12 0 0 1 2.51 1.38c3.28 3.61 8.35 2.92 12.26 5.2 2.22 1.29 5.51-.66 8.18.93.32.19 1.31-1.12 2.14-.73 1.38.64 2.63-1.69 4-.08 2.79-.93 5.52-2.4 8.58-1 4.82-1.18 9.52-3 14.58-3a1.88 1.88 0 0 0 1.29-.57c1.06-1.26 2.18-1.81 3.66-.67 3.9-1.8 8.49-1.56 12.14-4.09a1.33 1.33 0 0 1 1.19-.18c1.82.32 5.52-.64 7.76-1.34.69-.22 1.21-1.41 2.07-.68 1.36 1.16 2.38.28 2.76-.75.56-1.48 1.07-1.22 2.28-.79a3.47 3.47 0 0 0 3.29-.5c2.51-1.82 5.9-1.35 8.52-3.25 1-.73 2.94.11 4.11-1.13 1.77 1.36 1.75-2.92 3.64-1.15 1.87-2.08 5.08-.69 7-2.68 2.11.6 2.56-1.82 4.29-2.3 4.89-1.36 9.06-4.52 13.9-6.13 2.3-3.88 7.84-2.87 10.18-6.71 4.37-.9 7.94-3.3 11.33-6.06.11-.09.33-.08.44-.18 2.65-2.44 6.33-3.48 8.82-5.92s5.65-3.8 8.63-5.21a32.86 32.86 0 0 0 7.83-4.65c1.87-1.64 4-3 5.89-4.55 2.37-2 5.27-3.58 6.51-6.94.62-1.71 2.65-2.91 4.1-4.29.43-.42 1.33-.22 1.57-1 1.15-3.49 4.09-5.54 6.37-8.13 1.62-1.83 4-3 4.77-5.59 2.5-.48 2.21-3.27 3.82-4.56 2.76-2.21 5.94-7.42 7.38-10.54.73-1.56.87-3.34 2.23-4.8a7.65 7.65 0 0 0 2-3.56c.39-3.07.48-3.71 2.28-5.42.46-.45 1.21-1 1.16-1.51-.3-3.11 2.48-5.13 2.66-8.13a11.22 11.22 0 0 1 1.89-4.87c1-1.53-.31-4.19 2.44-4.74-.47-2.36 1.53-4.3 1.1-6.67s.38-4.52 1-6.69a25 25 0 0 0 .16-13.44c-.49-1.71.53-3.7-1.05-5.15 1.61-2.14-1.67-2.87-1.37-5.09.32-2.4-1.89-4.5-4.37-5.31-1.7-.56-2.5-1.38-2.41-3.13 0-.65.17-1.48-.45-1.83-2.34-1.35-2.71-4.85-5.94-5.28-.8-.1-.13-.73.25-.79.87-.14 1.24-.47.5-1.14-1.12-1-2.32-2-3.53-2.9-2.35-1.79-3.72-4.56-6.32-6.14-.62-.38-.6-1.74-1-2.62s-2.34.83-2-1.41c.24-1.6-1.44-.38-2-1s-1-.87-1.48-1.34c-.83-.79-1.52-1.65-2.92-1.59-2 .09-.32-2.46-1.87-2.89-2.3-.65-3.31-3.92-6.37-3.12-.42.11-.74-.42-.89-1-.34-1.21-1.43-1.57-2.44-2.16-1.32-.76-2.81-1.22-3.76-2.9-.68-1.21-3.41-1.14-4.38-2.33-1.37-1.67-3.75-2.08-4.62-4.23-.23-.57-.64-1.07-.87-1.7-.43-1.19-1.13.69-1.9-.08-1.61-1.6-3.89-2.4-5.53-3.85s-4.71-1.46-5.55-4.19c-.08-.26-1.1-.58-1.25-.43-1.32 1.29-2 .28-2.59-.7-.31-.54-.24-1.21-1.11-1.37-4.72-.9-8.15-4.47-12.5-6.15-1.21-2.26-4.2-1.53-5.79-3.44-.43-.53.25-2.73-1.89-1.85-1.36.57-1.72-1.49-3.18-1.68-2.26-.29-4.7-1.68-5.51-3.55-1-2.22-3.37-1.94-4.42-3.83-.83-1.49-3.17.18-4.6-.94-1.15-.89-1.19-3.27-3.55-2.61a1.77 1.77 0 0 1-1.36-.37c-4.95-4.14-11.95-5.32-15.9-10.88-.84-1.18-1.73.75-2.37-.31-.5-.83-1-1.66-1.51-2.47-.18-.27-.56-.68-.73-.63-3 .91-3.71-4.54-7.09-2.59-.06 0-.49-.3-.54-.52-.87-3.35-5.34-2.82-6.4-6-3.62-.17-5.77-3.42-9.06-4.35-1.37-.39-2.62-1.8-3.9-1.77-2.54.06-4.34-1.44-6.26-2.45-3-1.55-5.84-3.27-8.85-4.76-3.3-1.64-6.32-3.95-10.2-4.15-2.15-2.14-5.19-2.44-7.74-3.78s-4.78-3.93-8.1-4.17c-.53 0-1-1.16-1.5-1.21-1.29-.12 0-3-2.4-2-1 .42-1.77-1.68-2.89-2.29a13.47 13.47 0 0 0-3.1-1.29c-2-.5-2.63.08-2.64 2.25 0 1.15-.08 2.23.93 3.19 1.86 1.75.73 4.83 2.68 6.57 1.09 1 1 2.34 1.52 3.44 1.75 3.73 1.8 8.25 5.11 11.27.43.39-.34 5-.9 5.16-3.58.91-6.34 3.81-10.16 4.09-.85.06-1.3.41-.54 1.07 1 .87.76 1.58.56 2.78s-1.56 2.07-.49 3.51-1.54 2.48-.72 4.09c1 1.92-1.56 3.57-.49 5.54.89 1.64-1.7 2.53-.79 4.62.59 1.38-.88 3.57-1.21 5.43-.44 2.5-1.85 5-1.2 7.47.77 2.84 1.54 5.35-.93 7.67-.6.57-.39 1.21.09 1.74a1.36 1.36 0 0 1 0 2.15c-.77.71 1 1.23.05 2-.47.4-1.72.74-1 1.81s.35 2 0 3.19a55.93 55.93 0 0 0-1.07 7.88c-.51 4.73-1.47 9.4-2 14.12a91.08 91.08 0 0 1-1.93 9.06c-1 4.46-.65 9.29-3.37 13.3.46 2.15-2 4.14-.85 6 1 1.65 0 3.63 1.51 5.11.6.61.22 1.81-.57 2.66a15.52 15.52 0 0 0-4.21 7.44c-1.47 6.91-5.19 13-7.18 19.7A4 4 0 0 1 632 727c-3.89-.85-7.38-3.2-11.53-3.19-.37 0-.77-.59-1.12-.95s-1.08-1.1-1.69-.75c-2.24 1.27-4-.23-5.59-1.18-1.77-1.08-3.77-1.09-5.55-1.52-2.26-.54-3-2.68-5-3.22a10.86 10.86 0 0 1-1.44-.2 22.93 22.93 0 0 1-3-1.48 1.69 1.69 0 0 1-.8-1.1c-.1-1.08 1.87-3.27 3.09-3.37 5.16-.38 10.09-1.84 15.1-3a2.29 2.29 0 0 0 1.68-1.34c1-1.56 1.31-3 .41-4.58-.45-.79-.82-1.7-.44-2.31.77-1.25 1.15-2.11 0-3.49-1-1.19 1.34-2.82.72-3.53-1.41-1.63-.46-2.82.23-3.95.92-1.49 1.47-2.47-.74-3.27-.64-.23-.6-1.56 0-2.22a10.24 10.24 0 0 1 2.55-2.28c.61-.36 1.27-.55 1.11-1.32-.42-2 .52-3.89 1.12-5.67 1.09-3.17.57-6.44.76-9.61.25-4.08 2.2-8.2.23-12.39a2.52 2.52 0 0 1 .32-2.82c1-.85-.68-1.58.19-2.49a4.51 4.51 0 0 0 1.33-3c-.22-2.65-1.16-5.26.08-7.89-2.17-2-.1-4.09.25-5.85a30.11 30.11 0 0 0 .76-5.74c0-3-.06-6 0-9a20 20 0 0 1 .64-4.79c.93-3.4 1-7 1.3-10.59.13-1.72-1-2.56-2.42-1.7a23.68 23.68 0 0 1-7.16 2.74 23.21 23.21 0 0 0-5.9 1.94c-1.41.78-2.9 2-4.35 2-1.65 0-3.19 1.61-5 .29-.46-.34-2.13 2.42-1.65 2.62 2.56 1 .14 3.21 1.21 4.68.86 1.18-.55 2.46-1.2 3.4-1.13 1.65 2.45 1.84.8 3.57-.75.79-.38 2.15 0 3.3.56 1.94 0 5.14-1.54 5.89s-2.32 2.45-3.93 3.21c-2.88 1.36-3.46 4.77-5.61 6.89-.89.86.52 3.42-2 3.74 1.79 2.71-.44 4.13-1.87 5.78-1 1.15-.91 0-1.43-.54-.9-1-2.42-1-3.74-1.14-.23 3.78-3.39 1.72-5.08 2.32-2.43.86-3.07-.1-4.47-2.59-.57-1 .23-1.54-.07-2.48-1.23-3.81-1.34-7.93.64-11.41 1.5-2.65 3.17-5.28 4.76-7.9 1.71-2.84 3.47-5.86 3.12-9.46 1.19-.19.89-1.13 1-1.91.24-1.76 0-3.52.41-5.34.28-1.4-.48-3.36-.4-5.09s-.6-3.66.82-5.21c-1.91-2.71-1.31-5.91-1.61-8.9-.39-3.88-1.79-7.64-1.26-11.63a20.14 20.14 0 0 0-.25-5.89c-.36-2.08-.14-4.32-.84-6.2-1.33-3.58-1.41-7.33-1.72-10.94-.57-6.61-.17-13.31-.17-20a18.82 18.82 0 0 1 .06-2c.06-.52.42-1.09 1-.84 2.07 1 4.09.1 5.78-.6 2-.82 4.37.3 6.05-1.44 1.61 1.12 2.93-.43 4.26-.45 2 0 4.12-1.63 6.16 0 .85.69 1.77.28 2.75-.08 1.72-.64 2.82.06 3 1.76.13 1.32 0 2.66 0 4 .11 1.48-.78 3.35 1.61 4 .67.19.57 1.58.31 1.76-2.27 1.63 1.48 4.12-.86 5.69a2.05 2.05 0 0 0 .52 1.24c1.74 1.38 1.57 2.59 0 4-.56.49-.71 1.43-1.15 2.1-.52.82.2.71.57.87 2 .87-.25 1.7-.15 2.67.16 1.63 3.11 1.15 2 2.77s-.08 3.6-.95 4.67c-1.17 1.44.85 2.95-.12 3.36-1.83.78-1.13 1.61-.77 2.78.73 2.41 2.27 5-.68 7.06-.07 0-.08.31 0 .37 2.08 2.22-.67 2.15-1.43 3-.46.5-1.17 1.25-.74 1.66 2.29 2.2-1.22 5 .83 7.12-1.76 1.27.5 3.3-.88 4.64 1.16 1.94-.36 3.48-.72 5.21-.17.81 1 1.72 1.3 1.36 1.22-1.63 2.54.55 3.92-.38 1-.64 2.59-.4 3.34-1.68 1-1.7 2.32.84 3.78-.53 1.92-1.8 5-2 7.09-4a2.5 2.5 0 0 1 2.39 0c1.34.88 1.85.45 2.19-.84 2.34 1.18 4.26-.69 5.33-1.79 1.3-1.34 3 1.75 3.4-.77a29.59 29.59 0 0 0 7.43-2.56c1.54 2.2 2.93-.76 4.42-.14 2.19-2.12 5.28-2.14 7.82-3.38a13.18 13.18 0 0 1 6-1.66c3 0 7.09-4.42 7-7.36a.83.83 0 0 0-.56-.55c-2.06-.22-.55-2.36-1.74-3.12-1.37-.9-1.88-2.13-.71-3.61-1.08-1-1.37-2.54-2.05-3.72-.83-1.45-.67-2.72-1-4.1s-1.89-2-1.88-3.84c0-1.29-1.15-2.59-1.79-3.89 2.12-1.86-1.49-1.7-1.07-3.11.62-2.11-1.72-.5-1.79-1.19-.23-2.65-2.47-4.11-3.44-6.27s-1.43-4.48-2.7-6.57c-.9-1.47-2.3-2.48-3.09-4-.67-1.29-1.23-2.64-2-3.86s-1-2.76-2.68-3.15c.17-2-1.6-2.49-2.67-3.53s-.59-2.67-1.76-3.93c-2.81-3-5-6.56-7.53-9.79-2.95-3.72-5.95-7.35-9.2-10.81-1.79-1.91-4.23-3.27-5.2-5.91a1 1 0 0 0-.72-.57 7.21 7.21 0 0 1-5.3-3.56c-1.26-1.9-3.89-1.8-5.24-3.58-.46-.62-.91-1.79-1.36-1.79-2.72 0-4-2.91-6.47-3.1-2.75-.2-4.29-2.18-6.15-3.74a2 2 0 0 0-1.4-.27 3.72 3.72 0 0 1-3.06-1.27c-2.28-2-5-2.19-7.83-1.46-.59.15-1.08.79-1.57 0-.82-1.33-1.76-.44-2.78-.4-1.69.06-2.88 1.39-4.69 1.21-2.05-.2-2.9 1.12-2.28 3 .35 1.06 1.09 2 1.52 3 .94 2.27.73 5.87-.7 6.34-2.17.72-3.37 2.55-5.1 3.71a12.47 12.47 0 0 1-9.78 2c-2-.34-2.73-1.68-4-2.62-1.06-.78-1.79-.69-2 .79a4 4 0 0 1-.31 1.4c-2.41 4.34-4.63 11.26-4.27 15.49.33 3.7.06 7.77 2.68 10.81.89 1-.76 2.55 1.32 3.23 1.7.55-1.25 2.4.19 3.61 0 0-.57.6-.14 1.17 2.19 2.86 3.09 6.24 3.85 9.7.83 3.76 3.43 6.75 4.45 10.52a60.33 60.33 0 0 0 5.6 13.67c.78 1.37 1.88 2.7 1.63 4.49a2.46 2.46 0 0 0 .65 1.78c2.83 4.17 5 8.62 5.4 13.75a4.14 4.14 0 0 0 1.16 2.6c1.74 1.47 1.47 3.77 2.64 5.53s1.2 4.22 2.08 6.3c1.06 2.48 1.42 5.52 2.82 7.54 1.68 2.42 1.87 5.1 3 7.55s.62 5.06 1.1 7.58Zm229.86 11.78c.09.21-1.61 1.17.3 1.17s3.52.39 4.09 2.63c.13.54.84 1 1.39 1.37 2.38 1.47 5.82 1.46 6.78 4.9.28-.18.73-.56.8-.5 2.22 1.85 6 1.46 7 5.15.22.9 4.82 3.28 6 3.87a43.8 43.8 0 0 1 5.67 3.29c.49.34-.26 1.83.64 2.06.56.14 1.18-1 2.18-.48 2.12 1 4.25 2.35 5.11 4.43.6 1.43 1.81 1.23 2.56 2 .31.32 1.79-1.14 1.72.77 3.26 2 5.43 5.26 8.81 7.21 1.29.75 2.06 2.6 3.93 2.84-1.51 2.32 1.11 2.67 2 3.67 1.19 1.39 1.62 3.5 2.7 4.39 2.72 2.26 5.18 4.51 6.57 7.82a.45.45 0 0 0 .88-.14c-.27-2 1.35-2.88 2.42-4.08a7.67 7.67 0 0 0 1.57-1.89c1.46-3.82 4.8-6.48 6.23-10.36.38-1.06 2-1.6.89-3.18a1.17 1.17 0 0 1 .65-1.64c2.25-.8 3.36-2.11 2.33-4.6-.14-.34.16-1 .4-1.34.62-1 2.18-1.48 1.11-3.32-.47-.81 1.38-1.47 1.9-2.55a8.43 8.43 0 0 0 .55-3.34c.15-1.78-.82-4.13 2.49-4.18.44 0 1.45-1.81 1.21-2.33-2-4.21 3.25-7.43 1.46-11.62-.42-1 2-.49 1.8-1.83a5.9 5.9 0 0 1 2.58-6c.64-.49-.27-.89-.18-1.17.34-1 1.14-2 1.21-3 .08-1.19-1.14-2.45-.51-3.61 1.45-2.66.48-5.53 1-8.2a44.49 44.49 0 0 0 .94-10.21c1.61-1.08 0-2.75.55-3.74 1.71-2.94.64-6.42 2.15-9.33-.94-1.47-1.08-2.67 1.06-3.08-1.29-3.24.37-6.13 1-9.16.17-.79-2.06-.15-1.33-1.23 2-2.92.68-6 .21-8.71a27.88 27.88 0 0 1-.27-5.6c0-1.67.79-3.29.49-4.77s2.09-3.55-.72-4.62c2.42-2.08.12-4.52.25-6.75a19.92 19.92 0 0 0-.53-7.09c-1.52-4.51-1.33-9.08-1.35-13.66a2.1 2.1 0 0 0-.14-1.18c-1.93-3.77-3.49-9-3.3-12.87.1-2-1.76-3.79-.46-5.83-2.25-2.79-3.48-5.81-2-9.39.15-.35.2-.67-.25-.7-1.88-.14-1.42-1.55-1.38-2.6a13 13 0 0 0-2.62-8.56c-.59-.77-1.68-1.3-1.38-2.47.5-2-.69-2.05-2.11-2.09-.29 0-.89-.91-.56-1 4-1.44-2-1.38-.35-2.4-.91-.77-.62-4.35-3.16-1.33-.52.62-.91-.12-1.11-.41-1.22-1.74-3.83-.86-5.09-2.78-.25-.39-2.14 1.33-3.18-.4-.74-1.23-1.69-1.08-2.91-.29-.88.58-2.17.83-2.64-1-.23-.89-1.32-2.19-2.09-1.61-1.73 1.31-2.94-.61-4.53-.23a22.18 22.18 0 0 1-5.47.08 18.6 18.6 0 0 1-3.43-.24c-2.86-.59-5.61-2.12-8.67-.79a2.63 2.63 0 0 1-2 0c-5-2.46-10.56-.9-15.78-1.88-2.2-.42-4.65.46-6.37-1.81-.45-.6-1.35.37-1.7.26-3-.88-6.16 1.14-9-.55-1.88-1.13-3.66.61-5.41-.12-2.14-.9-4.16-2.49-6.63-.89-1.72-1.36-3.83-.57-5.67-1-1.64-.43-3-2-5-1.21-2.46-2.26-5.84-1.55-8.71-2.56-2-.7-4.54 0-5.68-2.63-.19-.43-.36-.39-.75-.09-2.2 1.71-3.9-.71-5.9-.83-.53 0-1.15-.89-1.74-.41-1.4 1.15-2.5.54-4 .13s-3.12-.43-4.7-.72c-1.43-.26-3.36.47-5.09.39-1.53-.07-2.51 1.43-4.21 1.07a17.72 17.72 0 0 0-12.88 1.69c-.64.37-1.6.17-2.41.27-.64.07-1.5 0-1.87.34-3.29 3.3-7.49 5.65-10.17 9.49-.63.91-1.72.91-2 1.8-.27.73.2 2-.67 2.2-1.37.31-1.34 1.11-1.45 2.15-.19 1.73-1.24-.08-1.59.29-.77.8-.19 1.92-.43 2.86-.08.28-.33.73-.53.75-2.13.15-2.12 2.29-3.2 3.4-.7.71-2.06 2-2 2.09 1.44 1.9-.76 1.55-1.27 2.1-1.35 1.48-3.06 2.68-4.18 4.3-3.27 4.73-6.87 9.2-10.44 13.7-.92 1.16-2.35 1.83-3.07 3.44-.57 1.29-1.23 3.06-2.76 3.93-3.09-2-.19 2.88-2.65 2.3-1.49-.35-.38 2-1.36 2.72-4.39 3.41-7.13 8.23-10.4 12.58-1.41 1.89-1.82 4.87-3.57 6.09-3 2.11-3.11 6.27-6.38 7.94.67 2.65-1.73 4.09-2.53 6.16s-2.54 4.11-3.91 6.1c-.41.59-.92 1.11.25 1.23 2 .2 3.53 1.38 5.14 2.53 1.93 1.39 3.94 2.89 6.35 3.27a6.66 6.66 0 0 1 3.8 1.94 24.33 24.33 0 0 0 3.53 2.57c1.3.84 2.65 1.59 4 2.38 1.69-1.9 1.94 1 3.07.91a6.42 6.42 0 0 1 5.75 2.53c.73.83 1.53 1.3 2.5.32.62-.63.93.08 1.13.37 1.7 2.47 4.27 3.45 7 4.23 5.17 1.48 5.17 1.48 9.19 4.91a5.48 5.48 0 0 0 2.1 1.13c1.87.57 4.18.54 5.09 2.87 2.11-.87 2.17 2.17 3.85 2 1.43-.1 1.85 1.4 2.88 1.7a20.07 20.07 0 0 0 3.9.34c1.33.1-1.18 2.43 1.17 2 1.4-.27 2 1 2.83 1.73s1.55 2 2.85.68c.63-.61.92.06 1.15.35 2.58 3.3 6.84 4.47 9.58 7.56 1 1.14 3.52.09 3.64 2.51.79-.44 1.61-1.51 2.46-.19 2.56 4 8.12 4.06 10.6 8.14 3-.8 4.81 1.8 7.25 2.62 1.39.48 3.7.27 3.48 3.07-.06.82.83-.47 1.43-.24a9.82 9.82 0 0 1 4.9 4c1 1.54 3.13.6 3.7 2.37a.93.93 0 0 0 .83.31c1.09-.63 1.74-.76 2.24.77.37 1.12 2.45 2.62 4.47 3.58s4.29 1.42 5 4a.66.66 0 0 0 1.14.29c1-.81 1.37-.46 2.19.57s2.37 2.76 4.45 1c.75-.57 1.55.23 1.3 1.63ZM579.8 871c3.29-.15 6.1-.31 8.46 1.66a1.23 1.23 0 0 0 1.36.09c5-1.91 10.46-1.24 15.57-2.74 3.37-1 6.93-1.31 10.29-2.31 1.09-.32 2.13-.94 3.26-.71 2.23.44 4.2-.51 6.18-1.11s3.5-2 5.65-.95c.23.11.87 0 .9-.17.76-2.71 3.42-1.86 5.13-2.76.41-.22 1.79 0 .88-.92a25.69 25.69 0 0 1-4-6.06 7.09 7.09 0 0 0-2.84-2.75c-1.49-.74-2-.75-.08-1.68.53-.26-.74-1.52-1.68-1.59-2-.14-3.15-.84-2.34-3 .22-.58.19-1-.33-1-4.12-.1-4-3.92-5-6.29-.63-1.43-1.31-2.84-2-4.27-1.19-2.62-3.94-3.86-5.1-6.41-.1-.23-1.1-.54-.77-.68 3.51-1.58-1.17-2.17-.36-3.36a66.57 66.57 0 0 1-4.1-6.43c-.71-1.17-.24-1.64 0-2.46a1 1 0 0 0-.27-.86c-.51-.33-1 1.12-1.51.18-.39-.66.2-1.19.55-1.75.56-.91.22-1.45-.82-1.75s-.9-1.06-.45-1.9c.65-1.21-.18-1.61-1.18-1.72-.25 0-.71.55-.8.48-1.27-1 .79-3.53-1.86-3.91-.48-.07-.48-.37-.21-.71 1.38-1.76-.49-2.92-.67-4.27-.29-2.13-4.13-3.15-1.8-5.9.09-.1-.16-.74-.35-.8-1.57-.47-3.07-1.4-2.46-3.07.86-2.36-2.38-1.69-2.08-3.39.33-1.87-.62-3.14-2-4.25a2.28 2.28 0 0 1-1-2.12c.45-4-3.77-6.39-3.44-10.32-2.8-2.71-3-6.62-4.46-9.93-2.29-5.26-5-10.31-7.1-15.67-.86-2.2-2.33-4.23-2.54-6.62s-1.6-4.3-3.15-6a8.59 8.59 0 0 1-2.21-3.74 76.65 76.65 0 0 0-3.74-11.36c-.89-2.27-.37-4.73-1.12-7.15-.63-2-2.07-3.77-2.15-5.82a26.34 26.34 0 0 0-1.79-8c-.88-2.46-1.93-4.71-1.65-7.49.11-1.16-2.09-2.66-1.39-3.83 1.37-2.28-2-2.41-1.45-4.09.06-.19-.58-.71-.54-.76 2-2.23-.56-4.23-.3-6.4.39-3.29-2.47-6.55-.18-9.91 0 0-.31-.17-.36-.31-1-2.44-.79-2.4-.53-3.8.14-.78 1.31-1.26.7-2.09-1.12-1.53-.2-3.27-.64-4.81-.53-1.88 1.62-3.73.61-5-1.55-2 1.37-2.93.48-4.59-.56-1 .73-1.73.93-2.67a2.52 2.52 0 0 0-1.44-2.89c-.94-.53-1.46.35-2.08.86-.86.72-1.37 2-2.74 2a43 43 0 0 0-6.21.78c-.57.07-1.32-.78-1.91.16-.89 1.43-2.53 1.2-3.75 1.82a6.18 6.18 0 0 1-4.35.4c-.47 2.34-2.4 1.52-3.87 1.91-4 1.07-7.92 2.44-11.88 3.63a5.65 5.65 0 0 0-2.81 1.88c-1.06 1.29-2.07-.67-3.45.1-1.2.66-2.78 1.86-3.72 1.8-1.49-.1-2.62-.47-3.67.89a1.65 1.65 0 0 1-1.27.6c-3.55-.57-6.26 1.17-9 3-.77.53-1.58 1.44-2.66 1-1.51-.63-2.61 1.7-3.61.83-2.16-1.87-1.43 2-3.26 1.36-1-.38-3 .51-3.71 1.84-1.1 2.15-2.77-.41-3.7.65-1.42 1.62-3.77 1.17-5.16 2.44a7.08 7.08 0 0 1-5.83 2 1.06 1.06 0 0 0-.79.48c-1.83 2.87-6.08 2.27-7.72 5.38a13.38 13.38 0 0 0-9.31 7.42 2.94 2.94 0 0 1-1.84 1.55c-1.43.18-1.36 1.4-1.7 2.15-1 2.16-2.19 4.41-2.41 6.71s-2.88 4.08-1.18 6.62c-2.22 4.64-2 10-4.46 14.6-.33.6-.75 1.16-.18 1.75.87.9.17 1.66.09 2.58-.32 3.39-1.91 6.49-2 9.87 0 1-.24 1.94-.33 2.88-.12 1.23-2.41 1.06-1.53 1.58 1.31.76 1.92 1.76 1.34 2.62-.95 1.4-.75 2.8-.91 4.25-.26 2.38-.82 4.75-.93 7.13-.13 2.62.18 5.28-1.66 7.49-.27.33-.25.47.05.82a2.08 2.08 0 0 1 0 3.11c-1.22 1.14 1.19 2.36-.23 3.38.23 3.78-1.81 7.34-1.14 11.13.24 1.31-1.13 2.33-.43 3.55a4.44 4.44 0 0 1 .28 3.84c-1.3 2.77.35 5.3.18 7.94-.06 1 .69 1.76 0 3s.93 2.77 0 4.43 1 3 1 4.65c0 1.08 1.4 1.94.91 3.18s1.73 2.26.11 3.5c-.13.1.1 1.07.4 1.27 1.47 1 1.53 2.89 2.86 4a14.1 14.1 0 0 1 5.2 8c.11.5.22 2.07 1.08 1.7 2.24-1 2.87 1.2 3.17 2 .67 1.85 2.72.11 3.49 2s1.36 4.81 4.51 4.89c.06 0 .09.29.17.42.94 1.57 4.68 5.49 5.83 6.06.68.34 2.91-.76 1.38 1.55 1.85.2 2.62 3.09 4.5 2.38 2.49-.95 1.11 2.8 3.21 2.15 1.7-.53 3 .46 4.42 1.53.72.54-.28 2.71 2 1.91.87-.31 1 2.19 2.32 2.38a7.43 7.43 0 0 1 3.18 1.08c1.35.91 3.68.8 3.32 3.41-.06.41.37.55.65.29 1.53-1.43 2.22.13 3.27.8 2.18 1.38 4 3.55 6.86 3.55 1.25 0 .83 1.39 1.46 1.65s1.52-1.16 2.08-.53c2 2.28 5.39 2.48 7.22 5 .48.65 1.2 1.33 2.07.6 1.46-1.21 2.57-.37 4 .19 4 1.59 7.88 3.89 12.55 3.18a5.88 5.88 0 0 1 3.67.66c2.58 1.59 10.66 4.73 13.24 3.77 2.36-.87 4 .23 5.88.65a8.22 8.22 0 0 0 4.5.22c1.51-.41 3.7-1 5.31-.27 2.36 1 4.77 0 7.17.76 1.48.49 3.62.82 5.23-.55a1.7 1.7 0 0 1 1.86-.24c1.54 1.59 4 .2 5.44 1.77 1.7-1.63 3.81-.54 5.22-.88ZM747 434.26c0 1 .38 2.19-.07 2.86-1.06 1.62-.3 2.12 1 2.92a2.79 2.79 0 0 0 3.43-.12c1.27-1 2.28-1.27 3.31.19.69 1 1.25.59 1.89-.1s1.32-1.55 2-.79c2 2.16 5.54-3 6.85 1.59.39-.28.77-.56 1.15-.86a2 2 0 0 1 1.54-.51c2.1.08 4.17.28 6.25.42 1.54.1 2.86 1.55 4.12.94 2.34-1.13 2.44 1.58 3.78 1.8a36.92 36.92 0 0 0 3.93.88c3.45.25 6.83 1.25 10.28 1.75 1.56.22 2.91 2.51 4.41-.15a2.1 2.1 0 0 1 1.78.24c1.31 2.32 4.06 1 5.69 2.42 1.38-1.05 2.55.61 3.91.28s2.4 1.07 4 .09 2.27 1.58 3.72 1.87a2.68 2.68 0 0 0 2.63-1c.33-.35 1-1.34 1.34-.23.6 2.06 1.44 1.1 2.5.53a3.39 3.39 0 0 1 1.91-.18c.86.12.33 1.59 1.32 1.61.7 0-.22-1.57 1.36-1.29s3.41.16 4.66 1c1.61 1.09 3.5.15 5.14 1.45 1.09.86 3.08-.44 4.87 0 1.44.37 3.17-1.93 4.86 0 1.77-.79 3.29.92 4.72.72 2.18-.3 4.38 1.28 6.26.14 1.6-1 2.54-.6 3.27.63 1.07 1.79 2.9-1.26 3.67.66 1 2.46 3.06-.89 4.17.89.15.23.94.07 1.43.06.15 0 .38-.05.43-.15a3.53 3.53 0 0 0-.16-4.12c-.13-.16.46-.76.49-1.17.11-1.48.63-3.22 0-4.4a21.54 21.54 0 0 1-1.61-6c-.34-1.93.21-4.16-.2-6.35a46.29 46.29 0 0 0-2.61-9.7 15.1 15.1 0 0 1-1.52-6.05c0-1.72 0-4-1.07-5-2-1.94-1.22-4.72-2.81-6.6.52-3.3-.76-6-2.7-8.56-.58-.75-.27-1.6-.35-2.4s.24-1.74-.48-2.34a6.79 6.79 0 0 1-2.32-5.61c.3-2.54-2.25-3.36-2.19-5.38.1-3.17-2.8-5.47-2.41-8.8.1-.83-1.54-1.51-1.81-2.8-.18-.87-1-2.3-1.48-2.29-2.19 0 .3-2.06-1.13-2.18s-1-1.37-1.24-2.26-2-.46-1.94-1.87a6.1 6.1 0 0 0-.25-2.42c-.32-.78-1.38 1.1-1.71-.24-.19-.78 0-1.67-.11-2.48a2.75 2.75 0 0 0-.88-1.17 30.48 30.48 0 0 1-4.09-6.09 37.29 37.29 0 0 0-7.38-9.3c-3-2.61-3.72-7.36-8.21-8.5-.28-.08-.29-.93-.6-1.26a8.22 8.22 0 0 0-2.54-2.3c-1-.4-1.83-1.26-3.15-1.21s-1.74-1.12-2.22-2.28c-.7-1.71-1.84.65-2.81-.07s-1.43-2.27-2.79-1.19c-1.72 1.36-1.7-1.24-3.1-1.09-3.2.34-6.58-2-9.67.62-2.23-1.55-3.68.81-5.47 1.26a32.52 32.52 0 0 0-7.87 3.47c-2.72 1.52-4.7 4.4-6.72 6.82a10.87 10.87 0 0 1-3.9 3.33 2.31 2.31 0 0 0-1.61 2.05c-.29 1.53-.72 3.41-1.79 4.32-1.29 1.11.18 2.6-1.23 3.62a7.27 7.27 0 0 0-2.74 3.92c-.46 2-2.47-.42-3.1 1.69-1.33 4.44-4.4 8.21-5.62 12.76-.54 2-.41 4.24-1.22 6.1-1.54 3.56-1.32 7.58-3.15 11.05-.31.6.09 1.59.21 2.39a14 14 0 0 1-1.55 7c-.47.67-.37.93-.07 1.61a5.06 5.06 0 0 1 .05 4.3c-2.74 5.46-.66 11.63-2.66 17.19-.12.33.3.89.55 1.3.6 1-1.28 1.52-.36 2.57s1.35 1.78-.56 2.46c-1.17.41 1.07 1.69.17 2.33-2 1.4-.66 3.63-1.56 5.25 1.74 1.81-.26 3.67-.26 5.51Zm-320.34 316c.48-3.31-1.6-6.92 1.3-10a1.46 1.46 0 0 0 0-1.43c-1.35-1.4.34-2.63.14-4-.1-.67.88-1.46.86-2.18a60.13 60.13 0 0 1 2-15.39c.38-1.65.11-3.41.63-5.15.46-1.56.13-3.37 1.35-4.71s-.27-3.14.63-4.78c.56-1 1.54-2.44.78-3.86-1.06-2 1.33-2.34 1.68-3.68 1-3.7.35-8 3.88-10.78.13-.1-.06-.61-.1-.93-1.73.29-2.09-3.22-4.42-1.55a2.15 2.15 0 0 1-2.32-.32 8.63 8.63 0 0 0-5.48-1.65c-1.58-2.39-4.74 1.08-6.22-1.67-3.46 1.45-6.22-2.39-9.64-1.26a86.27 86.27 0 0 0-20.38-5.24c-1-1.81-2.5.5-3.81-.48s-2.88.15-4.3-.57-2.58.48-3.75 1.18c-.23.15-.8.17-.92 0-1.22-1.53-2.34 0-3.43 0-2.28-.09-3.95 1.93-5.83 1.71-2.89-.34-5.29-.09-7.39 2-.21.21-.71.47-.83.38-2.36-1.76-3.27 1.11-4.81 1.7-.86.34-.89 2.67-2.94 1.69-.05 0-.71 1.33-1.16 2s-1.44.59-2.24.73c-1.55.28.23 1.23-.27 1.67s-1.62.32-1.71 1.46a.89.89 0 0 1-1 .81c-1.57-.17-1.82.68-2 2.06s-1.5 2.13-2.56 2.87c-.5.35-1.47.28-1.29 1.13.44 2.15-1.73 3-2.32 4.71-.54 1.56-1.44 3.17-2.14 4.81-.6 1.4-1.1 3.23-2.11 4.17-1.49 1.4-.48 3.2-1.49 4.52-.46.6-1.49 1.64-.89 2.09 1.64 1.24-.66 2.42.35 3.93 1.23 1.83.94 4.44 0 6.62a2.1 2.1 0 0 0 0 2.2 10.54 10.54 0 0 1 1.6 4.52c.14 1.67 1.75 3.26 1.74 4.89s3 2.09 1.29 4c2.82 3.57 4.8 7.72 7.59 11.28.57.73 1.28 1.2 1.29 2.2 0 1.31 1.5.82 2 1.83 1.85 3.76 2.6 4.1 4.72 6.2 1.49 1.47 3.37 2.24 4.89 3.75a192.9 192.9 0 0 0 15 13.22 34.9 34.9 0 0 0 5 3.88 63.1 63.1 0 0 1 14.54 10.8c.57.56 1 1.43 2 1.28 2.66-.42 4 1.64 5.72 3 .29.24.41.95.91 1 3.41.12 5.75 2.63 8.65 3.76 2.18.84 3.69 2.68 6 3.2 1.45.33 3.23-.62 4.29.55 1.68 1.84 4.2 1.59 6 2.91 1.47 1.06 1.06-.32 1.16-1s-.77-1.62-.7-1.69c1.43-1.49-1.34-1.73-.83-2.53 1.53-2.33 1.54-4.29-.35-6.52a3.59 3.59 0 0 1-.5-3.38c.26-.69-1.56-2.45-1.28-2.79.92-1.14.18-2.72 1.29-3.65.31-.26.09-.45-.07-.81-1.72-4 .78-8.54-1.41-12.54 0-.05.17-.27.28-.38 1.28-1.27-.18-3.36 1.39-4.59.31-.24.07-.84-.14-1.34a10.19 10.19 0 0 1 .22-8c1.06-2.43 1.29-5.19 1.84-7.83Zm229.43-151.73a10.78 10.78 0 0 0 .69-.93c.05-.08 0-.28-.13-.39-1.89-2.71-.07-4.64 1.42-6.63.4-.53.88-1 1.33-1.49.94-1.05-.32-1.78-.6-2.48-.41-1.05-1 .18-1.33.48a5.37 5.37 0 0 1-2.16 1c-2.17.63-4.23 2.15-6.38 2.23-2.42.09-4.12 1.22-6 2.28a2.29 2.29 0 0 1-1.86.39c-1.56-.62-3 1.44-4.49.22-1.35 1.26-2.76 2.18-4.79 1.92-.74-.1-.53 1.08-.85 1.49-1.37 1.74.65 3.5-.26 5.4a11.38 11.38 0 0 0-1.26 3.4c-.07 1.26.84 2.44-.07 4-.52.89.39 2.5.14 3.67-.41 1.85 1.7 3.89-.45 5.55 1.1 3.06-1.15 6.29.44 9.28.46.87-.07 1.1-.44 1.55-.78 1-3 1.82-.3 3.16a6 6 0 0 0-.7 1.7 35.06 35.06 0 0 0 0 6.48c.29 2.17-1.93 4.24-.11 6.43a1.44 1.44 0 0 1-.21 1.36c-2.16 1.28-.62 3.08-.73 4.63-.14 1.81.32 3.86-.39 5.36-.79 1.66 1.51 3.06-.12 4.42.65 1.61-.43 3.15-.2 4.7a10.62 10.62 0 0 1-.48 4.95c-1 2.7-.37 5.8-2.19 8.23-.26.36-.54 1.19 0 1 2.21-.76 2.25 1.85 3.85 2.24 2.11.5 3.95 2 6 2.68 1.21.36 1.66 3 3.57 1.28.09-.08.57.21.83.38.81.53 2.93-.49 3.48-1.23 1.13-1.52.18-3.25.77-4.78a33.62 33.62 0 0 0 1.99-8.46c.32-2.87 2.76-5.47 1.1-8.63a.65.65 0 0 1 .37-.29c2.06-.23.08-2.71 2-3.42.94-.35-1-2.92 1.06-3.87a.88.88 0 0 0 .2-1.32c-1.16-1.37-1-2.55 0-4 .79-1.14-1.76-2.33-.13-4 .7-.71-.15-3.38.45-3.67 1.83-.91.65-2.29 1.06-3.21a7.65 7.65 0 0 0 0-7c-.23-.46-.31-1.19.16-1.29 1.8-.38 1.06-1.26.67-2.28s.37-1.84.89-2.7c.37-.62.92-1.72.66-2.06-1-1.41-.22-3-.64-4.33-.46-1.55 2.35-2.89.18-4.43 1.25-1 1.26-2.77 1.5-4 .5-2.51 1.25-5 1.55-7.58s2.37-4.74.91-7.39Zm-55-63.12c.13-3.07-1.83-4.43-4.61-3.61-1.09.32-1.8 1.48-3.13 1.22-3.65-.7-7 1.46-10.69 1.06-2-.23-2.39.62-1.26 2.74.42.79-.13 1.09-.16 1.61-.16 2.58-1.24 5.15-.72 7.66.3 1.46-.85 3.1.22 4.1 1.4 1.29-2.06 3.46 1 4.13-1.29 2-.41 3.87.16 5.9.31 1.13 1.11 2.88.64 3.53-1.56 2.12 1.31 2.49 1.19 2.65-1.56 2.15-.34 4.07.3 6 .41 1.26-1.65 2-.81 3.13 1.54 2.15.51 4.51.77 6.75.15 1.32-.44 3 .16 3.93a6.74 6.74 0 0 1 .8 4.74c-.27 1.94 1.13 3.35 1.1 5.2-.1 6.16 0 12.32 0 18.48 0 1 .08 2-.85 2.7a4.2 4.2 0 0 0-1.24 2.55 17.54 17.54 0 0 1-5.36 9 12.49 12.49 0 0 0-2.17 3.22c-.4.65-.6 1.4.11 1.69 2.73 1.12 2.18 3.93 3.16 5.93.13.28-1 1 .31 1.19a.82.82 0 0 0 1-.85c.06-2 0-4 .06-6 0-1-.21-2 1.34-2.11 1.87-.11 1.62 1.13 1.68 2.29.06 1.44-.42 3 .84 4.24a4.12 4.12 0 0 1 .58 1.29 1.25 1.25 0 0 0 .56-1.17c.41-6.36 3.66-10.56 9.66-12.62.65-.22 1.36-.23 1.3-1.11-.15-1.95.5-3.94-.42-5.85a8.58 8.58 0 0 1-.15-6.7 9.64 9.64 0 0 0 .57-3.81c0-1.46.3-2.93-.32-4.39-.73-1.71 1-2.77 1.34-4.23a2.75 2.75 0 0 0 0-.5c0-1.83-.66-4.09.17-5.39 1.18-1.83-.08-3.52.68-5.29.66-1.55.12-3.6.15-5.43a8.69 8.69 0 0 1 .26-2.91c2.41-6 1.59-12.45 2.66-18.64a21.46 21.46 0 0 0 0-8c-.58-2.74 0-5.28.11-7.9a5.79 5.79 0 0 0 0-1.5c-.33-1.47-1.21-2.74-.08-4.44.82-1.32-.91-2.89-.9-4.48Zm-46 96.54c1.72.12-1.09-2.15 1.15-2.09 1 0 1.94-1.21 1.76-2.58a3.51 3.51 0 0 1 1.23-3.07c.65-.68.94-1.7 1.55-2.43a7.81 7.81 0 0 1 2.7-2c.88-.42-1-1.35-.27-2.44s2.37-2.82 1.48-3.76c-1.44-1.53.18-2.84-.46-4.38-.71-1.74-.16-4.12.16-6.27s1.82-4.5-.34-6.53c.55-2.53-.21-5.28.79-7.65.89-2.11 1.19-3.87-.33-5.69-.46-.55-.37-1.22-.54-1.84-1-3.37-2.58-6.5-3.48-9.93-.39-1.51-2.14-2.86-2.43-4.63s-2.29-3.24-1.91-4.84c.55-2.38-1.87-2.66-2.27-4.37-.53-2.3-1.89-4.41-2.9-6.6-.34-.73-1-1.78-1.58-1.44a3.42 3.42 0 0 0-1 2.33c1.7 1.17-.8 2.47.39 3.93 1.55 1.9-.13 4.74 1.12 7.06.54 1-1 1.85-1 3.15s1.65 2.25.36 3.51c.82 3.31-.18 6.74.72 10.09.59 2.23.89 4.61-.59 6.72-.5.71.85 1.14.08 2.05-1.05 1.24 2.17.32 1.08 1.61-.84 1 0 2.39-1 3.21-.35.28-.41.53-.11.8 1.19 1 .1 2.67.86 3.72 1.27 1.77-1.14 2.61-.87 3.75a9.4 9.4 0 0 1-.16 3.41c-.33 4.06-.06 8.12-2.13 11.9-.57 1 .5 2.81-.89 3.65-1.77 1.07-.18 2.73-.75 3.63-1.06 1.66-1.58 3.74-2.65 5-1.31 1.59-1.53 3.73-3.17 5a1.73 1.73 0 0 0-.27 2.62c.66.54 1.11-.82 1.79-1.14.43-.2 1-.52 1.35-.39 2.59 1 4.14-4.19 7-1.18 0 0 .47-.41.73-.61 1.71-1.3 1.71-1.3 4.79-1.23ZM622 698.26v2c0 3.16-.13 6.33 0 9.49a4 4 0 0 1-2.47 4c-1.53.76-2.17-.7-2.63-2-.21-.59-.76-.56-.89 0-.31 1.39-.91 1-2.07.92-1.59-.19-3.29.48-4.93.85-.26.06-.5.43-.66.71-.49.82.28.7.66.8.94.24 1.6.93 2.68 1.07 5.71.78 10.92 3.53 16.72 4.14 3.18.34 3.14.76 4.33-1.6.29-.57.57-1.16.81-1.75 1.41-3.55 2-7.5 5.13-10.21.2-.17.32-.77.19-.89-1.18-1.21-.31-1.89.5-2.76.65-.69.83-2 1.56-2.39 1.86-1.12-.75-2.47.48-3.86.82-.92-1.22-1.09-1.78-1.34-1.89-.84-3.89-1.67-5.66-2.58-3.73-1.93-8.38-2.36-11-6.17-.26-.36-.49-.53-.65-.28a1.75 1.75 0 0 0-.3.88c-.02 3.63-.02 7.3-.02 10.97Zm-44.25-87.86a2.39 2.39 0 0 0-.86-.37c-2.12 0-2.82-1.11-2.93-3.11-.16-2.84-2.21-5-3.26-7.48-.41-1-1.4-.21-2 .38s-.69 1.07.36 1.21c.55.07 1.14.57.83.93-1.49 1.73.68 3.7 0 4.83-1.43 2.26.49 4 .17 6-.12.72.39 1.49 1 .64 1.44-2.09 3.89-1.36 5.69-2.34.32-.23.85-.09 1-.69Z"/><path d="M299.75 392c1.8 1.12 5.3-.17 6.33 3.42 1.76-.31 3.23 1.34 4.48 1.27 2.13-.12 3.21 3.2 5.51 1.34a32.59 32.59 0 0 1 4.72 3.8c.69.58 1.76 1.55 3.11 1.17.6-.17 1.6.27 1.77-.43s-1.21-.4-1.33-.92c-.35-1.53-2-2.22-2.3-3.68-.14-.6-.22-1.39.45-1.79a1.3 1.3 0 0 1 1.36.15c1.39.81 2.88 1.46 4.28 2.26.4.23.61.35.74-.13.08-.29.16-.76 0-.92-1.41-1.49-2.32-3.48-4.32-4.37-.29-.13-.65-.12-.94-.26-1.15-.57-.55-3.83-3.21-2.07a6.58 6.58 0 0 0-2.63-3.47c-1.28-1-3-1.11-4.25-2.29-.57-.55-.31-2-1.14-1.71-1.16.48-1.19.19-1.53-.76s-1.75-.25-2.14-.7a73.46 73.46 0 0 1-4.68-6.13 1.6 1.6 0 0 1 .24-1.37 1 1 0 0 1 1.66.08c1.11 1.61 2.88 2.5 4.27 3.75a11 11 0 0 0 4.37 2.86 10 10 0 0 1 5.49 3.7 12.33 12.33 0 0 0 4 3.13c1.94 1.07 4.94 2.9 5.94 4.44a11.43 11.43 0 0 0 4.61 3.55c.64.32 1.2-.28 1.7-.74.72-.64 0-1-.11-1.54-.2-1.61-3.55-.61-2.44-3.1a46.82 46.82 0 0 0-4.11-2.25c-2.07-.91-3.54-2-3.81-4.59-.11-1-.82-3.23-3.05-1.8-.1.06-.73-.36-.71-.51.29-2.29-.81-2.13-2.4-1.52-.33.13-.77-.53-.68-1.09.41-2.52-2.28-1.2-2.93-2.37a24.75 24.75 0 0 0-1.86-3.31c-.26-.34-1.28 0-1.93-.14-.44-.08-1.2-.4-1.19-.6 0-1.92-1-2.77-2.61-3.69-1.05-.59-1.21-2.63-3-2.82-.13 0-.29-.2-.35-.34-.46-1-.9-2.06-1.35-3.09-1.45.82-2.08-.4-3-1.08s-.42-2.31-2.12-2.45c-1.07-.09-1.49-1.74-2.77-1.94-.53-.08-1.12-.59-.78-1 1.8-2-1.15-2.6-1.09-4.05a3.09 3.09 0 0 1 .19-1.42c.47-.72.8.05 1.07.29 2 1.75 3.67 3.82 6.4 4.53a2.26 2.26 0 0 1 1.25 1.44 2.76 2.76 0 0 0 1.83 2.16 7.37 7.37 0 0 1 5.27 5.17 1.18 1.18 0 0 0 1 .91c2.1.4 2.81 2.42 4.2 3.65 4.49 4 8.48 8.44 13.1 12.26.92.76 2.23.82 2.85 1.81.49.78 2.3.89 1.2 2.67-.39.62.87 1.5 1.92 1.6s2.09-.37 2.79.62c2.9 4.08 7.07 6.86 10.47 10.43 2.64 2.77 6 4.89 7.69 8.54.26.55.88.4 1.29.2a1.15 1.15 0 0 0 .46-.76 2 2 0 0 0-.39-1.86c-1.34-1.23-2.06-3.14-3.34-4.15-2.13-1.68-2-4-2.8-6-.17-.4-.35-.62.06-.75a1.48 1.48 0 0 1 .94-.09c2.52 1 4.22 3.08 6.1 4.91.32.32 1 .81 1.1.72.66-.54.22-1.1-.1-1.7-2.48-4.68-5-9.31-7.11-14.18-1.92-4.54-4.5-8.8-5.76-13.62-.31-1.19.58-2.56 1.39-2.06 1.1.67 3.06-.59 3.44 1.73.25 1.53 1.44 2.76 1.6 4.51.27 2.9 2.53 5 3.88 7.48.46.85 1.27 1.21.48 2.17-.28.35-.35.51-.05.82 2.89 3 3.89 7.29 6.94 10.18.55.53.87 1 .4 1.62s-.59.93 0 1.6c2 2.3 4.45 4.36 4.35 7.86 0 .84.88.78 1.45 1 2 .86 1 3.35 2.4 4.63.12.11-.21.92-.5 1.25-.76.88-1.67 1.63-2.43 2.51a2.21 2.21 0 0 1-2.71.83c-1.11-.32-.61 2.7-2.29 2-1.07-.44-2.29 0-3.25-.95-.61-.61-.83.45-.66.63 1.18 1.27.5 3.24 1.77 4.48a.85.85 0 0 1-.31 1.27c-.43.2-1 .34-1.34-.15-1.41-1.85-2.47-1.73-4.4-.21-1.74 1.37-4.61 1.17-6.57.05a16.6 16.6 0 0 0-4.45-1.6c-6.77-1.77-13.53-3.67-20.15-6-3.3-1.15-6.73-2-9.93-3.5-1.95-.95-4.37-.91-6.55-1.43-2.95-.69-5.87-1.49-8.81-2.24a57.16 57.16 0 0 1-10.9-3.56c-.95-.46-2.28-.18-3.43-.17a6.5 6.5 0 0 1-3.73-.92c-1.91-1.21-4.37-.61-6.47-1.65s-4.06-2.54-6.73-2.56c-1.85 0-3.26-2.08-5.38-2-.2 0-.63-.49-.59-.65a11.28 11.28 0 0 1 1-2.67c.57-1 1.26-.33 2.07-.06 2.7.93 5.48 1.67 8.25 2.42.62.17 1.65-.19 1.92.15 1 1.31 2.78.86 3.84 1.68 1.57 1.21 3 2.18 5 1.24 3.56 1.49 7.43 1.84 11.05 3.06 1.43.49 3.16.2 4.38 1.75.87 1.1 2.84-.05 3.76.36 3.44 1.54 7.3 1.15 10.65 2.77 2.64-1 3.8 2.17 6.28 2.2a6.45 6.45 0 0 1 4.39 1.63c1.1 1 3.32.85 5.05 1.16.27 0 .78-.11.85-.29.24-.69-.49-.48-.75-.72-2.7-2.44-7-2.33-9.13-5.62-1.7 1.46-2.43-1.53-3.4-1-2 1.17-1.22-2.58-3.3-1.5-1.25.65-2.93.2-.41-1.31.43-.26-.86-.44-1.28-.79s-1-1.08-1.33.11c-.41 1.53-1.37 1.36-2.09.46-1.41-1.75-4.1-1.09-5.41-3.12-.53-.82-2.7 1.61-3-1.14-.16-1.5-2.77.39-2.85-1.75 0-.64-2 .08-1.13-1.32.47-.72.26-2.13 1.74-2 .29.05.62.05 1.43.05ZM157 265.48c.34 1.12-.87 1.65-1.07 2.64-.24 1.18-1.05.95-1.86.44-1-.65-1.53-2.51-2.9-2.09-2.09.64-.76-1.84-2-1.86-.36 0-.71-.62-1.17-.09l-3.08-2c-2-1.55-2.11-5.72-6.15-4.57-1.47-2.11-3.81-3.18-5.71-4.77a55.1 55.1 0 0 0-11-7.33c-2.64-1.32-4.7-3.83-7-5.84-.26-.24 0-1.2-.82-.61a2.4 2.4 0 0 1-2.75.35c-.61-.34 1.21-1.65-.72-1.87-1.22-.14-1.81-1.7-3.22-2.11s-1.69-1.86-1.51-3.32c.14-1.15.93-1.78 2-1.46.16.05.36 0 .47.1 4.94 4.25 11.7 5.82 16.24 10.4 2.47 2.5 5.88 2.93 8.17 5.43 2.09 2.29 5.61 2.84 7.35 5.71a3.35 3.35 0 0 0 2.41 1.56 8.41 8.41 0 0 1 5.58 3.89c1 1.44 2.44 1.7 3.76 2.42s1.85 2.24 3.49 2.64a2.16 2.16 0 0 1 1.49 2.34ZM196.53 296s.9-.08 1.17.31c2.18 3.17 6.41 2.89 9 5.65 2.4 2.57 5.59 4.41 8.42 6.6 4.26 3.31 8.55 6.57 12.5 10.29 1.2 1.13 2.57 3.13 5.06 2.39 1.39-.41.42 2.8 2.81 2.07.84-.25 3.1 1.3 3.3 2.31.54 2.7 4.94 2.07 4.27 5.43-.25 1.23 2.12.46 1.39 1.68-.28.48-1.4.64-2 1.27-1.21 1.32-1.31.59-1.51-.7-.18-1.14-.31-2.78-2.43-1.57-.83.47-5.14-2.46-5.42-3.45a1.83 1.83 0 0 1 .43-1.32c.66-.88-.19-1.22-.6-1.49-1.11-.72-.7.48-1 .87-1.23 1.74-1.94 1.91-2.67.13-.63-1.51-1.49-1.4-2.61-1.57-1.3-.19 1.2-1.94-.66-1.89-1.11 0-1.87-.89-2.7-.93-2.28-.11-.39-3.41-2.83-3.36-.57 0-.53-2.38-2.18-.86-.39.36-1-.23-1.34-1-1.56-3.37-4.43-5.26-7.65-7a92 92 0 0 1-8.81-6c-.92-.65-1.49-1.65-2.69-2.11-1-.37-2.58-1.87-2.44-2.18.66-1.38-.17-1.9-.83-2.76-.51-.57-.08-.9 2.02-.81ZM147.14 296.86c.9 1.47 2.92.62 4.11 1.9s3.4 1.47 4.51 2.71c1.35 1.51 3.23-1.71 4.15.89.71 2 3.29 1.14 4.51 2.55s2.82 1.52 4.2 2.34 2.57 2 4 2.79c1.94 1.13 4.07 1.95 5.95 3.16a54.1 54.1 0 0 1 4.69 3.77c2.44-1 3.47 1.5 5.2 2.22 2.94 1.24 5.59 3.17 8.38 4.76.36.2 1 .12.84.69-.11.31-.86.33-1.24.6-.66.46.81 2.06-.13 1.55-1.54-.84-3.15.92-3.86-.1-2.06-3-6.08-2.17-8.28-4.67-1.58.35-2.47-.75-3.32-1.73a8.89 8.89 0 0 0-4.49-2.68 6.45 6.45 0 0 1-3.3-2c-1.23-1.49-2.48-3.23-4.94-2.66a1.62 1.62 0 0 1-1.23-.64c-2-2.71-5.51-3.34-8-5.61-1.42-1.31-4-1.91-6-2.49-3-.86-3.92-3.95-6.68-4.75-.21-.06-.16-1.22-.11-1.85.02-.2.48-.36 1.04-.75ZM175.64 338c1.73-.23 3.3-.05 4.42 1.53.83 1.17 2 1.4 3.42 1.53 2.27.2 4 1.93 6.09 2.79s4.42.38 5.66 2.68c.12.23.53.36.82.42 6.3 1.31 11.3 5.91 17.67 7a3.91 3.91 0 0 1 2.35 1.64 3.7 3.7 0 0 0 3.48 1.41c.9-.09 1.46 0 .85 1.32-.39.87 1.49 2.44.11 3.35-1.23.81-2.65.15-4.1-.52-3.51-1.61-6.8-3.59-10.22-5.34-2.2-1.12-4.75-1.69-6.91-2.92a13.33 13.33 0 0 0-4-1.37c-1.44-.31-2.68-1.71-3.93-2.73-.56-.47-1-.81-1.56-.14a.91.91 0 0 1-1.32.13 10 10 0 0 0-6.62-3.67c-2.77-.33-4.19-2.95-6.9-3.33-.71-.1-1.4-2.23-1.54-3.49-.07-.52 1.45-.15 2.23-.29ZM196.32 398c4.66-.27 8.88 1.69 13.35 2.29 3.32.45 6.59 1.27 9.89 1.87 1.88.34 3.82.43 5.67.86s3.59 1.17 5.39 1.74c.1 0 .25-.21.4-.28 1.33-.7 1.4 1 2.28 1.18 1.14.19.52-1.74 1.23-1.36 1.1.59 2.39 1.39 2.39 2.91 0 1.08-1.94 2-3.48 1.89-.49-.05-1.21-.29-1.44-.06-1.7 1.71-3.65.5-4.84-.2-1.61-1-3.43.51-4.64-.87-1.37-1.55-3.12-.64-4.66-1-1.69-.4-3.52-1.78-5-1.43-3.38.82-5.88-1.65-9-1.67a29.41 29.41 0 0 1-8.91-1.78c-1.79-.59-3.83.26-5.73-1-1.07-.68-1.09-.83-.3-1.51 2.17-1.86 4.83-1.58 7.4-1.58ZM249 392.57c-.14.47.34 1.05-1.19.95-4.23-.3-8-2.41-12.22-2.5a2 2 0 0 1-1.75-.71c-1-1.51-2.53-1.4-4-1.29a5 5 0 0 1-3.68-1c-3.13-2.43-7.06-2.85-10.66-3.89-4.29-1.24-8.21-3.53-12.68-4.2-1.1-.17-1-1.35-.74-2 .37-1.06 1-2.27 2.49-1.71 3.44 1.3 7.28.92 10.6 2.8 3.06 1.73 6.64 2.1 9.93 3.34 2.9 1.1 6.12 1.68 9.11 2.73 3.47 1.21 7.11 1.79 10.51 3.06 1.82.65 4.64 1.08 4.28 4.42ZM243.55 305.22c.56.87 2.08.4 2.38 1.52.48 1.83 2.25 2.13 3.41 2.13 2.41 0 3.51 1.33 4.67 3s1.76 4.21 4.74 3.44c.09 0 .24.2.37.3 1.29 1 0 2.15.22 2.89.31 1.23 2.14-.42 2.22-.21.46 1.16 1.43 1.6 2.31 2.25.33.24.3 1 .64 1.24.63.5 1.64-.11 2.26.63l-1.47.93c.15.21.3.61.44.6 2.35-.05 3.53 1.38 4.29 3.34 2.35-.37 2.39 3.35 4.89 2.75.58-.15.86.34 1 .8.28.76-.6 2.92 1.6 1.31.56 1 .78 2.36 1.9 2.73 2 .68.45 2.43 1.26 3.54.93 1.29-.69 1.32-1.37 1.86-1.08.84-1 .08-1.48-.62a19.89 19.89 0 0 0-4.28-3.93c-1.82-1.34-4.86-1.52-5.3-4.76-.12-.86-2.25-1.28-3-2.26-1.08-1.46-3.71-1.47-3.55-4.17.06-1-1.14.95-1.82-.06-.46-.68-1.22-1.15-1.73-1.79-1.54-1.92-3.4-3.57-5-5.39-1-1.14-2.41-1.43-3.26-2.67a8.41 8.41 0 0 0-3.34-2.78 7 7 0 0 1-3.65-5.5 1 1 0 0 1 .65-1.12ZM320.22 433.06c1.14-.72 1.75 1.18 2.66.47 1.08-.84 2.24-.57 3.34-.48s1.76-.79 2.69-1c.31-.08.81-.16 1 0 2.14 2.23 4.76.16 7.17.81s4.95 0 7.43.18c3.56.24 7.19-.79 10.7.89 1.16.56 2.94-1.22 4.1.74.28.47 1.87-1.33 1.7.7-.09 1 .6 2.26-1.22 2.76-1.21.33-2.24 1.5-3.58.5a1.57 1.57 0 0 0-2.18-.15 3.25 3.25 0 0 1-3.69.2c-1-.64-1.68-.79-2.6 0a2.12 2.12 0 0 1-2.32.1 9.9 9.9 0 0 0-8.49-.08c-1.81.88-2.52-1.67-4.13-.76-.45.26-.77-1-1.6-.58s-1.46 2.77-2.51.07c-.2-.5-1.66 1.15-2.87 0a3.12 3.12 0 0 0-3.67 0c-.89.52-.88 0-1.21-.6-.66-1.3-1.48-1.16-1.88.21-.48 1.7-2.15-1-2.55.76l-1.14-2c-.35-.61.2-1 .53-1.11 1.43-.62 2.56-2.11 4.32-1.63ZM80.07 260a3.9 3.9 0 0 1 4 1.46c.7.91 1.89 1.52 2.38 2.51.77 1.54 2.11-.4 2.74.67s1.93.41 2.63.79c1.55.84 3.33 1.22 4.7 2.48 3.63 3.33 8.06 5.59 11.94 8.63a16.13 16.13 0 0 0 4.54 2.36c1.52.5 3.39.54 3.94 2.19s3.27-.1 3.21 2.32c0 .63 1.06.52 1.7.62 1.82.29 1.08 1.74 1.11 2.74 0 1.56-1.24 1.11-2.15 1.25a2.77 2.77 0 0 1-2.54-1.25c-1-1.13-2.07-2.12-3.81-1.81-.4.08-1.18-.18-1.27-.47-1.08-3.07-3.69-3.1-6.29-3.61-1.46-.29-2.76-1.59-4-2.56s-2.06-2.6-4.1-2.42c-.8.1-.8-.9-.8-1.55s-.29-1.07-1.06-1.36a59.32 59.32 0 0 1-13.86-7.43c-1.22-.88-2.85-.46-4-1.51-.65-.58-2.07-.72-1.56-1.87s.48-2.91 2.55-2.18ZM77.65 293a2.61 2.61 0 0 1 3.64.71c1.29 1.52 4.26.45 5 3 2.73-1.9 3.77 1.4 5.74 1.94a19.43 19.43 0 0 1 5.45 3.1c2.07 1.42 5 1.45 6.59 3.82a3.53 3.53 0 0 1 4.4 1.34 5.54 5.54 0 0 0 4.25 2.09c.76 0 1.53.42 1.61.94.43 2.57 2.67 2.46 4.35 3a6.17 6.17 0 0 1 2.38 1.67c1.11 1 2.22 2.78 1.7 3.77-1 2-2.46-.42-3.8-.54a13.6 13.6 0 0 1-7.19-3.59c-2-1.72-4.68-2.09-6.55-3.65-2.17-1.79-5.06-2.34-6.91-4.52-4.5-.73-7.77-4.48-12.34-5.07-.3 0-.78-.19-.84-.4-1.33-4.24-6.38-3.46-8.62-6.43-.31-.4-1.62.24-1.1-.92.29-.63.86-1.58 1.82-.55a2 2 0 0 0 .42.29Z" class="c"/><path d="M306 388.29a14.4 14.4 0 0 1 0 1.8c-.13.86-1.05 1.19-1.4.75-1.58-2-3.67-2-5.84-1.83a1.91 1.91 0 0 1-1.79-.61c-1.93-2.59-4.85-3.9-7.49-5.47s-4.9-4.23-8.1-5.27c-1.13-.37-2-1.61-2.95-2.45-2.42 2.26-3.55-.84-4.87-1.55-3.21-1.72-6-4.29-8.87-6.55a1.21 1.21 0 0 1-.57-1.27c.19-.88.88-.92 1.51-.83 2.38.37 4.79.71 6.56 2.62 1.36 1.48 2.72 2.92 5.06 2.38 1.19-.27 1.41 1 2.07 1.44a26 26 0 0 0 6.85 3.43c1.35.42 2 .68 1.93 2.13 0 .21 0 1.21.76.49.19-.19.12-.63.26-.91.39-.76.89-.21 1.07.09.72 1.25 1.33 2.56 2 3.83a1 1 0 0 0 1.31.36c2.19-.68 2.19-.7 2.76-.14 2.55 2.5 4.88 5.24 8.94 5.38 1.36.05.52 1.64.8 2.18ZM286.64 310.83a3 3 0 0 1-4.13 2 4.52 4.52 0 0 1-1.81-1.68c-1.27-2.5-4.32-3.65-4.94-6.68a2.41 2.41 0 0 0-1.83-1.52c-.58-.15-1.41-.67-1.5-1.14-.41-2.33-2.31-3.39-3.73-4.91s-2.13-3.91-3.58-5.69a24.81 24.81 0 0 0-1.74-2.3 19 19 0 0 1-5.59-10.47c-.09-.49-1.11-1 0-1.38.55-.17 1.63-.05 1.82.29 1.68 3.11 5.14 4.8 6.46 8.13.75 1.86 3 2.65 3.2 5 .08.88.65-.14.69-.4.17-1 .71-1.07 1.19-.36a39.43 39.43 0 0 1 3.57 5.74c.59 1.28.28 3.08 2.56 2.57a2.73 2.73 0 0 0 1.47 2.47c.75.38 2.66 1 1.59 2.86-.33.58.51.51.85.72 2.33 1.49 2.78 4.67 5.33 6 .4.17.41.48.12.75ZM294 369.19c0 1.74-.92 2.42-2.54 1.6a53.08 53.08 0 0 1-5.36-3.25c-.93-.62-1.51-1.83-2.92-1.56a.9.9 0 0 1-1.1-.73c.16-2.71-2-2.62-3.64-3.63-2.76-1.72-5-4.23-7.37-6.56-.44-.44-.65-1-1.38-1.06-1.81-.24-3.4-.82-4.08-2.79a1.67 1.67 0 0 0-1.05-1c-3.91-.61-5.33-4.4-8.17-6.36a2.68 2.68 0 0 1-1.39-2.45c.05-.94.71-1.69 1.52-1.27a25.58 25.58 0 0 1 7.24 4.84 19.58 19.58 0 0 0 6.21 4c2.07.94 4.06 1.85 5.19 4.13a5.79 5.79 0 0 0 2.92 2.32 9.14 9.14 0 0 1 4.14 3.35c1.38 2.15 4.33 1.76 5.65 4.08.48.84 2.63.68 1.42 2.65-.16.26.68.47 1.14.42 2.57-.21 3.57.7 3.57 3.27ZM258 436.47a9.44 9.44 0 0 1 1.62-1.37c1.14-.56 2.69.91 3 .52 1.72-2.11 3.41-.59 5.1-.3.29.05.77.52.78.51 2.41-3.14 5.68-.34 8.52-1.14 2.05-.57 4.55.41 6.83.84.4.08-.09 2 1.35.79 2.86-2.33 4.66-2.42 8.77-1.46a11.18 11.18 0 0 0 3 .75 2.91 2.91 0 0 1 3 3.35c0 .34-.05 1.26-.77.63-1.11-1-1.72.35-2.55.51a7.31 7.31 0 0 1-4.41-.17c-1.88-.89-3.65-.57-5.49-.24-.14 0-.26.23-.41.27-2.19.55-4.14-.49-6.17-1-1.86-.43-3.46 2.23-5.48.32-1.18-1.11-2 .64-3.06.81s-1.63-1-3.07-.54c-2.52.72-5.26-.84-8-.82-.84.04-1.67-1.41-2.56-2.26ZM276.86 385.54c-.83.61-1.7.72-2.13 1.92s-2.48.94-3.08.35c-1.39-1.34-3.33-1.4-4.67-2.43-6.28-4.84-13.86-7.46-20.26-12.08-3.24-.05-5.18-3.13-8.31-3.57a1.73 1.73 0 0 1-1.34-1.86c.09-.9 1-.68 1.44-1a3 3 0 0 1 3.59-.33 207.33 207.33 0 0 1 19.45 10.55c.42.26.82.92 1.16.88 3-.42 4.29 2.24 6.29 3.58.79.53 1.28 1.76 2.43 1.45 2.2-.59 3.07 1.66 4.77 2.07.24.02.43.28.66.47ZM326.85 335.67c.3-1.34-.46-1.47-1.28-1.8-1.09-.43.88-1.22-.08-1.9-2.57-1.79-1.93-5.45-4.26-7.47-.43-.38-.23-1.57-.19-2.37.06-1.16.77-1.31 1.67-.84 1.71.89 3.81 1.49 3.3 4.16-.25 1.27.75 2.17 1.24 3.08q7.42 13.75 15.19 27.33c.67 1.17.27 2.57 1.32 3.61a1.61 1.61 0 0 1-.16 2.23 3.19 3.19 0 0 1-3.52-.41c-1.82-2.64-3.49-5.4-4-8.61-.22-1.35-.72-2.86-1.52-3.44-3.17-2.28-3.52-6.13-5.53-9-.78-1.1-.35-2.92-2.35-3.37-1.19-.25.38-.87.17-1.2ZM376.14 416.49c1.19-1.54-.61-2-.21-3.09a2.5 2.5 0 0 0-.71-2.73c-.49-.45-2-.93 0-1.84 1.26-.57-.71-1.26-.92-2-.09-.3-.24-.59-.35-.89-.47-1.3 1.13-2 .94-3.19-.22-1.34-1.78 1.08-1.94-.65a7.26 7.26 0 0 0-.57-3.35c-.45-.79.87-1.9.58-3.09-.24-1 .53-2.29-1.29-2.75-1.22-.31-1-1.87-.64-2.57a6.73 6.73 0 0 0 .16-5.46c-.64-1.54.9-2 .84-3.13a.42.42 0 0 1 .84 0c.17 1.52 1.22 1.24 2.18 1.35.42.05.57.24.5.91-.37 3.82.59 7.62 1.62 11.15.83 2.82 1 5.72 1.52 8.49s1.76 5.64 1.28 8.64a1.65 1.65 0 0 0 .55 1.8c2 1.16.92 2.6.12 3.59-.63.77-.78 3.16-1.87 2.12-.77-.88-3.42-1.46-2.63-3.31ZM335.27 427.14a51.3 51.3 0 0 1-5.17-2.87 1.51 1.51 0 0 1 .5-2.13c1.33-.48 2.91.17 4.18-1 .46-.44 1.21.31 1.61.81 1.09 1.35 2.09 1.36 3.21 0 1.32-1.6 1.22.11 1.66.72s.71 1.27 1.41 1.06c1-.31 1.58-2.61 3-.55.88 1.31 2.39.75 3.55 1.35 1.7.87 3.71 1.77 5.63.15.34-.28.9-.79 1.14-.14.54 1.54 2.75.89 3.18 2.79.3 1.34.48 2.54-.68 2.53-2 0-4.28 1.89-6-.69-2 .93-3.91-.52-5.94-.19-1.58.26-3.34.36-4.45-1.33a2.35 2.35 0 0 0-.37-.33c-1.3-1.16-2.1 1.58-3.52.42-.69-.59-1.21-2.4-2.94-.6ZM335.52 448h-2.66c-.83 0-1.68.15-1.85-1.06-.2-1.43.37-2.22 1.93-2.49 1.18-.2 2.52-.09 3.5-.63A24.9 24.9 0 0 1 350 441c3.15.15 6-1.67 9.18-1.11a2.18 2.18 0 0 1 2 1.62c.31.83.77 1-.48 1.56-2.55 1.1-5 2.2-7.89 1.88-2.33-.26-4.47.75-6.68.92s-4.47.39-6.47 1.74c-1.24.92-2.85.21-4.14.39ZM233.9 348.21c0 .78-2.74 1.47-3.89 1.39-1.83-.13-1.59-2.62-3.17-2.52a5.64 5.64 0 0 1-4.11-1.19c-2.08-1.92-4.94-2.48-6.92-4.49s-4.37-2.83-6.55-4.25c-1.07-.7-1.41-1.24-1.2-2.22.3-1.42 1.55-.82 2.44-.92 1.95-.23 2.47 2.58 4.78 2.09 1.51-.32 2.91.61 3.87 2.2a3.91 3.91 0 0 0 2.81 1.59c1.58.05 2.37 1 3.31 1.87s1.58 1.92 2.84.64c.32-.33.45-.24.81 0 2 1.38 2.76 4 5 5.14.08.05-.02.32-.02.67ZM196.54 263.14c.25.22.51.43.75.65l14 13a21.1 21.1 0 0 1 2.1 2.13c2.12 2.61 2 3.1-1.19 4.15-.6.2-1.1.68-1.71.86s-1.46 0-1.38-.84a3.63 3.63 0 0 0-1.86-3.29c-2.8-2.09-4.29-5.41-7.68-7.16-2-1-3.09-4-4.4-6.21a2.06 2.06 0 0 1 .65-2.66ZM174.18 365a5.06 5.06 0 0 1 5.41 2c.63.85 1.47 1.39 2.45.4.32-.32.49-.34.81-.09 2.38 2 5.38 2.59 8.18 3.66a4.88 4.88 0 0 1 2.95 3.05c.49 1.46-.42 2.24-2.18 1.95-4.56-.76-8.73-2.69-12.81-4.69a7 7 0 0 0-3.66-.82c-2.15 0-3.86-2.21-5.2-4.08a.9.9 0 0 1 .82-1.38h3.23ZM159.93 364.2c-.19.24-.49.71-.55.68a5.26 5.26 0 0 0-4.85 0c-2.95-2.9-7.8-2.07-10.54-5.39a1.76 1.76 0 0 0-1.82-.5c-2.28.53-2.33-2.34-4.07-2.67a1.18 1.18 0 0 1 .45-1.22 3.11 3.11 0 0 1 .46-.1c2.16-.68 4.24.4 6.44.28a8.71 8.71 0 0 1 6 2.39 6.63 6.63 0 0 0 4 1.4c2.2.12 4.44 3.09 4.48 5.13ZM324.61 449.82c-.79.66-.36 2.46-2.16 2.2a8.77 8.77 0 0 0-6.49 1.52c-1 .71-1.91-1.44-2.94-.06-.7.95-1.9 1.25-2.75 1.93-1.21 1-1.9-1.13-3-.15a7.94 7.94 0 0 1-2.93 1.64c-1.13.34-1.91-.7-2.21-1.56s-.54-2 .94-2.31c.74-.14 1.64.18 1.94-1 .46-1.73 2.13-2.71 3.35-1.9 1.43 1 3-2.62 3.82.39.12.41.39.35.75 0 1.36-1.21 2.58-2.68 4.82-1.94.31.1.18-1.87 1.38-1.52 1.82.53 3.57 1.32 5.35 2q.67.29.13.76ZM141.39 321.36a7.33 7.33 0 0 1 4.29 2c1.47 1.39 3.51 1.11 5 2.48a12.39 12.39 0 0 0 5.43 2.78c1.71.38 2.72 1.75 3.85 2.9.38.38 1.22.75.46 1.49-.45.44-1.06 1.32-1.59.89-1.4-1.16-2.52-.54-3.91 0-1.14.4-.67-1.32-1.36-1.64-.48-.22-.86 1.07-1.54.2-2.44-3.1-6.5-3.74-9.39-6.17-1.32.91-1.56-.23-2.15-1s-2.92.39-2.32-1.47a4.25 4.25 0 0 1 3.23-2.46ZM274.45 467a12.33 12.33 0 0 0-1.49 0c-1.48.15-2-.47-2-2 0-.56-.63-1.1-.86-1.69a1.41 1.41 0 0 1 .13-.93c.13-.35.5-.36.73 0 1.34 2.34 3.19 1.38 4.52.35 2.54-2 5.91-1.49 8.42-3.27.79-.56 1.14.28 1.61.24 1.23-.11 2.92 1.35 3.64-1.1.24-.8 2-.43 2.54-.28 2.22.61 2.45 2.48.62 3.77a8.9 8.9 0 0 1-3.38 1.75c-3.93.66-7.95.75-11.53 2.93-.72.44-1.93.06-2.92.06ZM186 289.92c-.23 1.09-1.2 2.28-1.84 1.92-1.29-.71-3.08.48-4-1.28-1.67-3.25-5.06-5-7.07-8-2.89.47-3.79-2.19-5.51-3.55-.78-.63-.68-1.41 0-2.11a1.34 1.34 0 0 1 1.55-.42 14.67 14.67 0 0 1 6.25 3.5c2.74 2.43 6.13 4 8.57 6.88.84 1.02 1.19 2.14 2.05 3.06ZM308 342.56a4.17 4.17 0 0 1-.33 1.06.87.87 0 0 1-1.28.18c-1.7-1.75-5-2.16-4.75-5.54-3.26-3.21-5.11-7.42-7.9-11-.9-1.14-1.3-2.59-2.44-3.6-.64-.57.35-2.47 1.3-2.65.29-.06.81 0 .9.16 1.56 3 4.55 4.87 6.34 7.59 2.71 4.1 4.7 8.67 7.83 12.54.33.37.33.94.33 1.26ZM314.45 423.68c-4.65-.86-9.16-1.08-13.06-3.6-.51-.32-1.25-.19-1.41-1.07a7 7 0 0 0-.73-1.67c.46-.12.93-.2 1.38-.35 2-.63 3.82.63 5.94.28 1.79-.29 4.15.71 5.7 1.88s2.25-.62 3.45.06c1.64.93 3.55 1.39 5.21 2.3 1 .55 2.65.48 2.72 2.2a1.16 1.16 0 0 1-.85.26c-1.42-.64-2.25 2-4 .5-1.16-.93-2.8-2.34-4.35-.79ZM313 300c.21.74-1.27 1.08-.44 2.05.68.8 1.25.28 2 .26s.22 1.43.61 2 1.41.54 1.53 1c.24.86-.84 1.19-1.25 1.83-.54.83-.56 1.46.56 1.84 1.76.6 2.48 1.45.66 3-.53.44-.82 1.69-1.22 1.69-.67 0-.24-1.82-1.4-1.57-2.05.45-2.19-1.32-2.58-2.31-1.52-3.84-2.86-7.73-5.18-11.2a2.14 2.14 0 0 1 .39-2.7c.76-.86 2.39-1.21 2.54-.77.53 1.54 2.28 1 2.73 1.79s1.49 1.78 1.05 3.09ZM221 289.69v-2c0-.66-.07-1.42.75-1.57a1.58 1.58 0 0 1 1.28.46c2.44 2.71 6 3.9 8.61 6.39 2.29-.18 1.93 2.7 3.83 3.28 1.11.35.74 2.18.35 3.15s-1.77.65-2.69.54c-.76-.09-1.43-.74-2.2-.92-1.79-.43-2.49-2.73-4-2.87-2.4-.22-2.06-2.2-2.91-3.38-.47-.65-.95-.95-1.56-.55-.84.56-1.41.87-1.42-.54v-2ZM364 356.67c0-1.92.9-3.88 1.75-3.53 1.18.48 2.48.55 3.47 2.12s.92 3.53 1.27 5.1c.43 1.94-2.06 4.47 1.27 6-.91 1.11-1.08 2.49-1.52 3.79a2.86 2.86 0 0 1-2.18 1.81c-.61.09-.72-.44-1.05-.78-1.52-1.55-1-3.69-1.58-5.5-.96-2.86-1-6-1.43-9.01ZM344 385.26a4.77 4.77 0 0 1-.58.44c-1.57-1.6-3.95.2-5.55-1.36a8 8 0 0 1-2.8-4.95 3.76 3.76 0 0 0-1.56-2.39c-2.15-2.1-2.68-5.11-4.31-7.51-.58-.84.3-1.5.92-2 .84-.73 1.13.28 1.46.64 2.66 2.88 5.06 6 7.74 8.87 2 2.17 2.53 5.53 4.67 7.81.01.05.01.29.01.45Z" class="c"/><path d="M521 440.23c0-1.18-.08-2.17 1.7-2.33a5.55 5.55 0 0 0 3.8-1.9c.87-1.09 2-1 3.16-1a2.47 2.47 0 0 1 2.26 1.67c.37.87-.43 1.71-1.15 1.95-2 .69-2.11 1.64-.82 3.16.25.29-.05 1 .09 1.46 1 3.32.94 3.41-2.64 3-3-.38-5-1.6-5.91-3.1a6 6 0 0 1-.49-2.91Z"/><path d="M254.61 363.81c-.81-1.44-3.34.18-3.76-2.23-.14-.82-1.15-1.36-2.24-1.63-3.86-1-5-4.77-7.37-7.35-.07-.07.21-.54.42-.73s.69-1 1.09-.51c1.45 1.81 3.92.87 5.6 2.38 2.75 2.46 6.32 3.91 8.75 6.84 1.31 1.57 1.26 1.95-.76 2.39a4.06 4.06 0 0 0-1.73.84ZM258.38 414a25.65 25.65 0 0 1-3.78-.61c-2.34-.51-4.33-2.19-7.08-1.72-1.21.21-2.91-1.21-3.93-2.57-.38-.52.37-2.05.67-1.78 1.66 1.49 2.93-.47 4.4-.34s3-.32 4.07 1.2c.69 1 1.63.27 2.48.31 2.67.1 5.06 1.55 7.41 2.81.68.37.37 1.17-.12 1.68-1 1.02-1.02 1.02-4.12 1.02ZM312.63 347a3.52 3.52 0 0 1 3.13 1.22c2.32 2.63 5 5 7.13 7.75.91 1.16 2 2.15 2.86 3.32.4.52 1.61.82.63 1.86a2.14 2.14 0 0 1-2.17.85 5.86 5.86 0 0 1-2.62-1.09c-3.72-4-8-7.49-10-12.82-.41-.98-.38-1.04 1.04-1.09ZM234.31 437.73a1 1 0 0 0 1.61-.39c.25-.43-.07-1.5 1-.86 1.86 1.07 3.88.3 5.82.5a22.78 22.78 0 0 0 2.48 0c1.54 0 3.33.77 3.51 1.88.31 1.81-1.53 1.88-3.06 2.21-3.26.71-3.94 1-6.92.19a1.71 1.71 0 0 0-1.76.2c-2 1.73-3.55-1-5.48-.67-.59.09-.81-2.37-.15-2.47 1.04-.11 1.71-1.83 2.95-.59ZM364.05 338.65a6.17 6.17 0 0 1-.88 5.64 1.2 1.2 0 0 1-1.24.66c-.58-.1-.92-.41-.89-.95.06-1.58-1-2.74-1.6-4s-.51-1.74.86-2.06c.6-.13.35-.48 0-.92-1.41-1.84-1.86-6.52-.81-8a2.3 2.3 0 0 1 2.12-1c1.06.07 1.5.59 1.37 1.56-.15 1.24 1.32 1.87 1.05 3.2a18.6 18.6 0 0 0 0 3c-.03.93 1.52 1.88.02 2.87ZM275.36 411.91c.45.14 1.23.21 1.29.45.38 1.65 1.19 1.12 2.27.74.9-.32 1.27.87 2 1.24a7 7 0 0 0 2.9 1.22c.65 0 1.69-1 2 0 .39 1.21 1.8 1.84 1.8 2.8s-1.57 1.14-2.47 1.58c-.67.33-1.08-.66-1.67-.8-1.1-.25-2-1.24-3.46-.23-.89.61-2.37-.2-3.64-.7-1.63-.64-2.46-2.8-4.7-2.31-.58.13-1-2.21-.32-2.47 1.27-.54 2.3-1.96 4-1.52Z" class="c"/><path d="M549.77 412c1.84-.08 3.12 1.29 4.45.06 0-.05.3.07.41.17.5.44 1 .88 1.45 1.35s1.31 1.17.66 2.06c-.45.64-1.14 1.71-1.89 1.25-1.92-1.19-3.58.4-5.42.28-1.57-.09-3.36.73-5 1.16-1.11.28-1.61 1.2-2.55-.56a2.92 2.92 0 0 1 .4-3.24c2.92.22 4.68-2.93 7.58-2.54.14.01.29.01-.09.01ZM517.08 404c.49 0 .9-.12 1.14 0 3.12 2 6.42 3.73 8.7 6.72.66.86 1.24 1.91-.2 3.24s-2.12.35-2.85-.06a31.23 31.23 0 0 1-7.89-6.41c-.61-.67-1-1.11-.21-1.95.47-.54.28-1.65 1.31-1.54ZM527.37 457c-1.54.92-3.22-1.29-5.07-.27-1.08-1.78-2.23-3.53-3.2-5.36a2.13 2.13 0 0 1 .13-1.86c.6-.76 1 .32 1.5.5a9.2 9.2 0 0 1 3 1.38c1.45 1.22 2.53 2.28 4.69.93 1.27-.79 3 .55 4.31 1.24 1 .52-.2 3.18-1.62 3.4a25.75 25.75 0 0 1-3.74.04Z"/><path d="M386.14 426.21c-.33 5-2.32 8.67-4.25 12.4-2.1-.12-3.34 1.57-5 2.41a9.2 9.2 0 0 1-4.25 1c-.46 0-1.15 0-1.36.25-.9 1.18-2.18.43-3.19.79s-1.1-1.73-2.41-.47c-.5.48-1.78-.7-1.73-2 0-.18-.49-.57-.69-.53-2.4.46-2.87-1.39-3.73-2.92a15.49 15.49 0 0 0-2.07-2.15c-.83-.95.07-.85.64-1 .86-.17 1.22-.57.17-1-.6-.22-1.39 0-1.28-1 .35-3.35-.48-6.69.89-10.1 1.93-4.8 2.78-6 7.73-6.91 1.39-.25 2.5-1.14 4.07-1.14 1.29 0 2.47-.87 3.43.73.6 1 2-.18 2.66.72 1.07 1.54 1.53-.95 2.29-.3 1.93 1.62 4.74 2.28 5.86 4.71a55.29 55.29 0 0 1 2.22 6.51ZM368.7 419a5.7 5.7 0 0 0-5.7 5.8c0 .83.35 2-.06 2.43-2 2.17-.5 4.17.08 6.2.69 2.46 4.75 5.41 6.85 4.43 1.77-.83 3.83-.2 5.33-1.56 4.82.17 4.27-4.9 6.78-7 .13-.11 0-.68-.11-.91-1.34-1.93-1.33-4.45-2.82-6.32-.24-.3-.22-1-.72-1.06-3.28-.32-6.24-2.21-9.63-2.01ZM634 599c1.14-.53 2.15-1.32 3.59-1 .73.14 2.18.42 2.21-.37 0-1.27 2-2.07 1.13-3-1.59-1.71-.09-1.49.8-1.87.46-.2.92-1.29 1.24 0 .38 1.52-.55 3.21.86 4.67 1.23 1.28 2.94-.1 4.1 1a1.86 1.86 0 0 0 .76.56c1 .28 3.38-.81 3.21-1.51s-.89-.82-.93-1.61c-.08-1.32-1.25-1-1.9-.82-1.74.36-3-.89-4.58-1.1-.5-.06-.59-.77-.47-1.25s.59-.92 1.08-.67c2.89 1.48 5-1.36 7.66-1.29.37 0 .47-1.1 1-.38a1.35 1.35 0 0 1 0 1.28c-1 .75-.6 1.3.14 1.8 1.54 1.06.79-.47 1.08-.92.55-.86 1.53-.6 2.26-.46 1.17.22.68 1.3.7 2 0 2-.32 2.42-1.7 1.57-1-.61-1.52-.87-2.5 0a2.83 2.83 0 0 0-.75 2.7c0 .45 2.27 1.28 3 1.13.28-.06.51-.38.8-.45a.93.93 0 0 1 1.17.59c.1.28.1.79-.07.93-.61.51-.89 1.5-1.89 1.45-3.15-.14-3.25 2.55-4 4.47-.47 1.29.29 2.81-1 4.14-.67.7 1.14 2.56 2.32 2.37.27 0 .5-.39.74-.61.84-.79 1.44-.32 2.07.33.47.48 1.11 1 .75 1.65-.46.8-1.47 2.19-2.11 1.57-1.51-1.46-2.48.5-3.78.16s-1.13.69-.93 1.58c.68 3.06.64 3.17-.12 5.91-.12.43-.19 1.06.38 1.31s1.48.26 1.54-.51c.09-1.07.5-1.64 1.48-1.32a2.63 2.63 0 0 1 1.31 3.65c-.35.58-.69 1.34-2.14.62-2.18-1.07-4 .29-3.47 2.31.69 2.47-.22 4.27-1.06 6.31-.19.48.07 2.23.45 1.81 1.2-1.28 1.61.3 2.36.26a4.78 4.78 0 0 1 1 0c.84.13 1.82-.48 2.21 1.13.53 2.26-1.6 1.63-2.29 2.51s-.63-.15-.78-.49a6.25 6.25 0 0 1-.25-.9L647 641.5c.63 1-1.19 1.38-.6 2.42 1.06 1.85 1.53 3.56-1.2 4.48-.25.09-.26 1.23-.17 1.86s1.19 1.09 1 2.09c-.25 1.27.31 1.85 1.63 1.66a3.05 3.05 0 0 1 1 0c1.54.28 2.92 1.75 2.32 2.48s-1.73.55-2.68.3a1.91 1.91 0 0 0-2.57 2.3c.09.66-.19.76-.38 1.07-.73 1.2-.43 1.82 1 1.84h1c.8 0 1.66-.19 1.7 1.11.05 1.73-.15 2-2.22 2.19-1.69.16-2.74 1-2.75 2.66s-1.66 3.3-.12 5.22c.91 1.13-1.28 2.13-.94 3.53s-2.15 1.81-1.57 3c.26.54 2.2.06 3.17.5a2 2 0 0 1 1.41 2.35c-.15.55.37 2.06-1.09.84-.9-.75-1.9-.25-2.84-.38s-1.4.78-1 1.16c2.14 2.13-1.74 2.6-1.12 4.34.13.34-.92.39-.87-.07.12-1.07-1.66-2-.23-3.11-1.26-1-.75-1.69 0-2.83.58-.86.18-2.09-1.21-.67 0 0-.43-.31-.69-.38-1.69-.44-2.76.49-1.83 1.63 1.39 1.72.16 2.87-.13 4.25a.91.91 0 0 1-1.11.68c-.56-.07-.66-.47-.91-.91a6.75 6.75 0 0 1-.94-4.6c.16-1-.51-1.49-1.08-2.07-1-.95-2.76.22-3.42-1.41-.51 1.11-1.06 2.2-1.5 3.34-.2.51.24 1.49-.62 1.46a1.93 1.93 0 0 1-1.33-1.34c0-1.44-.42-2.93.28-4.35.35-.73 2-.86 1.13-2.09-.59-.83-.32-1.28 0-2.12.54-1.45-1.19-1.87-1.88-2.77-.56-.74-.92-1.31-.16-2.09a50.32 50.32 0 0 0 2.77-4.76c.6-2.08.41-2.64-1.45-4.3-.23-.19-.48-.35-.72-.53a3.3 3.3 0 0 1 .81-.46c.74-.16 2 .4 2.08-.65.14-1.4.53-3-.39-4.29a11.76 11.76 0 0 0-1.75-1.78c-.47-.44-1-.84-.15-1.42.43-.28.52-.81 1.45-.42 1.64.67 3.49-.66 2.84-1.62-2.15-3.21-.41-6.21.2-9.2.19-.9.94-1.47-.17-2.19-.72-.47-.69-1.49-1.13-2-1.16-1.35-.59-1.34.69-1.54.73-.11.47-1.1.49-1.74.06-1.92-.4-3.92 1.61-5.36 1-.69-.91-1-.67-1.91s1.31-1.08 1.07-2.07c-.13-.53-.35-.87-1-.84a19.06 19.06 0 0 1-2 0 3.83 3.83 0 0 1-.87-.32 5.55 5.55 0 0 0 .7-1.06c.39-1 2.11-.06 2.14-1.53 0-.3.13-.79.3-.84.66-.22.51.41.72.75 1.55 2.39 2.42 2.67 5.06 1.32.63-.32 2.11.06 1.83-1-.34-1.33 1.65-2.4.17-3.77-.33-.31 0-1.3-.12-1.92s-.59-.52-1-.06c-.7.79-1.3.52-2.08-.06-1.56-1.17-2-.23-1.89 1.24.12 1.71-1.08 1.26-2 1.31-.48 0-1.17-.26-.77-.66 2.09-2.08-.27-2.07-1.18-2.83-.61-.5-2.06-1.3.26-1.56 1.1-.13 1.41-1.79 2.68-2 .74 1.09 1.15 3 3 1.41.6-.5.88-.16.92.25.21 1.9 1 1.8 2.15.7.81-.82 1.54-1.7 7.38-3.54 4.5-3 4.51-3.85 4.5-4.68 0-2.44-.34-2.68-2.92-1.63-.83.33-1.37.74-2.08 0-.46-.48-1-1.39-1.39-1.32-1.08.21-.57 1.27-.59 2-.06 2.55-1.41 4.87-1.22 7.49.08 1 .36 2.38.56 2.21.86-.75 1.34-.18 2.2 0 3.87.91 5.36-.54 5.44-4.75 0-.5 0-1-4.5.69-4.42 1.21-5.11 1.25-5.77 1.16s-.93-.48-.71-1a10.78 10.78 0 0 1 1.45-2.85c.93-1.12-1.69-2 0-3.2.57-.38 0-.33-1-1.12-1.57-1.19-3.13-.51-4.67-.79-.49-.13-.87-.41-.76-1.03Zm7.54 40H640c-2.07 0-2.56.68-1.82 2.66.21.55 1.09 1 .74 1.65-.44.82-1.08 2-2.15 1.63-1.9-.58.12-1 .23-1.52.42-1.9-1.4-3.17-1.28-5 0-.5-1.77-.39-2.29-1.34a8.92 8.92 0 0 0-1.39 1.43c-.92 1.45-1.49 7.42-1.11 9.21.2.93-.16 1.93.83 2.69.52.4-1.55 1-.16 1.61.68.31 1.15-.34 1.67-.75 1.47-1.13 2-2.8 2.65-4.41.33-.86.92-1 1.49-.77a1 1 0 0 1 .34 1.61c-1.1 1.13-1.22 3-.14 3.16 1.81.25 1.2 1.71 1.94 2.4 1 .93.52 1.94-.88 1.75-3-.41-.78 2.88-2.48 3.31.32 1.53 1.54.34 2.22.74.28.16.45.55.73.65 2.43.89 3 .44 2.83-2a2.67 2.67 0 0 0-.57-1.78c-.85-1-.69-1.57.76-1.94 2.3-.59 1.32-2.63 1.14-4-.1-.73-.53-1.68-.27-2.28.37-.86 1.75-1.46 1.78-2.21s-1-1.13-.52-2.44c1.51-3.87 1.27-4.06-2.75-4.06Zm2.6-2h1.49c.49 0 1.16.07 1.25-.46 0-.29-.56-.7-.88-1-.52-.54-1-.75-.33-1.83 1-1.59 2.35-3.48.37-5.52-.65-.67 1.29-1.58.64-1.81a9.56 9.56 0 0 1-3.09-2.21 1.28 1.28 0 0 0-.57.51c-.18.65.3 1.8-1.21.76-1.7-1.18-3.16-.33-3.77 1.48-.76 2.24-1.35.22-1.67-.09-.69-.66-.68-1.43.44-1.79.45-.14 1.72-.37.71-.77s-2.33-.77-3.5-1.18c-.92-.31-1.41.78-1.85 1.37s-.17 1.26-.16 1.91c0 1.11-.34 2.35.92 3.1a28.85 28.85 0 0 0-1.89 3.15 2.76 2.76 0 0 0 0 1.94c.29.74 1.15.55 1.76.45 1-.16 1.26.86 2.06 1.09s1-1.14 2.38-.56c2.1.81 4.46 1.72 6.9 1.46Zm-3 28.44.85-1c-1.93-.7-3.93-2.09-5.79-1.92-2.25.2-4.09-.68-6.09-1.07-.82-.16-1-.37-1.09.54s.51 2.09-.35 2.81c-1.39 1.17 1.45 1.82.26 2.77-1.56 1.26.54 2 .38 3.13 0 .41 1.19.36 1.23.22.5-1.86 2.75-2 3.44-3.47.52-1.13.74-2.39 1.82-3.2a11.68 11.68 0 0 1 .13 4.33c0 .13-.21.25-.34.36-.4.33-.48 1.1-.07 1 1.93-.56 3.45 2.15 5 .91 1-.83 1.13-2.78 1.53-4.26.06-.52-1.31-.59-.95-1.15Zm8.08-50.44c-1.22.56-1-1.53-2.08-.6a3.23 3.23 0 0 1-3.65.4c-2.19-1.72-2.21.35-2.42 1.29a39.2 39.2 0 0 0-.72 4.54c-.21 1.83 2.81.76 3.92 2.07.35.41 1.19.39 1.65.76.78.61.67.15 1.15-.41 1.93-2.3-.16-5.46 2.15-8.05Z" class="f"/><path d="M564 426.33c.1 1.36.06 1.26-2.44 1.76-.68.14-1.12 1.15-2.09.92-.45-.11-1 .13-1.35-.38a2.59 2.59 0 0 0-2.89-.64 6.37 6.37 0 0 1-.91.21c-2.37.69-5.22.82-7 2.27s-2.39 3.95-4 5.73c-.82.91-1.11.32-1.82-.1-2.33-1.39-2.7-2.54-.89-4.19 1.16-1.06 1.88-2.6 3.75-3 1.23-.25 1.63-1.75 2.16-2.87 1.17 1.9 2-.52 3.13-.32.54.1.14-2.47 1.57-1.63s1.87.56 2.58-.44a1.81 1.81 0 0 1 1.73-.67c2.39.05 4.55 1.43 7 1.21.52-.03 1.89.98 1.47 2.14ZM513.14 413.54c2.3-.15 4 2.1 6.48 1.54.3-.07.79.46 1.12.79a48.4 48.4 0 0 1 6.45 7.48c.34.5 1.34 5 1.08 5.61-.39.93-.78 2.3-1.5 2.54-1.27.43-2.12-.83-2.22-2-.15-1.62-2.42-2.66-.84-4.89.8-1.13-2.2-3.95-3.91-3.7-1 .16-1.42-.35-2-.9-.92-.85-2.1-2.33-2.9-2.18-1.21.23-1.35-2.08-2.87-.74-.6.52-1.45-1.32-2.18-2.08-.53-.54.35-.67.57-1 .72-.96 1.77-.46 2.72-.47Z"/><path d="M516.62 467.32c-2.48-.75-4-1.11-5.44-1.67-1.74-.67-3.26-2.75-5.14-2-2.52 1-3.8-1.1-5.45-1.77-5.55-2.25-10.95-4.94-15-9.69-1.71-2 1.33-3.11.55-4.8 3-2.11 3.46-6.16 6.35-8.37a9.54 9.54 0 0 0 3.08-5.2c1-3.49 3-6.43 4.4-9.69.85-2 2.51-3.73 2-6.15 2.32-2.63 2.42-6.47 4.71-9a5.24 5.24 0 0 0 1.29-4 30.74 30.74 0 0 0-.05-5c-.47-2.95 2.41-4.82 2.21-7.61 2.59-.2 3.05-2.66 4.09-4.24a14.59 14.59 0 0 1 4.93-4.92c1-.56 2-.25 2.44-.51 1.85-1.18 4.2-1.51 5.64-3.39 1-1.26 2.22-2.14 3.73-.76.87.8 1.06-.14 1.41-.46.87-.78 1.63-1.85 2.79-.38a1.6 1.6 0 0 0 .35.28c1.43-3.26 3.82-1 5.77-.9 1.39.05 2.14-1.55 3.58-1.07a17.1 17.1 0 0 0 7.09 1c2.43-.23 4.62.9 6.9 1.45 1.73.42 3.52-.26 5.27 1 1.55 1.13 3.79 1.19 5.46 2.47.42.32 1.36-.14 1.95.08 2 .78 4.22 1 5.87 2.8 1.47 1.59 3.81 2 5.72 3 1.34.69 2.44.9 2.91 2.59.67 2.45 3.73 3.4 4.14 6.2.18 1.24 1.51-1.94 1.77.24.1.84-1.79 1.73.66 2.48 1.68.52.11 3.93 2.29 5.06a3.25 3.25 0 0 1-.56.7c-1.29 1-1.75 1.78.39 2.13.32 1.59.74 3.26-.25 4.67a3.32 3.32 0 0 0-.47 2.31c0 .29.1 1.12.85.41 1.37-1.29 1.21.22 1.06.74a3.55 3.55 0 0 1-1.29 1.45c-.79.59-.17.88 0 1.45.39 1.08 1.18 2.36-1.11 2.84-1.28.28-.26 1.43.25 2.28.8 1.33 1.64-1.1 2.13.11.34.85-.32 1.94.71 2.73.42.33.36 1.27.78 1.62s.55-1.2 1.37-.54c.37.3.6.73 1.22.7 1.73-.1.6 3.85 2.9 2.38 2-1.27 2.82 1.79 4.44.6.45 1.24 2.7.23 2.67 2.26 0 1.22 1.6 1.16 2.23 1.36 3.49 1.07 6.08 2.8 6.73 6.65.09.51.67.53 1 .78 2.3 1.61 2.4 1.93 2.21 5.17 0 .25-.26.54.19.7 3.11 1.06 1.36 4.15 2.53 6.05.71 1.16-.87 2-1 3.06a2.31 2.31 0 0 1-1.47 1.85c-3.25 1.49-5.81 4.28-9.39 5.06-.79.17-1.67 1.86-2.72.1-.26-.42-1.18.1-1.65.66a3.93 3.93 0 0 1-1.47 1.27 20.72 20.72 0 0 0-7.37 4.17c-2.13 1.64-4.84 2.5-7.18 3.9-1.21.72-1.91-1.93-3.31-.16-.65.82-2.58-.53-3.61.78a2.74 2.74 0 0 1-.36.32c-.61-2.29-3.75-1.11-4.57-3.43-.44-1.24-1.8-2.16-2.74-3.22 1.72-1.33-1.45-2.43-.17-3.74-2.21-.27.33-3.46-2.28-3.64-1.63-.11-1.16-2.6-2.69-2.9-.88-.18-.75-1-1.08-1.23-1.77-1.19-1.18-3.89-3.17-4.81s-2-3.61-3.95-4.72a2 2 0 0 1-.53-3c.82-1.06.67-1.26-.52-1.31-.15 0-.41-.07-.42-.15-.17-1-1.44-1.78-.88-2.73.82-1.39.88-1.76-.92-2.24-1.07-.29-.92-1.94 0-2.9.52-.54.25-.81-.21-1-.67-.19-2 .07-.67-1.16.91-.83 1.36-1.39.36-2.59-1.37-1.63.35-3.95-1-5.74-.42-.56-.39-4.11-.17-4.88s.27-1.45-.46-1.61c-2.11-.45-3.44-2.27-5.29-2.94-2.07-.75-2.37-3-4.28-3.93a7.59 7.59 0 0 1-3.6-3.32 3.78 3.78 0 0 0-3.68-2c-1 0-2.1-1.36-3-2.08-2.9-2.24-6.76-2.63-9.38-5.19-.73-.71-1 .08-1.44.13-4.35.47-6.9 4.2-10.65 5.71.46 2.07-1.75 1.44-2.51 2.33-.5.57-1.7.43-1.69 1.79 0 .47-1 1.41-1.32 1.34-2.48-.47-2.76 1.6-3.48 3-.32.61-.36 1.15-1.19 1.15-.27 0-.55.28-.82.43 1.71 1.69 1.12 3.06-.44 4.5-1.16 1.07-.39 3.25-2.14 4.11a1 1 0 0 0-.45.79c.55 4.3-2.56 7-4.56 10.1-.72 1.12-.25 2.39-1.26 3.54-1.34 1.52-1.14 4.32-3.93 4.74.93 2.46-.88 3.72-2.21 5.26-.79.92-2.61 1.45-1.89 3.06.34.77 2 .53 2.09 2.09 0 .32 1.65-1 2.42.45a3.81 3.81 0 0 0 2.18 1.82c1 .2 2 1.8 2.43 1 .68-1.3 2.26-1.64 2.64-2.76a58.07 58.07 0 0 0 2-8.15 25.32 25.32 0 0 1 .94-2.61 3.09 3.09 0 0 1 2.06-2.4c1.4-.5 2.22 1.15 3.58 1a.37.37 0 0 1 .25.65 2.19 2.19 0 0 1-.87.29c-.88.16-3.06-.59-1 1.56a2.16 2.16 0 0 1-.24 2.3c-1.94 2.52-.62 6.4-3.53 8.55-.18.13-.16.61-.14.92a12.07 12.07 0 0 0 .3 3.37c.18.49 1.14-1 2.1.1A6 6 0 0 0 513 461a2.34 2.34 0 0 1 2.57 1c.75 1.23 2 1 3.1 1 .49 0 1.15-.09 1.25.45.06.29-.51.76-.88 1-1.16.88-.96 3.55-2.42 2.87Zm91.22-7.32a11.66 11.66 0 0 0 3.59-.67c1.45-.64 3-.9 4-2.29 1.92 2.11 2.24-1.15 3.74-1.14 1.81 0 0-2.35 1.45-3.18.73-.42-.52-.86-.81-1.31s-.9-.87-.87-1.65c.13-3-3.36-4.21-3.76-6.38-.64-3.46-3.41-3.21-5.32-4.29-2.39-1.34-4.41-3.53-7.62-3.45a4.75 4.75 0 0 1-3.16-1.93 22.06 22.06 0 0 0-3.14-3.2c-.91-.85-.9 0-1 .6s.3 1.52-.45 1.74c-.32.09-1-.72-1.38-1.18-1.69-1.9-2.44-3.9-3.14-8.85-.17-1.22.07-2.48-.84-3.5 1.5-1.15.55-2.78.8-4.17s-.66-3.34 1-4.6c-1.49-1.08-1.07-2.69-.89-4.05a4.53 4.53 0 0 0-1.12-3.55c-1.75-2.05-2.1-5.18-4.91-6.4-1.81-5-7.21-6.06-10.48-9.48-2 0-3.48-1.47-5.18-1.88s-3.51-1.76-5.54-1.18c-1.29-1.86-3.74-.22-5.26-1.83s-3.37 0-5.07-.17c-.47 0-1 .17-1.37-.34-1.4-1.77-2.84-2.21-5-.76-.9.62-2.69.41-3.9 0-1.71-.55-3.24-1.46-4.42.71-.25.46-.35.25-.73.05-2.41-1.32-4.51-1-6.51 1.08-1 1-2.31-.66-3.33-.43s.73 2.48-1.68 2.83c-1.29.19-2.27 2.24-4.17 1.89-.36 1.7-1.72 2.66-2.82 3.82-.35.36-.71 1-1.06 1-1.33 0-1.75.61-1.56 1.82.17 1-.68 1.41-1.21 2s-1.38 1.1-1.67 1.81c-.14.32 1 .71.24 1.8s-1 2.91-1.35 4.41a1 1 0 0 0 .51 1.23c.11.05.42-.48.7-.65 1.08-.67.45-1.87.84-2.66.83-1.71 1.77.28 2.61.11a2.24 2.24 0 0 0 1.28-1.4 3 3 0 0 1 2.54-2.43c2.09-.51 3.23-3.09 5.78-2.95.49 0 .79-.43.74-1-.18-2 1.65-3.31 2-5.16a.88.88 0 0 1 1-.8c1 0 .94.65 1 1.33.37 5.32 4 8.48 8.18 10.52 2.69 1.32 5.56 2 7.68 4.43.83.95 1.93 1.67 2.83 2.65 1.76 1.92 5.59 1.81 5.46 5.7 0 .52.81.41 1.28.38.92-.05 1.63 0 1.59 1.25 0 .29.17 1.15.84.38.89-1 1.6-.68 2.43.15 3.06 3.05 6 6.17 10 8.19 1.66.84 2.65 1.57 4.24.14.38-.35 1.91-.56 2.21.25.44 1.19.58 2 1.85.74 1.86 2.06 4.54 2.69 6.82 4s2.66 4.12 3.57 6.43c.38 1-.41 1.54-1.06 2-1.09.83-1.2-.56-1.73-.91a8.5 8.5 0 0 1-3.14-4.67c-.29-.9-1.08-1.82-1.47-1.8-2.55.18-4.43-1.74-6.65-2.05-3-.44-5.92-.69-8.36-2.91a2.9 2.9 0 0 0-3.24.07c-.82.61-.64 2.18-.24 2.76 1 1.49.54 3.15 1 4.61s.56 3.42 1.8 4.74c-1.61 1.68.54 2.56.83 3.83.1.46.36 1 .25 1.37-.69 2.79 1.41 4.51 2.66 6.4s3.1 3.66 4.61 5.56a58.07 58.07 0 0 1 5.2 7.38c1.53 2.7 3.59 5.11 3.66 8.52 0 1.05 1.77-1.31 2.4.47.15.43.78 1.72 1.71.38.7-1 2.13-.91 2.86-1.43 1.52-1.1 3.57-.15 4.51-1.14 1.71-1.8 4.06-2.67 5.7-4.48 1-1.09 1.47-1.79-.52-2.29s-1.79-3.89-4.56-3.26c0-.11-.08-.31 0-.34 1-.64.78-1.38-.09-1.75-3.92-1.67-6.8-5-10.75-6.6-2.94-1.16-4.38-3.53-5.29-6.33-.19-.57-.21-1.38.58-1.65a1.23 1.23 0 0 1 1.33.38c1.49 1.55 3 3 4.58 4.57 2.87-2 3.84 1.53 5.77 2.22a15.9 15.9 0 0 1 4.31 2.86c1.45 1.22 3.62 1.71 4.35 3.62s3.23 1.66 3.57 3.42c.41 2.12 1.74 1.98 3.34 1.92Z"/><path d="M571.71 406.85c1-1.62-.92-2.25-1-3.53 0-.64-.62.25-.94.44-.65.39-1.32.43-1.67-.23a1 1 0 0 1 .62-1.52 6.41 6.41 0 0 0 .93-.17c.58-.29.39-.88.32-1.33 0-.2-.47-.44-.75-.49-.48-.08-1.14-.22-1.46 0-1.68 1.26-2.92 1.81-2.76-1.17a.77.77 0 0 0-.92-.86 6.71 6.71 0 0 1-4.1-.94c-.69-.41-2.45.24-1.85-1.29.38-1 1.11-2.92 2.86-2.17a4 4 0 0 0 2.8.33c1.65-.61 3-1.21 3.24 1.32.1.9.88.8 1.52.74 1.78-.15 1.81 3 4.06 2.15.33-.13.34.77.41 1.25.24 1.71.66 3.31 2.67 3.79-.69 1.69.57 2.8 1.07 4.2.88 2.47 2.73 3.93 4.44 5.65a19.9 19.9 0 0 1 2.77 3.66c.38.61-.35 1.13-.76 1.64-.57.72-.89.53-1.45 0s-1-1.92-2.13-.49c-.42.52-1.13.16-1.67-.34-3-2.72-4.81-6.21-6.69-9.69-.42-.8.55-.63.44-.95ZM627.2 522.59c-.22 1.93-.07 3.17-.51 4.14-.93 2.06-2.68 2.2-5.11 1.44a9.06 9.06 0 0 1-5.53-4.53c-1.34-2.4-1.59-4.2.34-6.4.63-.72.08-2.09 1.42-2.24s2.68.52 3.59-.9c1.21.66 1.82 2.23 3.45 2.25-.43 2.7 3.32 4.12 2.35 6.24ZM635.93 525c-2.48.09-6.91-3.94-6.92-6.51 0-.46-.16-1 .33-1.37.75-.64 1.42-1.4 2.13-2.1 2.65-2.62 4.72-2.87 7.49-.48 1.39 1.21 3.13 2.24 3.14 4.7 0 1.79-.14 4.32-1.47 4.48-1.63.21-2.87 1.39-4.7 1.28ZM641.36 572c-1.38.33-2.27-.51-3.34-1.4-2.11-1.76-2.8-4.18-3.44-6.59-.55-2.07 1.13-3.29 2.43-4.5s2.41-.75 3.39.4a3.11 3.11 0 0 0 2.56 1.14 3.36 3.36 0 0 1 2.82 2.43c.35 1.19 1.32 2.56 1.08 3.47-.42 1.58-1.73 2.93-2.69 4.36-.69 1.04-1.77.59-2.81.69ZM616.29 549c-2 .12-3.29-.06-4.38-1.8-1.33-2.12-2.73-4.35-1.76-6.59a10.89 10.89 0 0 1 4.51-4.43c.79-.47 2.78.43 3.29 1.79.91 2.47 2.8 4.35 3.63 6.93.5 1.55.15 2.31-.77 2.73-1.52.66-2.88 2.22-4.52 1.37ZM625.78 585c-3.16.06-5.64-.17-6.9-3.42a2.68 2.68 0 0 1 0-2.22 12.6 12.6 0 0 1 1.12-3.06c1.5-2.56 2.87-3.2 5.7-2.31s3.83 3.15 5.15 5.31c-1.55 1.26-.19 3.3-1.3 4.75s-2.78.65-3.77.95ZM581.54 502a5.59 5.59 0 0 1 1.35.31c1.78.67 3.16 2 4.69 3 2.39 1.53 1.17 6.42-1.29 8.08-1.4.95-2.14-.33-2.79-.21-2.88.55-4-1.7-5.85-2.87-2.76-1.73-.68-3.65-.57-5.4.09-1.32 3.01-2.91 4.46-2.91ZM664 563.42c.59 1.49-.52 2.73-1.08 3.92-1.06 2.26-4.11 2.87-6.27 1.68-1.09-.6-1.53-2-3.11-2.11-.83-.07-.41-1.8-1.41-2.28 1.45-1.4-1.06-2.72-.11-4 .46-.63 1.18-1.51 1.76-1.5 1.15 0 2.18-1.09 2.9-.74 1 .46 1.45.86 2.49.08.88-.66 1.92.45 2.8.72 1.74.48 2.1 2.37 2.03 4.23ZM565 515.6c-.21.68.38 1.55-.35 2.26-1.07 1-2.11 2.08-3.17 3.12-.84-1-1.46-1.05-2.83-.37-1.16.57-4.32-4-4.11-5.65.43-3.43.39-3.48 1.17-4.15s1.13-1.66 2.23-1.81 1.5.91 2.55 1.11a5.7 5.7 0 0 1 4.51 5.49ZM619 566.57c-.15 2.28.72 4.62-1.9 5.34-.72.19-1.31 1.5-1.86.75-.95-1.3-2.67.06-3.48-1.34s-2.08-2.8-2.7-4.36c-.33-.83-.22-1.85-1-2.51a18.93 18.93 0 0 1 2.49-2.42c2.36-1.62 4.44-1.24 6.47.9 1.09 1.16 2.98 1.9 1.98 3.64ZM632.4 541c2-.25 2.48 2.53 4.47 2.37-.54 2 2.64 3.89.26 6.15a4.38 4.38 0 0 0-1 2c-.22 1.77-.78 2-2.12 1-1.14-.88-2.74-.27-3.9-1.42-1-.93-3.25-4.46-3-5.5.36-2.03 3.28-4.51 5.29-4.6ZM651 544c1.35-.08 3.07-.14 4.3 1.71 1.11 1.67.93 6.91-.58 8a1.62 1.62 0 0 1-1.36.21c-2.38-1-5.19-1.14-7.08-3.23-.52-.58-1.15-1-1.29-2-.52-3.57.41-4.75 4-4.79ZM576.3 470.2c.12 0 .26-.09.35 0a12.26 12.26 0 0 1 5.3 4.64c.79 1.44-.74 4.09-2.92 5.67-1.32.95-3.17.7-4.72-.68-.62-.54-1.11-1.57-1.77-1.67-2.32-.35-1.76-1.22-.73-2.47.46-.56-.21-1.18-.25-1.69-.09-1.18-.17-2.67 1.61-3 1.07-.17 2.35.49 3.13-.8ZM561.85 529c3.26 0 5 1.38 5.15 3.93.16 3.19-2.1 6.75-4.46 7-.65-1.68-2.47-.4-3.4-1.33-.57-.56-1.47-1.06-1.11-2 .51-1.37-1.8-2-1-3s.62-1.4 0-2.26c-.31-.43 0-1 .84-1.39a7.39 7.39 0 0 1 3.98-.95ZM564.52 559c-1.39-.13-2.72.22-4.1-.92-1.67-1.37-2.3-2.54-1.53-4.52.66-1.68.56-3.8 3.31-3.61.91.06 1.55-1.82 2.85-.45.9 1 2.7.8 3 2.64.16 1 1 1.82 1 3.06 0 3.09-.53 3.73-3.54 3.8ZM594.72 502c-.86-.2-2.44.53-2.6-.52-.23-1.55-1.69-2-2.1-3.15a5.77 5.77 0 0 1 2.21-6 2.76 2.76 0 0 1 2.71.08c2.32 1 3.79 3 5.57 4.61.49.45.39.81-.07 1.05-1.24.63.55 2.46-1.54 3.13a14.78 14.78 0 0 1-4.18.8ZM563 494.72a6.77 6.77 0 0 1 4.9-5.72c2-.45 3.75.53 5.1 2.85 1.77 3 1 5.15-2.39 6.09a3.52 3.52 0 0 0-2.07 1c-.72-1.75-2.61-.61-3.85-1.55s-2.08-1.23-1.69-2.67ZM611.4 496a7.9 7.9 0 0 1-7.28-3.58c-.45-.64-1.91-2.42.3-3.39.56-.25.94-.91 1.41-1.37 2.24-2.17 5.31-1.85 7.11.88.29.43.11 1.34.77 1.63 2 .86.55 2 .28 3-.73 2.72-.92 2.83-2.59 2.83ZM541 517.52c.1-.93-.32-2 .67-2.7 1.16-.87 1.79-2.42 3.31-2.78a1.75 1.75 0 0 1 1.84.27c.68.73 1.38 1.44 2.11 2.11 1 .93 1.87 2.35 1.57 3.41-.43 1.56-.5 3.39-2.26 4.56-1.3.87-3.09 1-3.62.49-1.62-1.43-4.16-2.44-3.62-5.36ZM542 493.09c0-1.15 2.35-2.95 3.81-3.12 2.25-.26 3.64 1.59 5.59 2.11 1.35.36 0 2.4 1.37 3.33.58.4-1 3.67-2 4.35a18.78 18.78 0 0 1-4.14-.66c-1.55-1.6-3.38-3-4.19-5.19-.14-.28-.3-.54-.44-.82ZM588.14 488.93c-1.78.82-3.13-.52-4.55-1-1-.35-2.69-1.76-2.14-2.58.72-1.09 0-2.29.89-3.17a4.38 4.38 0 0 1 2.52-1.22c2.83-.62 5.53 0 6.74 2.25.76 1.45.1 2.87-.41 4.47-.72 2.21-2.06.93-3.05 1.25ZM573 570.54c-1.3.68-.85 2-1.1 3 0 .19-.67.47-.77.39-1.47-1.19-3.51-.47-4.92-1.39a4.71 4.71 0 0 1-2.32-4c-.08-2.26 0-3.25 2.28-4.2a4.39 4.39 0 0 1 5.84 3.11c.17.92-.41 2 .68 2.72a1.58 1.58 0 0 1 .31.37ZM612 501c0-1.27-.29-2.56 1.06-3.56 2.94-2.16 5.82-1.09 7 2.51.41 1.24 1.1 2.15-.45 3-.69.4-1.1 1.47-1.8 1.66-1.19.32-2.19 2-3.32 1.24S611.57 504 612 502a4.76 4.76 0 0 0 0-1ZM594.77 523a6 6 0 0 1-3.74-1c-1.15-.78-2.54-1.41-2.71-2.81s2.59-4.15 4-4.21c1.73-.08 3.79-.57 4.64 1.62a10.07 10.07 0 0 1 1.12 4.52c-.12 1.53-.55 2.05-2 1.84a10.52 10.52 0 0 0-1.31.04ZM596 480c-1.78.4-4-.2-4.84-1.67-1-1.83.35-3.94 1.64-5.62a7.8 7.8 0 0 1 .7-.71c.62 1.71 2.53.39 3.37 1.41s2.3 1.46 2.13 3.08a4.17 4.17 0 0 0 0 .5c.15 3.01.15 3.01-3 3.01Z"/></svg>