<svg xmlns="http://www.w3.org/2000/svg" width="1080" height="1080"><defs><style>.a{fill:#f0dfd2}.b{fill:#fff}.c{fill:#f15a29}.d{fill:none}</style></defs><path d="M557.7 470.73s-10.93 22.38-27.1 38.55c-15.3 15.3-49 41.2-49 41.2s7.8-31 6.95-44.6-4.95-23.25-10.05-29.2c-7.53-8.78-16-1.83-16-1.83l-3-1.27s-5.1 7.65-7.65 20.4a129.64 129.64 0 0 0-2.13 20.82A206.31 206.31 0 0 1 434 554.33c-12.93 24.86-32.25 42.5-36.13 88-4.67 54.83 21 84 49.88 108.68 26.91 22.95 53 44.32 53 44.32s42.08-2 86.28-19c49-18.84 68-52 68-52s-28.9-7.65-43.35-19.55-28.18-28.63-28.18-28.63 33-24.37 43.23-38.82 26.12-40.87 41-55.8c15.3-15.3 32.87-24.23 44.77-37.83s29.05-34 19.7-41.65-20.2 3.07-26.2 6.68c-10.63 6.37-20.4 14.15-29.75 20.95s-14.38 9.46-20.4 13.6c-13.6 9.35-12.7 4.35-12.7 4.35s19.22-31.13 30.7-58.75c9.63-23.19 12.6-34.85 16-55.25 3.1-18.62 2.55-27.2-1.7-31.45-3.85-3.85-8.93-1.28-8.93-1.28s3.83-10.62-3-14.87-14.22-4.18-25.05 8.97c-8.07 9.78-7.62 14.88-13.57 22.53s-13.2 17.85-19.15 24.65-19.55 22.1-19.55 22.1 1-20-8.5-27.5c-12.33-9.78-28.9-2.25-46.75 2s-25.5 6.8-25.5 6.8-14.45-1.15-21.25 2.25c-7.21 3.6-8.78 5-9 10.2-.43 8.07 3.1 8.35 3.1 8.35s6.06 6.23 22.1 8.1c18.22 2.07 39.07-2.48 44.6-3.75Z" class="a"/><path d="M459.5 473.58c-2.28-1.14-3.83 6.37-6.8 15.72-2.57 8.07-3.83 21.25-1.28 21.68 4.13.69 12.93-7.66 13.18-14.45.4-11.48-3.4-22.1-5.1-22.95ZM518.72 448.35c0 10.84-3.55 13.6-15 15.73-7.93 1.47-15.43 3.82-15.85-5.1-.17-3.5-1.17-8.72 9-11.2 15.75-3.78 21.85-4.53 21.85.57Z" class="b"/><path d="m450.15 412.38-14.88 12.32s20.83 17.43 26.78 26.78 9.73 17.7 17.42 27.87c13.18 17.43 22.1 22.53 35.28 37 11.54 12.66 17.72 20 21.55 24.65 2.4 2.94 5 3.55 8.35 1.85s6.65-5.25 2.82-11.63c-2.76-4.61-16-20.53-22.52-29.17-10.63-14-35.7-35.55-43.35-47.45s-21.25-35.42-31.45-42.22Z" class="c"/><path d="M382.15 329.93s42.07 73.52 46.75 86.7c3.06 8.63 8.37 28.17 8.37 28.17s4-3.1 4.17-11.81c0-.67 7.16 9.24 7.16 9.24s4.26-1 2-12.43c-.42-2.12 5.51 5.51 10.63 10.63 1.27 1.27.42-8.08-2.13-15.73 5.53 2.13 10.2-2.15 14.45-3.85-5.1-4.25-4.41-2.62-12.72-10.47-15.3-14.45-58.68-94.48-58.68-94.48Z" class="c"/><path d="M383.85 306.13c-23 10.2-20.7 39.1-22.4 61.2s-1.21 28.76-7.35 36.95c-5.1 6.8-16.15 11.05-13.6 15.3s5.1 4.4 12.75 8.65 17 2.55 24.65-3.4 10.2-12.05 17.85-16.3 12.75 4.4 25.5-.7c12.94-5.18 12.58-13.51 18.7-17 5.95-3.4 10.05-.83 14.75-4.4 5.82-4.43 1.82-5 7.35-6.35 6.8-1.7 13.6 3.1 21.25-2s0-10.75 7.65-15.85 20.4-2 25.5-9.65-.85-10.2-4.25-9.35c.85-4.25 0-13.3-9.35-10.75-7.34 2-6.8 5.1-17 5.95-8.52.71-38.55-25.4-59.8-33.05-16.47-5.93-31.05-4.19-42.2.75Z" class="a"/><path d="M648.86 534.36c-1-.61-.74-1.15 0-1.78a10.92 10.92 0 0 0 1.76-1.77c.77-1 2-1.57 2.4-3a38.82 38.82 0 0 1 3-7.74c1.36-2.44 3-4.6 4.08-7.32 1.24-3.25 1.73-3.07 1.84-4.65 0-.48.33-1.18.6-.92 1.43 1.37 1.43.4 1.41-.75 0-1.63-.27-3.34 1.46-4.39 1.2-.73-.06-2.26 1-3.08.81-.61-1.2-1.89.48-2.47s.46-2.48 1.43-3.4a12.77 12.77 0 0 0 1.67-2.83 41.28 41.28 0 0 0 3.81-7.89c.36-1 1-1.92 1.38-2.94s.44-1.84.79-2.67c.45-1 .57-2.4 1.06-3 .87-1.06-.29-2 .28-2.59 1.86-1.79 1-5.29 4.13-6.26.75-.23.13-.72-.16-1a1.08 1.08 0 0 1 0-1.7c2.44-2.32 2.89-5.32 2.62-8.4-.33-3.81 2.78-6.77 2.37-10.57 0-.31.61-.76 1-1 1.31-.9-.3-1.21-.33-1.82a3.84 3.84 0 0 1 .14-1.93c.39-.68 1.23-1.15.67-2.08-.13-.21-.54-.3-.84-.34-.46-.06-1.08-.07-.74-.72 1.46-2.79.49-6.33 2.76-8.86-.93-1.61 1.78-2.67.82-4s-1.07-1.8 0-2.86c.91-.86-1.77-2.09.12-3.14.15-.08.19-.9-.31-1.31a2.79 2.79 0 0 1-.48-3.59c1-1.15-.12-1.58-.11-2.3 0-1-1.1-1.27-1.05-2.09.09-1.68-.37-3-2.24-3.12a6.89 6.89 0 0 1-4.23-1.93s-.49.3-.67.53a8.92 8.92 0 0 1-5.24 2.93c-1.78.34-2.61 4.48-5.13 1.44-.12.11-.35.23-.34.34.17 2.67-4.2 2.46-3.49 5.47-2.77 1.62-2.48 5.05-4.28 7.21-.81 1 0 2.16-1 3.15-1.21 1.24-2.54 6.22-2.39 8.13.11 1.4-1.87 2.4-1 3.53 1.18 1.48.29 2.81-.24 3.64-.94 1.46-1.32 2.49-.05 3.86.49.52.33 1.5-.33 1.59-1 .13-1.65.29-1.45 1.39.34 1.85-.83 3.42-.91 5.1a7.26 7.26 0 0 1-2 5.24c-.65.65.54 2.86-.52 3.13-2.67.69-1.63 3.1-2.38 4.55-.6 1.17-.87 2.54-1.66 3.82a33.91 33.91 0 0 0-2.31 4.53c-.61 1.45-.33 3.23-2.21 4 .32 2.83-1 4.95-3 6.78.79 2.19-1.53 3-2.08 4.64s-1.76 2.58-2.9 3.74-1.8 2.9-2.75 4.33-3.12 3.1-3.09 4.62c0 2.27-1.91 2.54-2.65 3.89-1.59 2.93-3.1 6.2-6.48 7.79-.48.23-1.22.69-1.08 1.51.27 1.62-2.81.58-2 2.59s-1.71 1.09-2.15 2.54c-.9 3-4 3.85-6.66 4.85a2.19 2.19 0 0 1-1.85-.21c-.85-.73 0-1.32.38-2a29.14 29.14 0 0 1 3.59-5.51c1.07-1.24 3.25-1.65 3.38-3.48s3.24-1.69 2.36-4c-.15-.38.42-.75 1-.73.94 0 2.1.34 2-1.34-.1-1.14 2.37-.2 1.58-1.4-1.42-2.18.94-.81 1.18-1.45s1.05-1.06 1.3-2a7.27 7.27 0 0 1 1.88-3.18 3.52 3.52 0 0 0 1-3.1c-.06-.9 3.41 0 1.08-2.13 1.23-1 1.95-2.63 4-2.47 1.18.09 1.18-1 .59-1.68s-.68-.84 0-1.47c2.88-2.75 2.88-7.37 6.33-9.77 1.24-3.5 1.9-7.27 4.6-10.09a1.64 1.64 0 0 0 .4-1.34c-.11-2.91 1.59-5.08 3.2-7.15.72-.91.48-2.3 1.69-2.83-2.54-2.25 1-3.06 1.14-4.71.07-1.08 1.15-1.54 1.83-2.22 1.1-1.1-1.55-1.65-.28-2.81 1-.89.43-2.22.37-3.31-.07-1.38 1.34-2.13 1.1-3.6a9.21 9.21 0 0 1 .87-5.11c.59-1.43-.72-3.86.6-4.64 2.2-1.31-.4-3.16 1.06-4.36 1.11-.91-.31-2.81.79-3.61s1.12-3 2.56-3.13c1.78-.13-.88-3 1.65-2.24.38.12.62-1 .38-1.22-.8-.83-1-1.5.08-2.19a2.41 2.41 0 0 0 1-2.6 2.17 2.17 0 0 1 .8-2.18c1.31-.95 4.05-.42 3.51-3.42-.06-.35 1.05-.34 1.63.16 1.25 1.06 1.69.9 2.21-.86a3.58 3.58 0 0 1 3.18-2.77c3.56-.54 4.66-2.88 4.67-6.7a10.19 10.19 0 0 0-.06-3 7.14 7.14 0 0 0-1.78-3.06c-1-.91-2.66-.89-3.63-2-1.07 1.8-2.09-.44-3.17-.06-.45.16-1.1-.15-1.47.07-1 .56-1.73 1.62-2.72 1.86s-1.28.89-2 1.15c-1.74.59-2.92 2.46-5 2.35.63 1.93-2.73 1.11-2.1 3-1.8 0-1.66 2.42-3.32 2.56-2.39 3.61-5.65 6.7-6.67 11.13-.14.61.06 1.21-.43 1.84-1.83 2.38-3.58 4.83-5.32 7.28a98.36 98.36 0 0 0-6.19 8.95c-1.67 3-4.08 5.5-5.64 8.65-1.12 2.26-3.83 3.68-5.45 5.77s-2.64 4.35-4.9 5.91c-2.53 1.74-2.92 5.51-6 6.88-.13 1.85-2.66 2-2.73 3.77-.08 2-2.19 2.58-2.66 4.44-.36 1.42-2.67 1.72-3.42 3.47-.42 1-1.46 1.62-1.32 3s-1.9.82-2.29 2.48c-.3 1.32-1.7 2.43-1.79 4.27a6.29 6.29 0 0 1-1.85 3.7 13.28 13.28 0 0 0-2.12 2.59c-2 3.38-3.44 7.11-6.37 9.89a1.82 1.82 0 0 0-.51 1.26c.07 1.18-.26 1.59-1.55 1.89s-.05 2-1 3a77.26 77.26 0 0 0-6 6.92c-3 3.83-6.05 7.66-8.16 12.11-.67 1.41 0 1.1 1.08 2s2.53.38 3.55 1.24c1.78 1.49 3.93 2.84 4.29 2.54 1.11-.93 1.74-.6 2.63.32.53.54.81 1.92 2.07 1.28 1.56-.8 2.07 1.56 2.4 1.27 1.33-1.21 2.12-.3 2.5.59 1.06 2.45 1 2.5 2 2.59s2.16-.18 2.85.3 1.75.39 2.07 1c.78 1.49 1.82-.88 2.09.12s.76 1.37 1.74 1.8c.75.33.75 2.35 2.29.8.11-.11.84.12.85.21.1 2.37 1.9 1.54 3.2 1.82 1 .21 2.82.85 2.82 1.29 0 2.84 3 .75 3.55 2.42 2.13-1.77 3.13.68 4.67 1.21a3.43 3.43 0 0 1 2.14 2.29c1 2.32 2-.73 3.1-.25a1.91 1.91 0 0 1 .79.48c1 1.33 2.56 1.83 4 2.48.4.17 1.17.33.86.64-1.59 1.59.31 2.14.91 2.3a4.36 4.36 0 0 1 3.16 2.77c.51 2.16 1.13 1 1.62.28.92-1.32 1.45-.53 2.17.17s.19 1.25.35 1.86a5.3 5.3 0 0 0 .34.86c.22-.14.63-.3.62-.43-.13-1.44 1-2.1 1.9-2.69 1.2-.82.17-1.8.5-2.5a9.43 9.43 0 0 1 2-2.15 8.59 8.59 0 0 1 1.79-1.73c1.42-.75-.49-2 .11-2.07 1.89-.3 1.25-2.29 1.8-2.65 1.49-1-.26-4.81 3.29-3.66.16-.03.38-.46.53-.67Zm-34.6-77.06c.44-.56 1-1.95 2.11-.5a1.32 1.32 0 0 0 1.28 0c2.48-2.13 4.54.1 6.36 1 1.13.55 2.59 1.91 3.58 2 2.69.35 3.17 2.71 4.76 4a2.29 2.29 0 0 1 .56 2.69c-.31.93-1.46.32-1.9.46-1.64.14-2.84.07-3.79-1.18a7.57 7.57 0 0 0-2.84-2.66c-.8-.31-1.93-1.71-3-.27 0-1.89-1.58-1-2.44-1.44a33.49 33.49 0 0 1-3.72-1.78c-.76-.46-1.83-1.2-.96-2.32Zm-.14 6.48c1.27 1 2-1.48 3.25-.06.68.76 2.4 0 3.32 1.09.67-1.06 1.14-.46 1.77.12 1.75 1.61 5.2 1.09 5.57 4.49.07.62 2.05 1.27-.3 1.68-1 .17-1.88 1.11-3.08.9a5.7 5.7 0 0 1-5.1-2c-.68-.86-1.81-.72-2.41-1.4-1-1.16-1.24.56-1.84.38a10 10 0 0 1-3-1.2c-.93-.67.22-2.23-1-3.07-.3-.26 1.89-1.64 2.82-.93Zm40.16 6.43c3-.48 4.63-.12 6.22 1.56a3.71 3.71 0 0 0 3.42 1.25 1.2 1.2 0 0 1 .83.27c-.16 2.5 1.8 3.67 3.22 5.18-1.53 1.06-.7 2.7-1 4-.18.68-.7.23-1-.11-1.49-1.64-4.23-2-4.35-5.17 0-1.25-2.38-2-3.9-2.17a8.4 8.4 0 0 1-3.39-1.46c-1-.59-2.16-2.08-2-3 .11-1.26 1.82-.31 1.95-.35Zm-7.65 7.79c-.77-.22-.89-1.35-.49-1.51 1.27-.51 2.38-2.08 3.84-1.42a40.22 40.22 0 0 1 7.66 4.24c1.73 1.3 2.42 3.75 4.26 5.15.17.13.07.61.1.93 0 .78-1.68 3.37-2.37 3.47-.21 0-.51-.22-.69-.41-.79-.84-1.51-1.73-2.9-1.45-.89.18-.9-.53-1.07-1.2-.48-1.91-2.34-2.85-3.3-4.5s-2.99-2.74-5.04-3.3Z" class="d"/><path d="m524.67 527.83-4.31-5.25c-.37-.12-.68-.44-1.1-.52-.88-.18-1.67 0-.62 1.23.27.33-.37 2.16-.79 2.24-2.31.43-2.42 2.94-3.88 3.82-1.7 1-2.89 2.63-4.51 3.57-1.85 1.06-2.91 3.62-5.63 3.11-.23 0-.76.28-.77.44-.05 1.59-1 2.15-2.39 2.56s-1.56 2-3.17 2.08c-.74 0-2 1.72-2 1.68-2.46-2.44-2.47.7-3.15 1.5-1.6 1.89-3.08 3.8-5.5 4.72a2.63 2.63 0 0 0-1.82 3.06c.08.66-.06 1.34 0 2 .19 1.47-.31 2.2-1.87 1.93a.87.87 0 0 0-1.11.66c-.11.65-.06 1.34.92 1.35.72 0 1.31.12.52 1-1.51 1.68-1.05 1.86-2.64 6-.95 2.51-1.25 5.63-3.78 7.42-1.07.75-.82 1.25-.12 2.21.53.73-.51 1.73-1.31 1.33a20.31 20.31 0 0 1-2.79-1.69c-.37-.26-.88-1-.78-1.11 1.29-2.06.7-4.65 1.95-6.7.47-.77 2.13-.71 1.84-1-1.3-1-.07-1.58.16-2.31.73-2.37 2-4.55 2.07-7.17a7.22 7.22 0 0 1 .51-2.91c.75-1.23-.26-3.06 1.59-3.87s-.87-1.85.07-3.13c1.67-2.29 2.9-4.84 1.8-7.94-.54-1.53 1.91-1.41 1.79-1.53-2.26-2.18.61-4.13.22-6.21-.17-.89-.38-2 .67-2.71 1.34-1-.74-1.56-.33-2.78.91-2.69 3.18-5.45.64-8.44 2.59-3-.6-7.11 1.91-10.21a2.57 2.57 0 0 0 0-2.41c-1.37-1.94-.67-4.09-1-6.12a54.43 54.43 0 0 0-1.58-7.84 24.09 24.09 0 0 0-6.31-10.39c-1.07-1-2.69-2-2.94-3.25a1.56 1.56 0 0 0-2.51-1.21c-1 .8-1.38.33-2.29 0a8.09 8.09 0 0 0-3.91 0c-.54.09-1 .88-1.43 1.35a2.06 2.06 0 0 1 .95 2.57c-.46 1.19 1.34 1.85.55 2.88a2.55 2.55 0 0 0-.3 2.72c1 2.38 2.89 4.63.81 7.35-.08.1-.07.43 0 .47 2.59 1.63-.4 4 .82 5.85-1.44 1.2-.09 3.62-1.18 4.26-1.36.79-1.82 1.39-1.68 2.84.16 1.77-.62 2.16-2 1-.52-.43-.91-.34-1 .15-.25 2.1-2.31 2.68-3.29 4.15l-4.41 2.37c-1.19-.12-1.32.6-1.27 1.54.08 1.45-1.38 2.43-1.07 4.1.25 1.33-1.39 2.47-.94 4.07s-2.8.9-2.09 3.12c.25.77-.75 1.94-1.15 2.94-.32.8-2.08 1-1.29 2.08.95 1.36-1.19 1.73-.61 2.81-.56.23-1.33.32-1.65.74s1.18.77.24 1.79-.27 2.81-1.79 3.76c-.85.53.57 2-.83 2.84-1.19.72-1.16 2.61-2.5 3.42-1.15.68-1.29 1.54-.34 2.56.13.14-.06.86-.15.87-2 .23-1.81 2.86-3.54 3.33-.64.18-1.5.09-1.25 1 .4 1.45-1.75 2.5-.88 3.49 1.07 1.22.41 1.71-.36 2.17s-2.12.57-1.83 2.2a4.53 4.53 0 0 1-.29 2.84c-.35.61-2.64.27-.68 1.82a13.67 13.67 0 0 1-2.15 2.09c-1.17.73-3.07 1-.94 2.8-1.78.64 0 3.33-1.65 3.49-2.17.21-1 2.55-2.65 3.14s-1.79 2.54-1.63 4.26c0 .22-.37.69-.55.68-1.88-.15-1.5 2.3-3.36 2.64-2.23.41-.09 3.41-1.77 4.66-.42.32-.4 1.18-.76 1.66a5.72 5.72 0 0 1-1.76 1.74c-1.46.75.65 1.74-.13 2.11-1.85.88-1 3.27-2.58 4.22s-1.2 3-2.07 4.31c-.26.4-.73.7-.89 1.13s1.33.6.53 1.37c-.29.29-.89.22-1.32.4s-.32.41.09.7c1.23.88-.44 1.17-.41 1.83a29.75 29.75 0 0 0 0 3c.14 1-.87 1.3-1 2.09-.37 1.67-.4 3.66-1.38 4.88-1.24 1.56.46 3.81-1.6 4.88 1.45 3.11-1.26 6.16-.12 9.39.3.86-1.7 2.47-.79 3.45 1.43 1.54-.53 2.46-.16 3.78a14.67 14.67 0 0 1 .07 4c0 1.48.38 3.21-.24 4.39-.88 1.68.95 2.8.28 4.3-.3.67.22 1.67-.64 2.22-.42.27-.49.63-.09.69 2.74.42 1 1.35.26 2.14-.34.36-.43.53-.12 1.09 1.48 2.73-.41 6 1.29 8.75a3.37 3.37 0 0 0 .24 4.76c-2.49 1.79.66 3.35.33 5.15-.08.43.65 1.65.7 2.62a16.7 16.7 0 0 0 1.65 3.9 5.81 5.81 0 0 1 .34 1.35c.28 1-.67 1.4-1 2.1a1 1 0 0 0 .43 1.28c.52.18 1.27-1.32 1.27-.56a14.31 14.31 0 0 0 3.26 9.71c.08.09 0 .32 0 .49.15.77-.41 1.72.41 2.31.48.35.95-1.76 1.56-.13.27.71-.09 1.52.51 2.3a14.13 14.13 0 0 1 3.53 8 3.67 3.67 0 0 0 .39.83c1.12-1.36 2.15-.39 2.38.5a4.57 4.57 0 0 0 1.89 2.71c1.3.89 1.09 3.67 3.72 2.94.38-.11.61.58.63 1.12 0 .72-.19 1.34.89 1.92 1.88 1 2 3.78 4.09 4.83-.73 2.15 3.12 2.27 2 4.6 0 0 .56.51.75.45 1.81-.56 2.12.75 2.65 1.94a11.59 11.59 0 0 0 4.73 5.18 17.28 17.28 0 0 1 5.33 5.09c1.41 2.22 3.56 3.41 5.2 5.2 1.13 1.24 4.09 1.18 3.3 4 2.45.35 2.7 2.84 4.09 4.21.12.12.31.36.35.34.65-.38 1.38-1.87 1.61.37.18 1.67 2-1.61 2.29.54 2.63.9 3.91 3.75 6.59 4.59.89 2.81 4.56 2.82 5.54 5.54 2.17-.05 2.57 2.45 4.25 3s2.43 1.79 3.36 3.15 2.53 2.27 3.88 3.32a38 38 0 0 0 3.33 2.74c1.1.68 1.67 2.65 3 3.54a25.21 25.21 0 0 1 6.5 5.68c2.45 3.35 5.65 2.68 8.9 2.42.65-1.4 2.22-.33 3-1.08 1.52-1.41 3.86-.17 5.29-1.74 1.55 1.68 3.11.21 4.67 0 .49-.07 1 .43 1.29.39 1.18-.17 2.29.45 3.61-.28s2.82-1.58 4.52-1.12c1 .29 2.32-.91 2.44-.78a2.51 2.51 0 0 0 2.72.74 17.35 17.35 0 0 1 7.1-1l7-2.85c1.26.29 1.76-1.31 3-1.18 1.11.12 2.34.29 3.09-.94 1.48 1.8 1.43.13 1.78-.76.14-.33.38-.15.72.15a3.22 3.22 0 0 0 1.19.55c1.35-2.63 4.4-1.46 6.4-2.83a5.42 5.42 0 0 1 4.49-1.13c.79.23 1.11-1.62 2.34-.28.88.94 1.24-.19 1.75-1.18.64-1.26 2.41-.49 3.67-.5 1.68 0 2.15-2.92 3.6-1.94 1.77 1.21 2.42 1.2 2.85-.87 2.07 0 3.8-1.65 6-1.25a3.57 3.57 0 0 0 3.84-1.58 3.26 3.26 0 0 1 3.52-1.34c1.32.2 2.44.16 2.81-1.66.12-.58 1.58-1.31 2.35-1.23 1.58.15 2.36-.77 3.42-1.56.6-.43 2.19.76 2.07-1.18 1.41-.4 3-.47 3.44-2.35 2.26 1.16 2.15-2.3 4.1-2.06 1.4.18 1.31-.27 4.1-1.9a68.55 68.55 0 0 0 14.21-11c1-1 2.09-2 3.14-2.89 1.24-1.1 2.07-2.77 3.19-4.14.68-.82 3.17-.61 1.91-2.76 2.52-1 3.44-3.57 5.27-5.21 3-2.69 3.44-3 4.83-5.85.27-.54 1.12-1.1-.16-1.15-1.06 0-1.5-1-2.56-1.17s-1.47-1.37-2.9-.29c-1.09.83-.2-1.62-1.38-1.59-.32 0-.79 0-.93.13-.64.83-1 .71-1.83 0s-2.63.55-2.78-1.75c-.06-1-2 .19-2.54-.74-.8-1.49-1.34.61-2.22 0-1.35-1-3.16-1-4.55-2.41-1-1-3-.94-3.72-2.86-.32-.87-.61.12-.76.44s.18 1.51-.93.76-1.74-2.74-3.43-2.51c-2.34.32-1.44-2.32-2.82-2.72s-2.67-1.78-4.41-1.42a108.27 108.27 0 0 0-10.84-8.84c-1.13-4.41-6.84-4.74-8.07-9.07-2 0-2.45-2-3.84-2.79s-1.36-3.06-3.43-3.61c-1.55-.41-1.63-2.59-2.78-3.8-2-2.06-2.07-2.45-3.78-.86-.84.79-2.55.63-2.6 1.77-.11 2.45-2.22.57-3 1.61a7.14 7.14 0 0 1-2.47 2.45c-4.77 2.21-8.93 5.61-14 7.21-.58.18-.78 1.53-1.86.39a2.4 2.4 0 0 1-.71-2.67c1-1.78 2.84-3.71 4.63-3.22 1.54.42 2-.5 2.11-.9 1-2.72 4-2.72 5.67-4.46.18-.19 1.44 1.91 1.54-.4 0-.51.44-.77 1-.75.94 0 1.87.31 2-1.32.1-1 1.36-1.58 2.56-1.85a11.54 11.54 0 0 0 6.25-4.21 7.59 7.59 0 0 1 4.43-2.54 4.32 4.32 0 0 0 2.12-1c4.21-3.51 6.91-8.79 12.51-10.72.19-.06 0-1.47.88-1.32 2.39.38-1-2.13 1.18-2.15 1.11 0 2.18-1.21 3.55-1 .1 0 .23-.22.35-.33.48-.47 0 0-.28-.31-1.13-1.7.47-2 1.24-2.18.93-.25 1.82-.18 2.62-1s.11-2.27 2-2.24c1.26 0 1.31-2 2.13-3s1.87-1.89 2.82-2.84c2.51 2.34 1.1-1.47 2.46-1.57 2.67-.2 2.52-4.36 5.54-4.48.18 0 .52-.5.49-.74-.29-3.06 3.79-4 3.4-7.1 2.39-2 3.47-4.79 4.72-7.55.52-1.14.88-3.36 3.25-2.61.12 0 .58-.48.54-.54-1.08-1.93.29-3.06 1.41-4.19a7.13 7.13 0 0 0 1.93-3.74c.25-1.12.78-3.11 2.32-3.34.62-.09 1 1.31 1.59-.51.89-2.6 2.16-5.5 4.19-7.13 1.63-1.3 2.63-2.38 3-4.31.28-1.55 2.52-1.9 2.59-3.3a3.45 3.45 0 0 1 2-3.15 8.3 8.3 0 0 0 3.68-4c1.8-3.53 5.52-5.33 7.28-8.79 1.61.26.84-1.86 1.61-1.86 2.66 0 4.08-2.31 6.25-3.06 1-.33 1-.73 1.41-1.48.71-1.38 1.2-3.47 3.75-2.65 1.1.35 1.7-.91 2.27-1.62a10.43 10.43 0 0 1 4.47-3.55c3-1.2 5.08-4.21 8.34-5.22a1.22 1.22 0 0 0 .69-.7c1.14-3.39 4.52-4.16 7.07-5.74A9.65 9.65 0 0 0 707 547c.87-1.39 1.06-3.12 2.93-4.08 1.54-.78 2.31-3 3.78-4 4.17-3.07 6.5-7.73 10-11.37a14.4 14.4 0 0 0 3-4.69 12.73 12.73 0 0 1 2.43-4.5c1.28-1.37.81-3.83 2.82-4.82-.64-1.89 1.65-3.17 1-5.09a10.13 10.13 0 0 0-2.56-4.45c-.67-.64-1.56-1.12-1.53-2.39 0-.6-1.06-.81-1.58-.32-.83.78-1.51 1.22-2.45.2-.75-.82-1.33 0-2.07.17-1.74.47-3.09 1.81-4.56 2.23-1.86.53-3.4 1.83-5.14 2.06s-.53 2.5-2 2.08c-.9-.24-1.08 1.72-2.42.44-.56-.54-.51 1.75-1.64 2.12-2.62.86-4.14 3.11-5.91 5-1.11 1.18-3 1-3.66 1.85-.88 1-1.61 2.33-2.64 3.33a1.55 1.55 0 0 1-.86.32c-3.86.57-6.09 3.18-8 6.28a4.19 4.19 0 0 1-2.12 1.81c-1.41.58-2.73 1.85-4 2.33-2.23.84-3.16 3.08-5.4 3.9-1.1.41-3.19 0-3.32 1.25-.22 2.08-2.25 1.41-3 2.67s-2.45 1.89-3.78 2.75a1.43 1.43 0 0 1-1 0c-1.63-.43-2.26.44-2.72 1.83-.12.35-.75 1.45-1.3.88-1.57-1.61-2.23-.12-3.18.66a16.74 16.74 0 0 0-2.2 1.73c-1.61 2.2-5.67 1-6.13 4.58-.08.56-.86.33-1.33.32-2.52 0-2.52 0-3.81.86-2.09 1.44-2.16 2.23-.55 3.79.6.59 2.35 0 1.87 1.61-.3 1.08 1.16 1.85.72 2.45-1.69 2.29 1.75.64 1.31 1.81-.92 2.4 1.92 3.14 2.23 5.11.18 1.13 1.06-1.39 1.62-.2a6.73 6.73 0 0 1 .18 2.38c-.31 1.09.71 2.55-.7 3.14-1.13.47-1.68-.81-2.33-1.48-2.31-2.36-6-3.66-6-7.83 0-.21-.38-.53-.64-.61-4.05-1.33-4.92-6.6-9.3-7.52 0 0 .05-.38 0-.46-1.37-1.24-2.75-2.48-4.16-3.69a3.1 3.1 0 0 0-.9-.44 11.45 11.45 0 0 1-5.35-3.82c-.73-.83-1.35-2-2.58-2.15s-2.83.45-3.54-1.07c-1-2.13-2.4.08-3.51-.45a32.2 32.2 0 0 1-3.74-1.8c-1.58-1-4.38-.52-4.5-3.45-1 .14-1.53-1.09-2.78-.84-1.41.29-2.43-.26-3.27-2-.75-1.52-3.45.47-4.9-1.13s-3.27-1.74-4.94-2.53a12.49 12.49 0 0 1-4-3.43 1.11 1.11 0 0 0-1.35-.33c-1.66.68-2.62-1.37-4.09-1-1.87.47-2.3-1.76-3.11-1.87-3.73-.49-6.45-3.39-9.86-4-2.42-.41-3.17-1.62-4.11-3.3-.66-1.18-.56-1.79.89-1.89s3.62.65 4.43-1.26c1.07-2.52 3.91-4 4.23-6.72.18-1.58 2.74-.52 2.14-2.59-.46-1.59 1.42-2 2.12-3.09a8.25 8.25 0 0 1 3.11-3.12c1.37-.67.09-2.74 1.08-3 3-.66 3-3.43 4.1-5.32a57.87 57.87 0 0 1 5.66-8.67 14.27 14.27 0 0 0 2.79-5.31 14.78 14.78 0 0 1 2.5-5 15.94 15.94 0 0 1 2.38-2.47c.9-.82.12-2.58 1-4.05a6 6 0 0 0-.13-5.23c-1.06-2-.76-4-.26-6.07.09-.36.94-.71.17-1-2.76-1.21-.53-4.49-2.56-6 .77-2.66-1.79-4.31-2-6.66-2.45-.52-3.91-2.55-5.76-3.92-1.07-.79-2.58.12-3.07-1-.76-1.72-2.3-1.18-3.23-1-1.48.23-2.88-1.11-4-.44-2.16 1.35-4.41.74-6.63.91-1 .07-1.93-.17-2.68.83-.93 1.25-1.78-1.64-2.72-.2A3.43 3.43 0 0 1 560 437c-2.23-.47-4.06 1.44-6.08 1-1.77-.42.14 2-1.92 1.75-3.46-.46-6.84 1.6-10.44 1.33-3.92 2.4-8.55 1.86-12.73 3.09a3.55 3.55 0 0 1-2.72 0 2.12 2.12 0 0 0-2.26.51c-.48.45-.79 2.15-2.12.72-.4-.44-1.59-.87-1.35.5.15.85 1.63 1.13 1.63 2.31 0 .15 0 .4-.08.46-1.43.93-.91 2.38-.89 3.62a7.43 7.43 0 0 1-2.26 5.59 20.12 20.12 0 0 0-2.85 3.29c-1.23 1.95-4 2-5.53 3.83-2.09-2.58-2.14.77-3.22 1.11a29.46 29.46 0 0 0-3.94 1.34c-.65.32-1.59 1-1.19 1.94.71 1.62 1-.41 1.64-.3s1 0 1.3.5l5 1.52h5.5c1.56 2.58 3.09-.9 4.69 0 .39.21 1-.05 1.48 0 1.4.27 2.69 1.64 4.24.05.42-.44 1 .28 1.11 1.08s.82 1.18.9.12c.13-1.69 1.21-1.19 2.1-1.26 4.86-.36 9.69.11 14.62-.78a72.32 72.32 0 0 0 14.06-3.59c1.77-.71 3.84-.14 5.34-1.62 1.27-1.26 3.32-.75 4.68-2s3.52.36 4.46-1.7c.19-.42.35-.24.72 0 1 .74 1.6 3.66.78 4.43-1.37 1.28-4.06.28-4.78 2.77-.16.55-.82.48-1.3.43a7.32 7.32 0 0 0-5.8 1.7c-4.46-.06-4.34 4.45-6.6 6.6 1.53 1.13-.39 2-.24 3.08s-2.41.29-1.54 1.36c1.1 1.36-.62 1.51-.55 2.4 0 .64-.33 1.91-2.14 1.31-1.56-.52-.06 1.73-1 2.34s-.57 2.31-1.79 2.73-.33 2.86-2.39 2.52c-.14 0-.51.44-.54.69-.44 4.08-4.07 6-6.27 8.77-.82 1-3.08 1.66-3.54 3-.53 1.53-3.14 1.75-2.32 4a2.36 2.36 0 0 1-2.15 1.48l2.93 3.49ZM505 597.53v2.91c-1.38 4.22-1.27 9.55-3.31 14.71-1.85 4.67-4.32 9.32-4.73 14.55a3.9 3.9 0 0 1-1 2.53c-2.21 1.8-2.51 4.69-4.19 6.88s-2.52 4.86-5.41 6.18c-1.21.56 0 2.61-1 4s-2.91-.51-3.54 1.85c-.54 2-3.82 2.47-5.76 1.4-1.16-.64-1.25-1.7-.4-2.78 2-2.55 5.27-4 6.39-7.35.18-.54.81-.51 1.3-.44 1.32.18 1.89-.41 1.61-1.67a1.92 1.92 0 0 1 1.84-2.64c1.91-.23-.46-2.23 1.34-2.83 1.1-.37 1.93-2 2.56-3.16a13.11 13.11 0 0 0 1.24-4c.23-1.53 1.83-3.08.07-4.7-.26-.24.11-1.08.6-.83.66.33 1 1.34 1.42-.29a32.81 32.81 0 0 1 2.62-7.89c.78-1.43-.9-2-.32-2.81.72-1.05 1.81-1.71 1.75-3.33 0-.94.78-2 1.43-2.85a2.18 2.18 0 0 0 .45-1.81c-.45-2.44 1.39-4.12 2-6.19.43-1.6 1.49-1 2.3-1s.74.91.74 1.56Zm181.9-63c.54-.49 1.24-.91 1.68-.42 1.41 1.59 4.89 1 4.59 4.45 0 .68 2.9.33 1.6 2s.47 1.8.89 2.52c.64 1.12.31 2.25.3 3.36a2.44 2.44 0 0 1-2.79 2.54c-1.26.13-1-1.4-1.28-1.49-2-.6 1.24-2.41-.79-3-1.26-.34-.87-2-1.76-2.74-1.65-1.42-2.05-3.42-2.61-5.42-.23-.77-.55-1.12.17-1.76Zm-4.57 4.65c.83-.67 1.45 0 2 .63 1.54 1.62 3.31 3 4.26 5.17a6.84 6.84 0 0 1 .41 1.8c-1.43 1.39.1 2.76 0 4.14-.06 1-.06 2-1.06 2.55s-1.73-.73-2.73-.84c-.46 0-1.27-1-1.18-1.38.81-3.36-2.07-5.48-2.72-8.34a18.27 18.27 0 0 1-.35-1.82c-.06-.97.79-1.39 1.37-1.87Z" class="d"/><path d="M515.51 446.91a5.7 5.7 0 0 0-4 1.26c-2.12 1.64-4.86-.11-6.83 1.77-.53.52-1.41-.28-2.12-.76s-1.52-.28-1.6.94-.7.89-1.1.23c-1.07-1.76-1.95-1.09-2.85.12-.35.47-.62.41-1.07 0-.92-.79-1.66-.91-2 .62a2.69 2.69 0 0 1-2 1.92c-2.29.8-3 2.88-2.93 4.92s2.94 2.48 3.11 4.69c.05.59.86.24 1.31.37 2.51.72 2.75.8 5.45-.53.94-.46 1-.24 1.07.56a7.21 7.21 0 0 0 .68 1.54 8.45 8.45 0 0 1 1.12-1.85c.69-.63 1.1-1.63 2.26-1.75s2.59.44 3.85-.36a10.13 10.13 0 0 1 3.33-1.56c1.45-.28-1.18-1.94 1.13-2.27 1.76-.25 2.82-2.91 4.92-3.65.87-.3.53-.86 0-1.4s-.12-1.06.11-1.7c1.12-2.92.94-2.84-1.84-3.11ZM453.55 502.94c-1.11 1 1.07 1.45.44 2.35s-1.26 1.5-1 2.59a3.23 3.23 0 0 0 .28.88c.17.27.37.06.71-.22a75.76 75.76 0 0 0 8.37-8.34 2.09 2.09 0 0 0 .58-2.22c-.59-1.23 1.46-1.85.38-3.37-.71-1-.28-2.85-.31-4.32s.42-2.87-.1-4a13 13 0 0 1-.86-6.61c.07-1.15-.88-1.68-1-2.59-.08-.47-.11-1.07-.62-1a1.61 1.61 0 0 0-1 1 21.69 21.69 0 0 1-3.2 7.18.35.35 0 0 0 0 .34c1.74 1.36-1.15 2.23-.34 3.82.6 1.17-.93 2.5-1.61 3.71-.39.68.42.68.59 1.36-1.75.46.89 2.33-1.12 3.34-1.44.73-1 2.64-.29 3.92.41.88.89 1.44.1 2.18Z" class="d"/><path d="M738.14 507.44c-.18-1.92-1.94-2.82-2-4.17-.15-2.9-2.34-3.45-4.06-4.82a12.3 12.3 0 0 0-6.51-2.42c-.49-.07-1.79 0-1.31.56 1.35 1.73 0 1.14-.84 1.46-1 .42-1.27-1.28-2.44-.62-.8.44-2.14-.46-2.8.89s-2.76-.12-3.39 1.42c-.53 1.3-2.41.74-2.8 2.26-.52 1.95-2.22.56-3.27 1a6.69 6.69 0 0 0-1.13.89c-1 .77-1.51 2.26-3.12 2.13-.18 1.92-1.57 1.92-3 2.15A1.93 1.93 0 0 0 700 510a2 2 0 0 1-1.43 1.82c-2 .12-2.55 2.29-4.44 2.69-1.4.3-2 2.29-3.93 2.61-1.62.26-1.77 3-3.42 3.49s-2 2.53-3.75 2.86a5.82 5.82 0 0 0-3.44 2.49c-.84 1.13-2.45.86-3.18 2-1.95-.74-.81 2.2-2.59 2.08-1.93-.14-2.76 2.29-4.84 2.6-1.06.15-2 1.65-2.81 2.71-.92 1.26-2.76-.17-3.45 1.39s-2.93.73-3.27 1.48a4.48 4.48 0 0 1-3.9 2.68c-2.12.24-2.83 2.47-4.82 2.93a2.09 2.09 0 0 1-2.4-1.1c-.61-.79.46-1.06.82-1.34.78-.63 1.71-.77 2.17-2a21.66 21.66 0 0 0 .72-2.71c.24-1.1 1.81-.44 2.27-1.46.19-.42.8-.58.7-1.22-.33-2.18-.13-4.13 2.41-4.91.73-2.88 3.81-4.65 3.66-8a3.47 3.47 0 0 1 1.33-2.82c1.88-.81 2.41-2.15 2.6-3.93s2-3.13 2-5.17c.09-1.69 2.22-2.93 1.86-4.65-.53-2.47 2-2.73 2.56-4.41.74-2.35 2.24-4.31 2.7-6.92.4-2.29 2.36-4.31 3.61-6.46a1.79 1.79 0 0 0 .2-.91 4.81 4.81 0 0 1 .8-3.5c-2.26-2.19 2.44-.63 1.21-2.26a4.71 4.71 0 0 0 1-4.07c-.31-1.34 3.3-.65 1.21-2.62 1.8-3.28 2.27-7.1 4-10.35 1.06-2.05.59-4.3 1.78-6.29.75-1.27-.24-3.13.57-4.75a14.83 14.83 0 0 0 1.46-4.87c.15-1.33.52-2.62.61-4 .2-3.13 1.52-6.13 1.48-9.35 0-1.9-.16-3.75.88-5.64.88-1.59-.06-3.61.85-5.64 1.09-2.43-.22-5.6.89-8.33-1.54-3.47.51-7.81-2.6-10.94-.12-.12.23-.89.52-1.22s.44-.71.2-.69c-2.51.14-3.68-1.8-5.2-3.2 0 0-.31.1-.33.19-.89 3.86-1.71.16-2.47-.08s-1.83-.48-2.32 0c-1.32 1.19-1.43.68-1.46-.69a6.77 6.77 0 0 1 .89-3.15c.41-.85.33-2.06 1-3-1.62-1-.22-2.93-1.12-4-.56-.68-.56-2-1-2-2-.1-2.31-2-2.56-2.92-.38-1.42-1.14-1.1-2-1.47-2.63-1.19-5.14 2.87-7.69.06-1.38 1.84-3.7.21-5 1.18s-3 1.44-3.87 2.74c-1.18 1.71-3.48 1.87-4.55 3.53a9.08 9.08 0 0 1-4.08 3.24 7 7 0 0 0-3.35 4c-.5 1.41-1.2 3.06-2.73 3.86-2.42 1.25-1.51 4.59-3.8 6A6 6 0 0 0 640 408c-.61 2.6-1.46 5.13-3.5 7 .42 2-2.31 1.54-2.6 3.38-.22 1.44-2.17 2.17-2.94 3.74-1.09 2.22-2.75 4.15-4.07 6.29s-2.48 4.7-4.27 6.13-2.46 4.52-5.38 4.72c-1.34 3.35-3.9 5.8-6.2 8.43.25 2-2.35 1-2.55 2.35-.24 1.62-2 2.25-2.35 3.52-.46 1.85-2 2.5-3 3.77-.24.32-1 .87-1 .19 0-1.6-1.52-2-2.08-3.12 2.22-.88-.28-2.4.48-3.48 1.1-1.55.4-2-1.18-2-.42 0-1.74-.26-1-.62 1.36-.65-1.61-2.69 1-2.4.44.05.62-.48.12-.95-1.09-1-2.15-2.09-3.18-3.17-.69-.72.16-.67.49-.82s.75-.06.87-.26c.47-.71-.21-.74-.61-.73a2.44 2.44 0 0 1-1.85-1.32c.57-1.11 1-2-.9-1.69-1 .15-1.44-.65-2-1.19-.85-.81-1.59-1.73-2.5-2.45-1.48-1.19-3.12-3.23-4.58-3.13-2 .13-3.38.11-4.79-1.22a1 1 0 0 0-1 0c-1.71 1.76-3.6 2.21-5.79 1-1.29 1.43-3 1.06-4.58 1-3.09-.16-6 1-8.93 1.49-1 .17-2.74-1.16-3.25 1-.17.73-1.12.43-1.75.52-1.09.17-2.35-.55-3.26.55-1.48 1.78-2.11-1.33-3.42-.57-.12.07-.39-.06-.48 0-1.69 1.58-4.09 1.6-5.9 2.6a16 16 0 0 1-4.42 1.52c-1.34.32-2.23 1.31-3.92.36-1.28-.72-2.46 1.38-3.95 1.49a1.26 1.26 0 0 1-.8-.45 1.43 1.43 0 0 0-1.73-.38 69 69 0 0 0-7.77 2.94c-1.44.75-2.43 1.41-3.83.17-.83-.73-1.43 0-2.07.54-.42.36-.93 1.45-1.32.92-1.13-1.53-1.5.57-2.35.31-1-.31-1.94.84-2.57.82-1.26 0-2.68 1.34-3.29.6-1.3-1.6-2.1 1-3.25 0-1.66-1.44-2.14.65-3.09 1.29-.77.51-2 .53-2.29.15-1.27-1.64-2.15-.44-3.28.09-4.9 2.31-6.59 6.57-7.25 11.44a4.78 4.78 0 0 0 2.15 5.18c1.43 1 1.67 2.71 2.78 3.89.5.53-.3 1.68.43 2.26.2.15 1.09-.63 1.34-.48.69.43 1.21 1.63 1.8 1.63a12.6 12.6 0 0 1 8.93 3.93c.06.06.94-.75 1-.7 1.34 1.37 3.07 1 4.59.81 1.74-.19 2.82 1.78 4.6 1.08.92-.36 1.5 1 2 .82a14.78 14.78 0 0 1 10.79 0c3-2.36 7 .59 10.19-1.77a3.07 3.07 0 0 1 3.26.27c.55.45 1.23 1 1.69.54 1.88-1.82 4.15-.41 6.14-.94s3.78-1.33 5.68-2a5 5 0 0 1 1.5 0c1.42.05 1.16.51.41 1.32-.4.42-.34 1.33-.77 1.64-1.51 1.1-2.27 2.9-3 4.32-.76 1.59-2.28 2.52-2.82 4.33s-2.53 2.92-3.3 4.62-1.86 3.38-3.33 4c-2 .85-1.68 2.77-2.74 3.86a113.11 113.11 0 0 0-9.4 10.56l2.81 3.35a2.36 2.36 0 0 0 2.15-1.48c-.82-2.29 1.79-2.51 2.32-4 .46-1.34 2.72-2 3.54-3 2.2-2.81 5.83-4.69 6.27-8.77 0-.25.4-.71.54-.69 2.06.34 1.11-2.09 2.39-2.52s.79-2.09 1.79-2.73-.56-2.86 1-2.34c1.81.6 2.19-.67 2.14-1.31-.07-.89 1.65-1 .55-2.4-.87-1.07 1.69-.25 1.54-1.36s1.77-1.95.24-3.08c2.26-2.15 2.14-6.66 6.6-6.6a7.32 7.32 0 0 1 5.8-1.7c.48.05 1.14.12 1.3-.43.72-2.49 3.41-1.49 4.78-2.77.82-.77.2-3.69-.78-4.43-.37-.28-.53-.46-.72 0-.94 2.06-3.24.59-4.46 1.7s-3.41.73-4.68 2c-1.5 1.48-3.57.91-5.34 1.62a72.32 72.32 0 0 1-14.06 3.59c-4.93.89-9.76.42-14.62.78-.89.07-2-.43-2.1 1.26-.08 1.06-.8.8-.9-.12s-.69-1.52-1.11-1.08c-1.55 1.59-2.84.22-4.24-.05-.48-.09-1.09.17-1.48 0-1.6-.86-3.13 2.62-4.69 0H510l-5-1.52c-.33-.47-.82-.42-1.3-.5s-.93 1.92-1.64.3c-.4-.92.54-1.62 1.19-1.94a29.46 29.46 0 0 1 3.94-1.34c1.08-.34 1.13-3.69 3.22-1.11 1.49-1.83 4.3-1.88 5.53-3.83a20.12 20.12 0 0 1 2.85-3.29 7.43 7.43 0 0 0 2.26-5.59c0-1.24-.54-2.69.89-3.62.09-.06.08-.31.08-.46 0-1.18-1.48-1.46-1.63-2.31-.24-1.37 1-.94 1.35-.5 1.33 1.43 1.64-.27 2.12-.72a2.12 2.12 0 0 1 2.26-.51 3.55 3.55 0 0 0 2.72 0c4.18-1.23 8.81-.69 12.73-3.09 3.6.27 7-1.79 10.44-1.33 2.06.27.15-2.17 1.92-1.75 2 .47 3.85-1.44 6.08-1a3.43 3.43 0 0 0 3.93-1.33c.94-1.44 1.79 1.45 2.72.2.75-1 1.72-.76 2.68-.83 2.22-.17 4.47.44 6.63-.91 1.09-.67 2.49.67 4 .44.93-.14 2.47-.68 3.23 1 .49 1.12 2 .21 3.07 1 1.85 1.37 3.31 3.4 5.76 3.92.23 2.35 2.79 4 2 6.66 2 1.47-.2 4.75 2.56 6 .77.33-.08.68-.17 1-.5 2-.8 4 .26 6.07a6 6 0 0 1 .13 5.23c-.87 1.47-.09 3.23-1 4.05a15.94 15.94 0 0 0-2.38 2.47 14.78 14.78 0 0 0-2.5 5 14.27 14.27 0 0 1-2.79 5.31 57.87 57.87 0 0 0-5.66 8.67c-1.1 1.89-1.1 4.66-4.1 5.32-1 .22.29 2.29-1.08 3a8.25 8.25 0 0 0-3.11 3.12c-.7 1.05-2.58 1.5-2.12 3.09.6 2.07-2 1-2.14 2.59-.32 2.76-3.16 4.2-4.23 6.72-.81 1.91-2.85 1.15-4.43 1.26s-1.55.71-.89 1.89c.94 1.68 1.69 2.89 4.11 3.3 3.41.58 6.13 3.48 9.86 4 .81.11 1.24 2.34 3.11 1.87 1.47-.37 2.43 1.68 4.09 1a1.11 1.11 0 0 1 1.35.33 12.49 12.49 0 0 0 4 3.43c1.67.79 3.6 1.05 4.94 2.53s4.15-.39 4.9 1.13c.84 1.71 1.86 2.26 3.27 2 1.25-.25 1.75 1 2.78.84.12 2.93 2.92 2.41 4.5 3.45a32.2 32.2 0 0 0 3.74 1.8c1.11.53 2.5-1.68 3.51.45.71 1.52 2.29.89 3.54 1.07s1.85 1.32 2.58 2.15A11.45 11.45 0 0 0 626 551a3.1 3.1 0 0 1 .85.35c1.41 1.21 2.79 2.45 4.16 3.69.09.08 0 .46 0 .46 4.38.92 5.25 6.19 9.3 7.52.26.08.64.4.64.61 0 4.17 3.72 5.47 6 7.83.65.67 1.2 1.95 2.33 1.48 1.41-.59.39-2.05.7-3.14a6.73 6.73 0 0 0-.18-2.38c-.56-1.19-1.44 1.33-1.62.2-.31-2-3.15-2.71-2.23-5.11.44-1.17-3 .48-1.31-1.81.44-.6-1-1.37-.72-2.45.48-1.66-1.27-1-1.87-1.61-1.61-1.56-1.54-2.35.55-3.79 1.29-.89 1.29-.88 3.81-.86.47 0 1.25.24 1.33-.32.46-3.6 4.52-2.38 6.13-4.58a16.74 16.74 0 0 1 2.2-1.73c1-.78 1.61-2.27 3.18-.66.55.57 1.18-.53 1.3-.88.46-1.39 1.09-2.26 2.72-1.83a1.43 1.43 0 0 0 1 0c1.33-.86 3-1.52 3.78-2.75s2.83-.59 3-2.67c.13-1.21 2.22-.84 3.32-1.25 2.24-.82 3.17-3.06 5.4-3.9 1.29-.48 2.61-1.75 4-2.33a4.19 4.19 0 0 0 2.12-1.81c1.86-3.1 4.09-5.71 8-6.28a1.55 1.55 0 0 0 .86-.32c1-1 1.76-2.3 2.64-3.33.69-.81 2.55-.67 3.66-1.85 1.77-1.87 3.29-4.12 5.91-5 1.13-.37 1.08-2.66 1.64-2.12 1.34 1.28 1.52-.68 2.42-.44 1.52.42.41-1.87 2-2.08s3.28-1.53 5.14-2.06c1.47-.42 2.82-1.76 4.56-2.23.74-.21 1.32-1 2.07-.17.94 1 1.62.58 2.45-.2.52-.49 1.59-.28 1.58.32 0 1.27.86 1.75 1.53 2.39a10.13 10.13 0 0 1 2.56 4.45c.64 1.92-1.65 3.2-1 5.09-2 1-1.54 3.45-2.82 4.82a12.73 12.73 0 0 0-2.43 4.5 14.4 14.4 0 0 1-3 4.69c-3.52 3.64-5.85 8.3-10 11.37-1.47 1.08-2.24 3.25-3.78 4-1.87 1-2.06 2.69-2.93 4.08a9.65 9.65 0 0 1-3.36 3.17c-2.55 1.58-5.93 2.35-7.07 5.74a1.22 1.22 0 0 1-.69.7c-3.26 1-5.31 4-8.34 5.22a10.43 10.43 0 0 0-4.47 3.55c-.57.71-1.17 2-2.27 1.62-2.55-.82-3 1.27-3.75 2.65-.38.75-.46 1.15-1.41 1.48-2.17.75-3.59 3-6.25 3.06-.77 0 0 2.12-1.61 1.86-1.76 3.46-5.48 5.26-7.28 8.79a8.3 8.3 0 0 1-3.68 4 3.45 3.45 0 0 0-2 3.15c-.07 1.4-2.31 1.75-2.59 3.3-.36 1.93-1.36 3-3 4.31-2 1.63-3.3 4.53-4.19 7.13-.63 1.82-1 .42-1.59.51-1.54.23-2.07 2.22-2.32 3.34a7.13 7.13 0 0 1-1.93 3.74c-1.12 1.13-2.49 2.26-1.41 4.19 0 .06-.42.58-.54.54-2.37-.75-2.73 1.47-3.25 2.61-1.25 2.76-2.33 5.53-4.72 7.55.39 3.08-3.69 4-3.4 7.1 0 .24-.31.73-.49.74-3 .12-2.87 4.28-5.54 4.48-1.36.1 0 3.91-2.46 1.57-1 1-1.94 1.84-2.82 2.84s-.87 3-2.13 3c-1.91 0-1.34 1.54-2 2.24s-1.69.75-2.62 1c-.77.2-2.37.48-1.24 2.18.24.35.76-.16.28.31-.12.11-.25.35-.35.33-1.37-.22-2.44 1-3.55 1-2.13 0 1.21 2.53-1.18 2.15-.92-.15-.69 1.26-.88 1.32-5.6 1.93-8.3 7.21-12.51 10.72a4.32 4.32 0 0 1-2.12 1 7.59 7.59 0 0 0-4.43 2.54 11.54 11.54 0 0 1-6.25 4.21c-1.2.27-2.46.8-2.56 1.85-.17 1.63-1.1 1.35-2 1.32-.6 0-1 .24-1 .75-.1 2.31-1.36.21-1.54.4-1.69 1.74-4.71 1.74-5.67 4.46-.15.4-.57 1.32-2.11.9-1.79-.49-3.64 1.44-4.63 3.22a2.4 2.4 0 0 0 .71 2.67c1.08 1.14 1.28-.21 1.86-.39 5.07-1.6 9.23-5 14-7.21a7.14 7.14 0 0 0 2.47-2.45c.75-1 2.86.84 3-1.61 0-1.14 1.76-1 2.6-1.77 1.71-1.59 1.81-1.2 3.78.86 1.15 1.21 1.23 3.39 2.78 3.8 2.07.55 1.89 2.77 3.43 3.61s1.84 2.83 3.84 2.79c1.23 4.33 6.94 4.66 8.07 9.07a108.27 108.27 0 0 1 10.84 8.84c1.74-.36 2.93 1 4.41 1.42s.48 3 2.82 2.72c1.69-.23 2.25 1.71 3.43 2.51s.73-.34.93-.76.44-1.31.76-.44c.7 1.92 2.72 1.84 3.72 2.86 1.39 1.42 3.2 1.41 4.55 2.41.88.65 1.42-1.45 2.22 0 .49.93 2.48-.25 2.54.74.15 2.3 2 1.09 2.78 1.75s1.19.79 1.83 0c.14-.18.61-.12.93-.13 1.18 0 .29 2.42 1.38 1.59 1.43-1.08 1.95.15 2.9.29s1.5 1.13 2.56 1.17c1.28.05.43.61.16 1.15-1.39 2.8-1.81 3.16-4.83 5.85-1.83 1.64-2.75 4.23-5.27 5.21 1.26 2.15-1.23 1.94-1.91 2.76-1.12 1.37-2 3-3.19 4.14-1 .93-2.17 1.91-3.14 2.89a68.55 68.55 0 0 1-14.21 11c-2.79 1.63-2.7 2.08-4.1 1.9-2-.24-1.84 3.22-4.1 2.06-.4 1.88-2 2-3.44 2.35.12 1.94-1.47.75-2.07 1.18-1.06.79-1.84 1.71-3.42 1.56-.77-.08-2.23.65-2.35 1.23-.37 1.82-1.49 1.86-2.81 1.66a3.26 3.26 0 0 0-3.42 1.43 3.57 3.57 0 0 1-3.84 1.58c-2.18-.4-3.91 1.2-6 1.25-.43 2.07-1.08 2.08-2.85.87-1.45-1-1.92 1.91-3.6 1.94-1.26 0-3-.76-3.67.5-.51 1-.87 2.12-1.75 1.18-1.23-1.34-1.55.51-2.34.28a5.42 5.42 0 0 0-4.49 1.13c-2 1.37-5 .2-6.4 2.83a3.22 3.22 0 0 1-1.19-.55c-.34-.3-.58-.48-.72-.15-.35.89-.3 2.56-1.78.76-.75 1.23-2 1.06-3.09.94-1.27-.13-1.77 1.47-3 1.18l-7 2.85a17.35 17.35 0 0 0-7.1 1 2.51 2.51 0 0 1-2.72-.74c-.12-.13-1.39 1.07-2.44.78-1.7-.46-3.25.42-4.52 1.12s-2.43.11-3.61.28c-.25 0-.8-.46-1.29-.39-1.56.2-3.12 1.67-4.67 0-1.43 1.57-3.77.33-5.29 1.74-.82.75-2.39-.32-3 1.08-3.25.26-6.45.93-8.9-2.42a25.21 25.21 0 0 0-6.5-5.68c-1.32-.89-1.89-2.86-3-3.54a38 38 0 0 1-3.33-2.74c-1.35-1.05-2.94-2-3.88-3.32s-1.67-2.61-3.36-3.15-2.08-3.05-4.25-3c-1-2.72-4.65-2.73-5.54-5.54-2.68-.84-4-3.69-6.59-4.59-.33-2.15-2.11 1.13-2.29-.54-.23-2.24-1-.75-1.61-.37 0 0-.23-.22-.35-.34-1.39-1.37-1.64-3.86-4.09-4.21.79-2.82-2.17-2.76-3.3-4-1.64-1.79-3.79-3-5.2-5.2a17.28 17.28 0 0 0-5.33-5.09 11.59 11.59 0 0 1-4.73-5.18c-.53-1.19-.84-2.5-2.65-1.94-.19.06-.76-.41-.75-.45 1.08-2.33-2.77-2.45-2-4.6-2.06-1-2.21-3.81-4.09-4.83-1.08-.58-.85-1.2-.89-1.92 0-.54-.25-1.23-.63-1.12-2.63.73-2.42-2-3.72-2.94a4.57 4.57 0 0 1-1.89-2.71c-.23-.89-1.26-1.86-2.38-.5a3.67 3.67 0 0 1-.39-.83 14.13 14.13 0 0 0-3.53-8c-.6-.78-.24-1.59-.51-2.3-.61-1.63-1.08.48-1.56.13-.82-.59-.26-1.54-.41-2.31 0-.17.07-.4 0-.49a14.31 14.31 0 0 1-3.26-9.71c0-.76-.75.74-1.27.56a1 1 0 0 1-.43-1.28c.3-.7 1.25-1.1 1-2.1a5.81 5.81 0 0 0-.34-1.35 16.7 16.7 0 0 1-1.65-3.9c-.05-1-.78-2.19-.7-2.62.33-1.8-2.82-3.36-.33-5.15a3.37 3.37 0 0 1-.24-4.76c-1.7-2.74.19-6-1.29-8.75-.31-.56-.22-.73.12-1.09.72-.79 2.48-1.72-.26-2.14-.4-.06-.33-.42.09-.69.86-.55.34-1.55.64-2.22.67-1.5-1.16-2.62-.28-4.3.62-1.18.21-2.91.24-4.39a14.67 14.67 0 0 0-.07-4c-.37-1.32 1.59-2.24.16-3.78-.91-1 1.09-2.59.79-3.45-1.14-3.23 1.57-6.28.12-9.39 2.06-1.07.36-3.32 1.6-4.88 1-1.22 1-3.21 1.38-4.88.18-.79 1.19-1.08 1-2.09a29.75 29.75 0 0 1 0-3c0-.66 1.64-1 .41-1.83-.41-.29-.49-.53-.09-.7s1-.11 1.32-.4c.8-.77-.73-.84-.53-1.37s.63-.73.89-1.13c.87-1.35.44-3.32 2.07-4.31s.73-3.34 2.58-4.22c.78-.37-1.33-1.36.13-2.11a5.72 5.72 0 0 0 1.76-1.74c.36-.48.34-1.34.76-1.66 1.68-1.25-.46-4.25 1.77-4.66 1.86-.34 1.48-2.79 3.36-2.64.18 0 .57-.46.55-.68-.16-1.72-.13-3.62 1.63-4.26s.48-2.93 2.65-3.14c1.66-.16-.13-2.85 1.65-3.49-2.13-1.78-.23-2.07.94-2.8a13.67 13.67 0 0 0 2.15-2.09c-2-1.55.33-1.21.68-1.82a4.53 4.53 0 0 0 .29-2.84c-.29-1.63.93-1.66 1.83-2.2s1.43-.95.36-2.17c-.87-1 1.28-2 .88-3.49-.25-.93.61-.84 1.25-1 1.73-.47 1.5-3.1 3.54-3.33.09 0 .28-.73.15-.87-1-1-.81-1.88.34-2.56 1.34-.81 1.31-2.7 2.5-3.42 1.4-.84 0-2.31.83-2.84 1.52-1 .88-2.79 1.79-3.76s-.55-1.37-.24-1.79 1.09-.51 1.65-.74c-.58-1.08 1.56-1.45.61-2.81-.79-1.12 1-1.28 1.29-2.08.4-1 1.4-2.17 1.15-2.94-.71-2.22 2.57-1.42 2.09-3.12s1.19-2.74.94-4.07c-.31-1.67 1.15-2.65 1.07-4.1-.05-.94.08-1.66 1.27-1.54l4.48-2.24c1-1.47 3-2.05 3.29-4.15.06-.49.45-.58 1-.15 1.36 1.14 2.14.75 2-1-.14-1.45.32-2.05 1.68-2.84 1.09-.64-.26-3.06 1.18-4.26-1.22-1.81 1.77-4.22-.82-5.85-.08 0-.09-.37 0-.47 2.08-2.72.19-5-.81-7.35a2.55 2.55 0 0 1 .3-2.72c.79-1-1-1.69-.55-2.88a2.06 2.06 0 0 0-.95-2.57c.47-.47.89-1.26 1.43-1.35a8.09 8.09 0 0 1 3.91 0c.91.32 1.31.79 2.29 0a1.56 1.56 0 0 1 2.51 1.21c.25 1.23 1.87 2.22 2.94 3.25a24.09 24.09 0 0 1 6.16 10.25 54.43 54.43 0 0 1 1.58 7.84c.3 2-.4 4.18 1 6.12a2.57 2.57 0 0 1 0 2.41c-2.51 3.1.68 7.2-1.91 10.21 2.54 3 .27 5.75-.64 8.44-.41 1.22 1.67 1.82.33 2.78-1.05.75-.84 1.82-.67 2.71.39 2.08-2.48 4-.22 6.21.12.12-2.33 0-1.79 1.53 1.1 3.1-.13 5.65-1.8 7.94-.94 1.28 1.68 2.35-.07 3.13s-.84 2.64-1.59 3.87a7.22 7.22 0 0 0-.51 2.91c0 2.62-1.34 4.8-2.07 7.17-.23.73-1.46 1.27-.16 2.31.29.24-1.37.18-1.84 1-1.25 2-.66 4.64-1.95 6.7-.1.15.41.85.78 1.11a20.31 20.31 0 0 0 2.79 1.69c.8.4 1.84-.6 1.31-1.33-.7-1-.95-1.46.12-2.21 2.53-1.79 2.83-4.91 3.78-7.42 1.59-4.16 1.13-4.34 2.64-6 .79-.87.2-1-.52-1-1 0-1-.7-.92-1.35a.87.87 0 0 1 1.11-.66c1.56.27 2.06-.46 1.87-1.93-.08-.66.06-1.34 0-2a2.63 2.63 0 0 1 1.82-3.06c2.42-.92 3.9-2.83 5.5-4.72.68-.8.69-3.94 3.15-1.5 0 0 1.3-1.64 2-1.68 1.61-.09 2-1.72 3.17-2.08s2.34-1 2.39-2.56c0-.16.54-.49.77-.44 2.72.51 3.78-2 5.63-3.11 1.62-.94 2.81-2.53 4.51-3.57 1.46-.88 1.57-3.39 3.88-3.82.42-.08 1.06-1.91.79-2.24-1-1.24-.26-1.41.62-1.23.42.08.73.4 1.1.52l-2.87-3.49a8.49 8.49 0 0 1-1.89.92c-.51.17-.41.87-.64 1.16A60.11 60.11 0 0 1 500.42 534a10 10 0 0 0-2.65 1.92 11.63 11.63 0 0 1-5 3.66c-2 .8-3.21 2.49-5 3.31a1.52 1.52 0 0 1-.91.19c-.31-.09-.81 0-.52-.85.76-2.36.9-5 1.79-7.26a16.38 16.38 0 0 0 .88-7.11c-.07-1.14.73-1.72 1.06-2.59.43-1.16-1.11-2.1-.65-2.92 1.36-2.38-.16-5 .75-7.2a7.88 7.88 0 0 0-.09-7.23 1.1 1.1 0 0 1 0-1c1.46-1.69 1-3.71.94-5.6 0-1.43.7-3.16-.54-4.23-1.4-1.19 1.6-2.62-.42-3.53.48-1.76-.79-2.67-1.74-3.8a3.06 3.06 0 0 1-.24-1.87 2.58 2.58 0 0 0-.84-2.17 9 9 0 0 1-2.26-4.57c-.31-1.3-1-3-2.06-3.54-2.59-1.32-4.22-3.57-6.23-5.44a9.15 9.15 0 0 0-3.66-2c-1.52-.47-3.24.25-4.84-.42s-2.78.4-4.09.88c-.48.18-1 .44-1-.09-.05-1.84-.52-.77-1.53-.62-3 .44-2.94 4-5.51 4.67.14 1.48-1.67 2.45-1 4.09.27.69-.34 1.15-.7 1.7-.86 1.28-1.24 2.8-2 4.16-.66 1.1-2 2.47-1.18 3.94s-2 2.77-.11 4.18c-1.58 1.08-1 2.75-.87 4.1.19 1.74-1.94 3.26-1 4.5 1.27 1.6-.64 2.5-.15 3.78.26.71-.14 1.61.68 2.23.62.48.59 1.56 0 1.61-2.11.17-1.89 1.72-1.56 2.79a5.21 5.21 0 0 1-.84 4.91 4.94 4.94 0 0 0-1.22 2.46c-.12 4.91-3.29 8.64-4.87 13-.5 1.35-2.27.57-2.31 2.53a10.38 10.38 0 0 1-2.75 6.32 16.11 16.11 0 0 0-2.95 5.73 11.74 11.74 0 0 1-1.41 3.46c-1 1.51-1.38 3.42-2.68 4.88-.63.7 1.17 1.74.67 1.81-1.58.2-1.48 2-2.5 2.28s-1.44.29-.51 1.36a2 2 0 0 1-.16 2.67c-2.5-2.33-1.08 1.94-2.47 1.47.09 2-2.44 2.48-2.51 4.47a6.13 6.13 0 0 1-2.6 4.3c-1.82 1.54-1.54 4.16-3.3 5.67-1.28 1.09-.89 3.29-2.62 4.13-2 1-1.65 3.1-2.33 4.72a14.62 14.62 0 0 0-.77 1.69c-.31 1.08-2.54 1.5-1.07 3.22a13.66 13.66 0 0 0-2.63 3.91c-.56 1.31-.86 2.65-1.94 3.72-.26.25-.36 1.16-.19 1.27 1.73 1.19.26 2.13 0 3.27-.35 1.35-.29 2.71-.92 4.13s-3.84 2.4-1.24 4.66c-2.18 1.13-.79 3.84-2.26 5.22-1.18 1.11-2 2-.14 3.21.61.38.28.72-.08 1.06a6 6 0 0 0-1.37 1.43c-.19.4 1.45.66.51 1.36-1.55 1.16-1.74 2.65-1.58 4.37.1 1.14-.34 2.7.26 3.35 2.18 2.39-2.2.67-1.32 2.35.57 1.1-.42 2.68.39 3.83a3.33 3.33 0 0 1 0 4.43c-.49.61-.11 1.1 0 1.73a4.17 4.17 0 0 1-.22 3.55c-1.05 1.61 1.39 2.84.89 4.52a4.34 4.34 0 0 1-.36.86 6.93 6.93 0 0 0-.16 6c.21.59.87 1.3.36 1.68-1.52 1.12 1.65 3.07-.79 3.87A5.88 5.88 0 0 0 397 671c-1.54 1.56.36 3.06.07 4.68-.32 1.78 0 3.66-.1 5.49-.13 1.65.6 2 2 1.83.87-.08 1.17.24.48 1s-2 1.27-1.41 2.36c2 3.67 2.25 8.09 5.15 11.4.77.89 2.52 2.08.85 3.85-.33.35.06 1 .84 1.39 2.58 1.28 4.68 3.05 4.1 6.41-.17 1 .46 1.5 1.05 2.07a5.62 5.62 0 0 1 1.95 4.19c0 .51.07 1.21.53 1.23 2.75.09 3.35 2.14 4.16 4.16a3 3 0 0 0 1.74 1.71c1.71.32 1.93 1.91 2.86 2.7a19.76 19.76 0 0 1 4.47 5.65c.62 1.12 2.62 1.48 2.92 2.21 1.16 2.74 3.3 4.39 5.39 6.19a2.26 2.26 0 0 1 1 1.6c.11 1.33 2.19 1.55 2 3.17 3.57 1.8 5.42 5.7 8.83 7.48 1.33.7.91 1.84 1.85 2.48s2.73.59 3.12 2 1.06 2.69 2.8 2.75c.94 0-.39 2.44 1.4 1.36 1.22-.74 1.26.52 1.76.87.8.57 1.36 1.49 2.16 2.06 1 .72 2.42 1 3.1 2.15s2.17 1.31 3.11 2.13 1.8 2 2.87 2.77 2.28 1 3.33 1.6.59 2.59 2.61 2c2.35-.68-1.31 2.27 1.17 2.05 1.3-.11 1.95 1.61 2.92 2.47 1.36 1.23 2.4 3.1 4 3.73s1.94 2.47 3.67 3c1.43.46 2.07 2.37 3.44 3.44 3.16 2.47 6.55 4.87 8.14 8.89a2.67 2.67 0 0 0 2.39 1.43c1.27.13 2.46-1.3 3.32-.51 1.63 1.49 2.2-1.16 3.44-.58 1-1.59 2.43.11 3.61-.45.16-.08 1.13.75 1.64.25.91-.87 2.52-1.72 3.07-1.38 1.61 1 2.47-1.46 3.88-.52.11.08.89-.81 1-.74 4 2.87 7.94-2.14 11.92-.16 1.06-1.67 2.1-1 3.2 0a1.06 1.06 0 0 0 .89-.1c.85-3.19 2.59-1.77 4.27-.9a.92.92 0 0 0 .86-.23c.7-1 2.22-.58 2.79-1.73 1.07 2 2.23 0 3.16-.15 2.58-.41 4.88-2.08 7.69-1.92.65 0 1.16-.87 2.07-1 1.06-.19 1.52-2.44 3.21-1 1.13-1.51 2.75-.66 4.15-.84 1.06-.14 2.43.39 2.32-1.58 0-.47 1-.65 1.22-.41 1.17 1.45 1.9.46 2.54-.43.83-1.15 1.23.5 1.77.22 1.11-.57 1.9-1.75 3.5-1.23s1.78-2.22 3.5-1.59 2.68-.83 4-1.26c.7-.23 1.32-.9 2.18-.73 3.09.6 5-2.85 8-2.35 1.06-1.53 2.82-1.29 4.23-1.86s2.79-.4 4-1.3a54.51 54.51 0 0 1 13.06-7.08c2-.81 3.45-2.77 5.82-2.84.75-2.6 3.35-3 5.24-4.09a17.4 17.4 0 0 0 4.44-3.66c.65-.75.76-1.76 2.07-2.13 1-.28 1.73-1.5 2.49-2.38s1.72-1.34 1.93-2.72 2 1.41 2.3-.52c.39-2.38 3.19-2.44 4.06-4.74.8-2.14 3.33-3.62 5.09-5.38.48-.48 1.15-.86 1.39-1.43 1.33-3.2 3.89-5.44 5.91-8.09 1-1.37 3-2 3.27-4 0-.46 1.24-.58.4-1.42-1.71-1.71-3.59-3.56-5.88-3.83-1.92-.23-3.51-1.4-5.57-1.27-1.8.12-3.16-2.44-5.14-1.82-2.48.77-3.36-1.62-5.18-2.11a29.27 29.27 0 0 1-8.73-4.31c-1.29-.87-2.42-2.33-3.9-2.53a13.73 13.73 0 0 1-3.06-1.14 20.56 20.56 0 0 1-2.93-1.38c-1.09-.61-3-.89-3-2.11 0-2.52-1.32-.45-1.89-.76-1.11-.6-1-2-1.77-2.76a4.79 4.79 0 0 0-1.11-1c-3.25-1.7-6.36-3.53-8-7.1-.42-.91-4.19-3.55-5.28-3.87-.51-.14-1-.23-1.07-.75-.44-2.15-2.66-2.84-3.65-4.49-.62-1-2.89-.32-2.38-2.43.42-1.74-2.47-1.13-2.25-3 0-.43-.8-1.25-.74-2.13.08-1.29.4-1.31 1.31-.46a1.2 1.2 0 0 0 2-.59c.54-1.65 2.16-2 3.19-3.09 1.27-1.28 2-3.17 3.82-3.83s2.47-3 4.58-3.21c.54 0 1-.17 1.11-.68.36-1.79 1.7-2.52 3.1-3.4s2.25-2.16 3.67-3c1.75-1 3.81-2.33 4.63-4 1-2.13 2.65-3 4.45-3.84.61-.29 1.12-.28 1.2-1.14.12-1.44 2-.67 2.47-1.88a5 5 0 0 1 2.14-3 8.23 8.23 0 0 0 4.2-4.65c.45-1.55 2.57-2 2.12-3.62-.6-2.19 2.4-1.49 2.48-3.48 0-1.1 1.88-2.21 3-3.17s1.42-2.09 2.15-3.11-.25-2.78 1.36-3.44c-.84-2 2.89-1 2.07-3.07 2.14-2 3.47-4.53 4.88-7s4.28-4 4.31-7.21c3.35-1.52 2.92-6.33 6.59-7.59a35.12 35.12 0 0 1 7.81-9.75c.88-.81 1.16-2.56 1.76-2.65 1.54-.21 1.61-1.35 2-2.22.62-1.42 1.6-1.71 3-2.26 2-.76 4.72-1.58 4.67-4.83a2 2 0 0 1 2.34-2c2.7.2 4.48-1.38 6.21-3.12 1.93-1.93 3.64-4.18 6.48-4.86.74-.18 1-.77 1.52-1.16 1.15-.9 1.9-2.9 3.3-2.75 2.68.28 1.82-1.6 2.26-2.77.22-.59.88-.27 1.34-.36.78-.14 1.64.36 2.35-.35 1.71-1.72 3.78-3.09 5.48-4.72 2.4-2.3 3.35-6 6.65-7.59.82-2.71 3.18-4.27 5.19-5.73a7.3 7.3 0 0 0 2.52-3 8.07 8.07 0 0 1 2.63-3.38c2.61-2.06 4.16-4.88 5.57-7.72s3.38-5.63 4.53-8.62 2.94-5.84 2.61-9.46Zm-220.86-55.7c.56.54.9 1.1 0 1.4-2.1.74-3.16 3.4-4.92 3.65-2.31.33.32 2-1.13 2.27a10.13 10.13 0 0 0-3.33 1.56c-1.26.8-2.57.22-3.85.36s-1.57 1.12-2.26 1.75a8.45 8.45 0 0 0-1.12 1.85A7.21 7.21 0 0 1 500 463c-.08-.8-.13-1-1.07-.56-2.7 1.33-2.94 1.25-5.45.53-.45-.13-1.26.22-1.31-.37-.17-2.21-3.07-2.7-3.11-4.69s.64-4.12 2.93-4.92a2.69 2.69 0 0 0 2-1.92c.33-1.53 1.07-1.41 2-.62.45.39.72.45 1.07 0 .9-1.21 1.78-1.88 2.85-.12.4.66 1 .9 1.1-.23s.88-1.44 1.6-.94 1.59 1.28 2.12.76c2-1.88 4.71-.13 6.83-1.77a5.7 5.7 0 0 1 4-1.26c2.78.27 3 .19 1.88 3.13-.28.66-.7 1.2-.16 1.72Zm127.84 86.89c-.55.36.09 2.35-1.8 2.65-.6.1 1.31 1.32-.11 2.07a8.59 8.59 0 0 0-1.79 1.73 9.43 9.43 0 0 0-2 2.15c-.33.7.7 1.68-.5 2.5-.86.59-2 1.25-1.9 2.69 0 .13-.4.29-.62.43a5.3 5.3 0 0 1-.4-.85c-.16-.61.25-1.27-.35-1.86s-1.25-1.49-2.17-.17c-.49.7-1.11 1.88-1.62-.28a4.36 4.36 0 0 0-3.16-2.77c-.6-.16-2.5-.71-.91-2.3.31-.31-.46-.47-.86-.64-1.42-.65-3-1.15-4-2.48a1.91 1.91 0 0 0-.79-.48c-1.1-.48-2.07 2.57-3.1.25a3.43 3.43 0 0 0-2.14-2.29c-1.54-.53-2.54-3-4.67-1.21-.53-1.67-3.58.42-3.55-2.42 0-.44-1.79-1.08-2.82-1.29-1.3-.28-3.1.55-3.2-1.82 0-.09-.74-.32-.85-.21-1.54 1.55-1.54-.47-2.29-.8-1-.43-1.43-.71-1.74-1.8s-1.31 1.37-2.09-.12c-.32-.61-1.37-.52-2.07-1s-1.88-.22-2.85-.3-.91-.14-2-2.59c-.38-.89-1.17-1.8-2.5-.59-.33.29-.84-2.07-2.4-1.27-1.26.64-1.54-.74-2.07-1.28-.89-.92-1.52-1.25-2.63-.32-.36.3-2.51-1.05-4.29-2.54-1-.86-2.35-.29-3.55-1.24s-1.75-.58-1.08-2c2.11-4.45 5.14-8.28 8.16-12.11a77.26 77.26 0 0 1 6-6.92c1-1-.17-2.73 1-3s1.62-.71 1.55-1.89a1.82 1.82 0 0 1 .51-1.26c2.93-2.78 4.4-6.51 6.37-9.89a13.28 13.28 0 0 1 2.12-2.59 6.29 6.29 0 0 0 1.85-3.7c.09-1.84 1.49-2.95 1.79-4.27.39-1.66 2.43-1.1 2.29-2.48s.9-2 1.32-3c.75-1.75 3.06-2 3.42-3.47.47-1.86 2.58-2.44 2.66-4.44.07-1.74 2.6-1.92 2.73-3.77 3.07-1.37 3.46-5.14 6-6.88 2.26-1.56 3.33-3.88 4.9-5.91s4.33-3.51 5.45-5.77c1.56-3.15 4-5.63 5.64-8.65a98.36 98.36 0 0 1 6.19-8.95c1.74-2.45 3.49-4.9 5.32-7.28.49-.63.29-1.23.43-1.84 1-4.43 4.28-7.52 6.67-11.13 1.66-.14 1.52-2.6 3.32-2.56-.63-1.93 2.73-1.11 2.1-3 2.1.11 3.28-1.76 5-2.35.77-.26 1.18-.94 2-1.15s1.76-1.3 2.72-1.86c.37-.22 1 .09 1.47-.07 1.08-.38 2.1 1.86 3.17.06 1 1.13 2.62 1.11 3.63 2a7.14 7.14 0 0 1 1.78 3.06 10.19 10.19 0 0 1 .06 3c0 3.82-1.11 6.16-4.67 6.7a3.58 3.58 0 0 0-3.18 2.77c-.52 1.76-1 1.92-2.21.86-.58-.5-1.69-.51-1.63-.16.54 3-2.2 2.47-3.51 3.42a2.17 2.17 0 0 0-.8 2.18 2.41 2.41 0 0 1-1 2.6c-1.11.69-.88 1.36-.08 2.19.24.25 0 1.34-.38 1.22-2.53-.75.13 2.11-1.65 2.24-1.44.1-1.34 2.25-2.56 3.13s.32 2.7-.79 3.61c-1.46 1.2 1.14 3-1.06 4.36-1.32.78 0 3.21-.6 4.64a9.21 9.21 0 0 0-.87 5.11c.24 1.47-1.17 2.22-1.1 3.6.06 1.09.59 2.42-.37 3.31-1.27 1.16 1.38 1.71.28 2.81-.68.68-1.76 1.14-1.83 2.22-.12 1.65-3.68 2.46-1.14 4.71-1.21.53-1 1.92-1.69 2.83-1.61 2.07-3.31 4.24-3.2 7.15a1.64 1.64 0 0 1-.4 1.34c-2.7 2.82-3.36 6.59-4.6 10.09-3.45 2.4-3.45 7-6.33 9.77-.66.63-.48.87 0 1.47s.59 1.77-.59 1.68c-2.06-.16-2.78 1.49-4 2.47 2.33 2.09-1.14 1.23-1.08 2.13a3.52 3.52 0 0 1-1 3.1 7.27 7.27 0 0 0-1.88 3.18c-.25.91-1 1.27-1.3 2s-2.6-.73-1.18 1.45c.79 1.2-1.68.26-1.58 1.4.14 1.68-1 1.38-2 1.34-.59 0-1.16.35-1 .73.88 2.32-2.22 2.15-2.36 4s-2.31 2.24-3.38 3.48a29.14 29.14 0 0 0-3.59 5.51c-.38.72-1.23 1.31-.38 2a2.19 2.19 0 0 0 1.85.21c2.68-1 5.76-1.87 6.66-4.85.44-1.45 2.92-.59 2.15-2.54s2.28-1 2-2.59c-.14-.82.6-1.28 1.08-1.51 3.38-1.59 4.89-4.86 6.48-7.79.74-1.35 2.68-1.62 2.65-3.89 0-1.52 2-3.05 3.09-4.62s1.58-3.13 2.75-4.33 2.38-2.22 2.9-3.74 2.87-2.45 2.08-4.64c2-1.83 3.28-3.95 3-6.78 1.88-.76 1.6-2.54 2.21-4a33.91 33.91 0 0 1 2.31-4.53c.79-1.28 1.06-2.65 1.66-3.82.75-1.45-.29-3.86 2.38-4.55 1.06-.27-.13-2.48.52-3.13a7.26 7.26 0 0 0 2-5.24c.08-1.68 1.25-3.25.91-5.1-.2-1.1.47-1.26 1.45-1.39.66-.09.82-1.07.33-1.59-1.27-1.37-.89-2.4.05-3.86.53-.83 1.42-2.16.24-3.64-.9-1.13 1.08-2.13 1-3.53-.15-1.91 1.18-6.89 2.39-8.13 1-1 .15-2.18 1-3.15 1.8-2.16 1.51-5.59 4.28-7.21-.71-3 3.66-2.8 3.49-5.47 0-.11.22-.23.34-.34 2.52 3 3.35-1.1 5.13-1.44a8.92 8.92 0 0 0 5.24-2.93c.18-.23.63-.57.67-.53a6.89 6.89 0 0 0 4.23 1.93c1.87.1 2.33 1.44 2.24 3.12 0 .82 1.05 1.1 1.05 2.09 0 .72 1.15 1.15.11 2.3a2.79 2.79 0 0 0 .48 3.59c.5.41.46 1.23.31 1.31-1.89 1.05.79 2.28-.12 3.14-1.1 1.06-.9 1.68 0 2.86s-1.75 2.37-.82 4c-2.27 2.53-1.3 6.07-2.76 8.86-.34.65.28.66.74.72.3 0 .71.13.84.34.56.93-.28 1.4-.67 2.08a3.84 3.84 0 0 0-.14 1.93c0 .61 1.64.92.33 1.82-.41.28-1.05.73-1 1 .41 3.8-2.7 6.76-2.37 10.57.27 3.08-.18 6.08-2.62 8.4a1.08 1.08 0 0 0 0 1.7c.29.3.91.79.16 1-3.11 1-2.27 4.47-4.13 6.26-.57.55.59 1.53-.28 2.59-.49.6-.61 2-1.06 3-.35.83-.47 1.77-.79 2.67s-1 1.91-1.38 2.94a41.28 41.28 0 0 1-3.81 7.89 12.77 12.77 0 0 1-1.67 2.83c-1 .92.29 2.82-1.43 3.4s.33 1.86-.48 2.47c-1.11.82.15 2.35-1 3.08-1.73 1-1.49 2.76-1.46 4.39 0 1.15 0 2.12-1.41.75-.27-.26-.57.44-.6.92-.11 1.58-.6 1.4-1.84 4.65-1 2.72-2.72 4.88-4.08 7.32a38.82 38.82 0 0 0-3 7.74c-.43 1.43-1.63 2-2.4 3a10.92 10.92 0 0 1-1.76 1.77c-.78.63-1 1.17 0 1.78-.15.21-.37.63-.45.61-3.57-1.1-1.82 2.75-3.31 3.71Zm-191.39-41.7c2-1-.63-2.88 1.12-3.34-.17-.68-1-.68-.59-1.36.68-1.21 2.21-2.54 1.61-3.71-.81-1.59 2.08-2.46.34-3.82a.35.35 0 0 1 0-.34 21.69 21.69 0 0 0 3.2-7.18 1.61 1.61 0 0 1 1-1c.51-.11.54.49.62 1 .15.91 1.1 1.44 1 2.59a13 13 0 0 0 .86 6.61c.52 1.09.06 2.63.1 4s-.4 3.31.31 4.32c1.08 1.52-1 2.14-.38 3.37a2.09 2.09 0 0 1-.58 2.22 75.76 75.76 0 0 1-8.37 8.34c-.34.28-.54.49-.71.22a3.23 3.23 0 0 1-.28-.88c-.27-1.09.43-1.8 1-2.59s-1.55-1.31-.44-2.35c.79-.74.31-1.3-.11-2.09-.67-1.37-1.14-3.28.3-4.01Z"/><path d="M504.24 596c-.81 0-1.87-.6-2.3 1-.57 2.07-2.41 3.75-2 6.19a2.18 2.18 0 0 1-.45 1.81c-.65.85-1.47 1.91-1.43 2.85.06 1.62-1 2.28-1.75 3.33-.58.83 1.1 1.38.32 2.81a32.81 32.81 0 0 0-2.62 7.89c-.41 1.63-.76.62-1.42.29-.49-.25-.86.59-.6.83 1.76 1.62.16 3.17-.07 4.7a13.11 13.11 0 0 1-1.24 4c-.63 1.2-1.46 2.79-2.56 3.16-1.8.6.57 2.6-1.34 2.83a1.92 1.92 0 0 0-1.84 2.64c.28 1.26-.29 1.85-1.61 1.67-.49-.07-1.12-.1-1.3.44-1.12 3.34-4.38 4.8-6.39 7.35-.85 1.08-.76 2.14.4 2.78 1.94 1.07 5.22.63 5.76-1.4.63-2.36 2.58-.43 3.54-1.85s-.23-3.48 1-4c2.89-1.32 3.73-4 5.41-6.18s2-5.08 4.19-6.88a3.9 3.9 0 0 0 1-2.53c.41-5.23 2.88-9.88 4.73-14.55 2-5.16 1.93-10.49 3.31-14.71v-2.91c0-.66.17-1.56-.74-1.56ZM689.34 541.81c.89.76.5 2.4 1.76 2.74 2 .55-1.23 2.36.79 3 .31.09 0 1.62 1.28 1.49a2.44 2.44 0 0 0 2.79-2.54c0-1.11.34-2.24-.3-3.36-.42-.72-2.28-.77-.89-2.52s-1.65-1.3-1.6-2c.3-3.48-3.18-2.86-4.59-4.45-.44-.49-1.14-.07-1.68.42-.72.64-.4 1-.17 1.82.56 1.98.96 3.98 2.61 5.4ZM684.07 551.29c-.09.37.72 1.33 1.18 1.38 1 .11 1.6 1.47 2.73.84S689 552 689 551c.08-1.38-1.45-2.75 0-4.14a6.84 6.84 0 0 0-.41-1.8c-1-2.15-2.72-3.55-4.26-5.17-.57-.6-1.19-1.3-2-.63-.58.48-1.43.9-1.33 1.91a18.27 18.27 0 0 0 .35 1.82c.65 2.82 3.53 4.94 2.72 8.3ZM615.19 459.63a33.49 33.49 0 0 0 3.72 1.78c.86.4 2.46-.45 2.44 1.44 1.1-1.44 2.23 0 3 .27a7.57 7.57 0 0 1 2.84 2.66c.95 1.25 2.15 1.32 3.79 1.18.44-.14 1.59.47 1.9-.46a2.29 2.29 0 0 0-.56-2.69c-1.59-1.28-2.07-3.64-4.76-4-1-.13-2.45-1.49-3.58-2-1.82-.88-3.88-3.11-6.36-1a1.32 1.32 0 0 1-1.28 0c-1.12-1.45-1.67-.06-2.11.5-.84 1.11.23 1.85.96 2.32ZM651.67 481.28c1 1.65 2.82 2.59 3.3 4.5.17.67.18 1.38 1.07 1.2 1.39-.28 2.11.61 2.9 1.45.18.19.48.44.69.41.69-.1 2.41-2.69 2.37-3.47 0-.32.07-.8-.1-.93-1.84-1.4-2.53-3.85-4.26-5.15a40.22 40.22 0 0 0-7.66-4.24c-1.46-.66-2.57.91-3.84 1.42-.4.16-.28 1.29.49 1.51 2.05.58 3.99 1.5 5.04 3.3ZM612.34 467.77a10 10 0 0 0 3 1.2c.6.18.84-1.54 1.84-.38.6.68 1.73.54 2.41 1.4a5.7 5.7 0 0 0 5.1 2c1.2.21 2.1-.73 3.08-.9 2.35-.41.37-1.06.3-1.68-.37-3.4-3.82-2.88-5.57-4.49-.63-.58-1.1-1.18-1.77-.12-.92-1.05-2.64-.33-3.32-1.09-1.26-1.42-2 1-3.25.06-.93-.71-3.17.67-2.81.92 1.21.85.06 2.41.99 3.08ZM654.27 473.61a8.4 8.4 0 0 0 3.39 1.46c1.52.19 3.86.92 3.9 2.17.12 3.16 2.86 3.53 4.35 5.17.32.34.84.79 1 .11.34-1.35-.49-3 1-4-1.42-1.51-3.38-2.68-3.22-5.18a1.2 1.2 0 0 0-.83-.27 3.71 3.71 0 0 1-3.42-1.25c-1.59-1.68-3.27-2-6.22-1.56-.13 0-1.84-.91-2 .4-.11.87 1.07 2.34 2.05 2.95ZM452.87 436.8c-.49 1.3 1.38 1.84 2 3a7.11 7.11 0 0 0 2.84 3.21c1.47.68.51 3.1 2.68 3 .67 0 .87 1.06.42 1.55-1.34 1.4-.5 1.46.73 1.31.49-.06 1.32-1.85 1.33 0 0 1.45 3.06 1.31 1.44 3.44-.27.34 2.25.75 2.55 2a9.66 9.66 0 0 0 1.86 3.72c1.09 1.4 2.28 2.66 2.26 4.58s2.47 2.17 2.28 4c2.69 1.11 3.35 3.85 4.62 6 .48.82.71 1.17 1.62 1.27.5.06.58.77.46 1.25a.94.94 0 0 1-1.1.69c-3.27-.14-5.94-1.34-7.64-4.28-.38-.66-.31-1.5-1.05-2.07a16 16 0 0 1-5.27-8.3c-.57-1.88-2.93-2.28-3.08-4.7-.1-1.87-2-3.39-3-5.17s-2.95-3.12-4.48-4.66c-.46-.47-1.24-.94-1.27-1.45-.13-2.1-.7-.9-1.58-.43-2.22 1.18-2.32 1.12-3.45-.92-.5-.9-.64-2.08-2.12-1.44s-1.33-1-2.12-1.31-1.23.54-1.36.87c-.67 1.69-.61 3.86-3.17 4.15-.14 0-.21.87-.25 1.34s.05 1.2-.47 1.25-.58-.62-.54-1.12c.09-1.1 0-2.07-1.52-1.76a2 2 0 0 1-2.32-1.46c-.58-2.26-2.22-4.18-2.15-6.62 0-1.52 0-2.94-1.45-3.92a1.46 1.46 0 0 1-.52-1.23 7.65 7.65 0 0 0-.63-5.95 52.36 52.36 0 0 1-2.17-6.09c-.1-.3-.31-.67-.21-.89.46-1 1.67-2.2.9-3-1.82-1.95-2-4.57-3.32-6.65-.59-.92-1.24-1.48-2.79-.65-3.79 2-7.89 1.88-12 .54-.46-.15-2-2.59-1.92.45 0 .59-.6.17-1-.06-3.85-2.2-7.45-2.17-10.92 1-1.11 1-2.87 1.27-4 2.23-.88.74-2.49 1.07-2.69 1.74-.73 2.43-3.17 3.28-4.27 5.25A17.4 17.4 0 0 1 374 429c-.89.26-.89.69-1 1.35s-.69 1-1.05.67c-1.71-1.63-2.33.16-3.35.9-.42.3-.52 1.41-1.38.81-2-1.42-4.53 1.78-5.61.13-1.54-2.37-2.46-.69-3.63-.22-.34.14-.63.46-.7.15-.69-3.41-2.14.28-3.17-.32-.13-.07-.56.83-1 .14-1.83-2.71-5.77-1.88-7.61-4.56-2.44-.25-3.08-3.26-5.51-3.63a1.27 1.27 0 0 1-.92-1.55c.68-1.91-2-3.63-.27-5.57-1.27-1.62.3-2.54 1.12-3.19 2.25-1.78 3.64-4.38 6-6.06a12 12 0 0 0 1.66-1.15c1.95-2 5.17-2.73 6-5.9a1.52 1.52 0 0 1 1.56-1c.3 0 1.22-.15.48-.77-1.45-1.21-.14-1.89.31-2.85s-.6-2.16 1.44-2.5c1.27-.21-1-1.23-.4-2.16s2.6-.55 2.07-2.6a3.3 3.3 0 0 1 .87-3.62c.87-.76-1.27-1.48-.51-2.33a2.28 2.28 0 0 0 .53-2.27c-.63-2.28-1-4.44.93-6.33a1.34 1.34 0 0 0-.2-1.28c-1.06-.76-.61-1.81-.68-2.75a7.62 7.62 0 0 1 0-2.48c.24-.87-2-1.34-.29-2.29-1.57-2.21 1.93-2.65 1.64-4.55 0-.35.67-1-.11-1.39a2.84 2.84 0 0 1-1.16-3.89c1-1.64-.83-3.37.79-4.91.9-.85-1.2-2.11-.84-3 1.75-4.3.46-9.24 2.82-13.31.74-1.28-.77-1.57-.48-2.85.61-2.77 2.22-5.17 2.56-8 .16-1.33 1.91-.74 2.24-2.54a15.36 15.36 0 0 1 3.9-7.27c1.67-1.78 2.45-4.64 5.43-5.19 1.32-.24-1.66-1.37.2-1.91a11.16 11.16 0 0 0 3-1.26 19.12 19.12 0 0 0 2.15-2.08c1.51-1.36 3.76-.08 5.39-1.55.55-.5 2 0 1.74-1.56 1.24.31 1.86-2.21 3.51-.63.9.87 1.5-.88 2.51-.94 1.28-.07 2.77.65 3.82-.36 1.28-1.25 1.64 1.14 2.89.48 1-.56 2.65.48 3.64-.9a1.68 1.68 0 0 1 .67.38c1 1.11 1.89 2.21 3.57.51.87-.88 2 2 3.78.23 1.32-1.3 1.93 1.31 3 1.55 1.54.32 2.87 2.4 4.8.53.78-.76 1.46.67 1.63 1.1.36.92 0 1.95 1.57.75.82-.62 2.49-.89 2.74 1.32a1.28 1.28 0 0 0 2.43.48c.16-.21.95-.15 1.3.36 1.83 2.69 4.89 3.52 7.64 4.44 1.43.48 2.56.64 3 2.17 1.61-.6 2.79.64 4 1.23.76.37.68 2.13 2.36.88.43-.32 2.5.52 2.77 1.22.86 2.25 4.31.67 4.66 3.42 0 .16 1.19.18 1.83.25s1.36-.21 1.8.47c1.81 2.85 4.77 4.12 7.6 5.6.08 1.73 1.57 1.08 2.42 1.55a4 4 0 0 1 2.21 3c.07.58 1.15.14 1.27.39.81 1.68 2.84.35 3.85 1.71a8.7 8.7 0 0 0 3.39 2.6c1.34.66 2 2.62 4 .73.78-.74 1.7 1.13 2.95 1.16.58 0 1.22 1.24 2 .52s-.83-.86-.52-1.35a1 1 0 0 1 1.66-.07c.49.54 1.31 1 1.66.58 1-1.26 2.24-1.3 3.59-1.54.72-.13 1-1.54 1.9-1.34 1.59.33 2.55-1.54 4.09-1s2.23-1.39 3.58-1 1.83-1.9 3-.82 1.92 1 2.81-.13c.33 2.44 3.21 1.4 4.1 3a3.59 3.59 0 0 1-.12 4.06c-.49.72 1 1.77-.37 2.57-.29.17.07 1 .84 1.37a12.42 12.42 0 0 1 5.54 5.8c.62 1.3 1 2.36-.22 3.44a2.69 2.69 0 0 0-1.23 2.5 2 2 0 0 1-1.66 2.13c-2.54.55-3.62 3-5.74 4.07-1 .51-3.07 1.52-4.56 1.46a5.48 5.48 0 0 0-3.41.6 4.33 4.33 0 0 1-2.63 1c-1.46 0-3.29-1.79-4.39.78-.12.27-1.29.33-1.85.13-.78-.27-1.49-1.42-2.19 0-1 2-4 1.68-4.53 4-.43 1.84.86 4-1 5.6a1 1 0 0 0 .06.92 2.17 2.17 0 0 1 .71 3 8.15 8.15 0 0 1-2.87 2.56c-1 .53-3.09.27-2.95 2.39 0 .11-.21.33-.34.34-1 .07-2 .12-2.94.14a21.24 21.24 0 0 0-3 .05c-.83.15-1.39 1.69-2.46.66-1.42-1.36-2.62 1.6-3.74.22-1.28-1.58-2.08-.31-3.26 0a11.89 11.89 0 0 1-4.89-.13c-.68-.13-1.32-1.3-1.33.35 0 2.17-1.49 3-3.09 3.9-2.07 1.15-4.14 2.22-6.6 2.16-.33 2.14-1.91-1.14-2.33.54s1.22 1.3 1.88 1.57c1.57.64-.34 2.32.89 2.67a3.24 3.24 0 0 1 2.28 2.16c1.74 3.93 4.55 7.19 7.21 10.47 1 1.22 1.23 3.39 3.38 3.56-.23 1.87 2.57 1.51 2.55 3.41 0 .23 1.67 1.72 3 .77.79-.58.76.18.81.51a3.66 3.66 0 0 0 2.41 2.88c2 .45 1.65 1.67 1.58 2.87s.65 2.55-.42 3.27a21.73 21.73 0 0 1-4.62 2.1c-.26.1-.77-.44-1.17-.69-1.54-.95-2.18.52-2.68 1.3s.09 1.38 1.22 1.49 1.19 1.66 1.32 2.26c.36 1.59 1.33 2.42 2.34 3.5 3.38 3.61 5.44 8.22 9 11.82a56.59 56.59 0 0 1 4.63 5.54c.89 1.19 1.1 2.8 2.06 4.16a15.31 15.31 0 0 0 3.49 3.55c1.41 1 1 1.9.64 2.81-.44 1.13-2.6 1.85-3.34 1.15-1.55-1.46-3.35-2.88-4.31-4.7a43.84 43.84 0 0 0-6-8.5c-.67-.77-1.36-1.42-1.11-2.55a.82.82 0 0 0-.7-1.07c-.76-.17-2.17.28-2.14-.51s1.61-1.39-.52-1.59a2.43 2.43 0 0 1-1.55-1.69c-.18-1.17-1.14-1.55-1.67-2.33s-1.22-1-1.46-1.9c-.49-1.93-2.73-.57-3.72-1.73-2.77 2.94-4.89 0-7.24-.79-.14-.05-.24-.23-.36-.35-.58-.54-1.06-1.46-2-1.1s-.44 1.47-.7 2.83Zm57.56-100.74c.57-.56.48-1 .11-1-2.13.16-3.88-1.77-6.06-1-.42.14-.24.53-.29.68-.41 1.28-.58 1.39-.81 1.11-1-1.17-1.84-1.07-2.8.07-1.87 2.2-5.11 1.2-7.23 2.93-.05 0-1.14-1.3-2-.65-1.14.89-1.91 2.14-3.76 1.9-1.17-.16-2.44-1.68-3.66-.08-2-1.59-5.18-.35-6.75-3.17-.62-1.11-2.24-1.61-3.67-1.83-.47-.07-1 .15-1.37-.32-1.16-1.31-1.88-3-4.09-3.27-1.05-.14-2.09-1.63-2.8-2.72-.9-1.37-2.37-.38-3.53-1.3-3.38-2.69-6.21-6.5-11.22-6.44-.35 0-.71-.66-1.07-1-1.05-1-1.84-2.37-3.69-2-1.2.25-1.43-3.05-3.25-1-.94-1.14-2.44-1.36-3.55-2.38-1.93-1.77-5-1.73-7-3.61-2.43.72-3.56-1.14-5-2.46-.68-.64-1.15-1.45-2.35-1.59-4.18-.51-8.37-1.14-11.94-3.72-.61-.44-1.1-.05-1.72.19-1.19.46-2.58-.76-3.8.28-1.48-1.16-2.82-.55-4.46-.21-1.14.24-2.9-.48-4.42-.48-.32 0-.83 0-.92.14-.59 1.16-2.06.7-2.86 1.7s-2.08-1.74-3.06.15c-1.65-.24-3.25.9-4.56.78s-1.86-.37-2.31 1c-.18.57-1 .89-1.34 1.45-.74 1.35-2.66.09-3 1.07-.76 2.22-2.93 2.81-4.14 4.26-2 2.43-3.45 5.33-5.8 7.53a1.35 1.35 0 0 0-.32 1.36 3.86 3.86 0 0 1-1.37 3.47 12.37 12.37 0 0 0-1.65 3.29c1.79 1.06.23 2.78-.1 3.05-1.51 1.28.62 2.26 0 3.25a12.8 12.8 0 0 1-2.14 3.09c-1.6 1.48 1.58 2.54.2 3.77s-1.08 2-.06 3.25c.47.6 0 1.92 0 2.91l-.33 4.53c1.39 2.3-.9 5.28 1.39 7.41-1.26.71-.59 2.2-1.15 3a6.94 6.94 0 0 0-.9 2.66c-.29 1.12-1.51 1.8-.15 3.32 1.06 1.18-.62 3.58 1.16 5-.9.55-.67 1.81-1.34 2.38-1.19 1 .34 1.23.4 1.86.13 1.36 1.87 2.55.76 4s-1.13 2.59.19 3.8c-1.38.94-1.77 2.59-2.73 3.83a1.11 1.11 0 0 0 .27 1.69c.52.41.4.78-.06 1.06-1.51.94-.94 2.74-1.57 3.83-1 1.72 0 4.88-3.28 5.16-.49 0-.49.69-.62 1.16-.69 2.46-2.62 4-4.37 5.68-2.43 2.31-4.35 5.31-7.94 6.13-.3 1.56-2.29 1.74-2.65 3.22-.4 1.65 1.2 2.17 1.89 3.21 1.26 1.88 3.36 2.26 5.16 3.24 2.13 1.17 3.72 3.48 6.63 2.52 1.85 2.14 4.95-.55 6.82 1.72.07.09.45-.65.52-1.14.05-.31.08-1.08.85-.42 1.38 1.19 2.68.88 3.75-.49a2 2 0 0 1 2.14-.85c1.58.36 2.43-.66 3.34-1.62.46-.47 1-1.38 1.41-1.32 2.29.42 3-1.8 4.52-2.46a6.48 6.48 0 0 0 3.28-3.64c1-2.47 3.62-3.19 4.82-5.39.43-.79 2-1.15 2.27-2.49 1.63.21 2.59-.88 3.83-1.68s2.86-.91 4.15-2.1c.95-.87 3.63-.86 4.1-.07 1.41 2.36 3 .59 4.47.76 1.28.15 3.08-.71 3.25 1.68 0 .42.39.35.69-.06a1.92 1.92 0 0 1 2.64-.46c2.79 2.21 4.65-.5 6.86-1.14.68-.19 1.14-.92 2.05-1.11 1.09-.23 1.86 1.5 2.32.64a5.38 5.38 0 0 1 1.75-1.74c4.18-3.36 8.11-7 10.6-11.94a9.72 9.72 0 0 1 4.12-3.64c1.35-.71 3.83.84 4.13-2 0-.05 1-.21 1.26 0 1.36 1.3 2.34.64 3.86 0 2-.81 3.61-2.61 6.07-2.34.61.07-.15-.68-.13-1a5.32 5.32 0 0 1 5.06-4.93c1.56-.12 3.24 1 4.36.49 2-.88 3.94.13 5.75-.59a5.7 5.7 0 0 1 4.51.13 2.33 2.33 0 0 0 1.86-.25c1.64-.87 3.53-1.22 4.92-2.66.34-.35 1.35 0 1.85-.26 1-.57-1.32-1-.21-1.73.61-.42.9-1.26.38-1.66-1.71-1.28.41-2.55.06-3.21-.91-1.65-.37-2.64.89-3.38s.72-3.23 3.26-2.92c1.46.18 2.2-2.2 4-2.38.44-.05.84-.4 1.29-.49 3.06-.64 6.12-1.38 9.18-1.91a23.39 23.39 0 0 0 14.14-8.16c.38-.44.61-1.06.37-1.31-1-1-1.6-2.56-3.32-2.62-1 0-2-.05-3 0-2.05.1-2.86-1.51-3.57-2.87-.58-1.1.2-2.24 1.23-2.91 1.26-.91 1.52-2.44 2.1-3.22ZM442.57 392c-.33 0-.88-.12-1 0-.73 1.33-3.84 1.54-2 4.1-.64 1.65-3.13.65-3.61 2.51-.05.16 0 .35 0 .5-.28.75 1.45.82.54 1.9s-1.41.78-2.15.09c-.48 2.23-3.05 2-4 3.23-.72 1-1.9 1.47-2.3 2.41-.26.6.95 1.75.8 2.51a3.57 3.57 0 0 0 1.23 3c.91 1.06-.18 1.87.25 2.62 2.11 3.73 2.2 8.05 3.54 12 1.38 4.12 1.69 8.55 3.05 12.72.15.44-.09 1.18.45 1.26s.68-.57.56-1.05c-.29-1.12.76-1.72 1-2.6s-.1-2 .94-2.61c-.77-.75-.72-1.27 0-2.18s-1.4-1.7-.87-2.48c1.44-2.12.76-4.41.93-6.62.06-.67 0-1.32 1-1.34s.86.62 1.09 1.24c.32.87 1.13 1.48 1 2.61a5.82 5.82 0 0 0 .68 4c-1.36 1.38.54 2.4.49 3.8a4.58 4.58 0 0 0 3.67 4.81c.36.08.87.9 1 .15.4-2.1.54-4.26.78-6.39-1.51-.14 1.55-2.55-1.11-2.21-.46.05-.52-.92 0-.89 2.1.11 1.18-1.44 1.5-2.37.57-1.68 1.51-1.84 2.66-.49 1.45 1.72 2.39 3.82 4.22 5.25.57.45 1.09.77 1.72.4a1.35 1.35 0 0 0 .32-1.79c-1.21-1.59-.39-3.64-1.09-5.05s-2.67-2.51-4.08-3.73c-.12-.11-.22-.25-.35-.35-.67-.52 0-1 .23-.88 1 .49 1.5-1.78 2.86-.27a4.66 4.66 0 0 0 3.42 1.3c1.52-.08 3.21-.69 4.64.86.59.63 1.41-.43 2-1 .77-.76.55-1.47-.2-2s-1.42-1.57-2.68-2a10.69 10.69 0 0 1-5.28-4c-1.79-2.58-3.87-4.94-5.48-7.69-2.39-4.06-5.25-7.84-8-11.67-.53-.86-1.14-1.82-2.37-1.61ZM551 535.78c-.08.79.28 1.68-.56 2.28-1.17.84-1.25 2.06-1.6 3.36-.3 1.1-.82 3.37-3.17 2.58-.71 1.17-1.23 2.61-3.09 2-1.55 1.81-3 .57-4.69.07-2.1-.63.66-1.19-.17-1.94-1.7-1.55-3.37-3.19-5.05-4.71a34.92 34.92 0 0 1-3.89-3.81c-.95-1.19-2.74-2.09-4-3.33-.9-.9-2.13-1.6-1.82-3.26.25-1.32-1.19-.72-1.64-1.23-.66-.75-2.21-1.33-.87-2.74.37-.39.56-1 0-1-1.79.09-2.92-.22-2.51-2.38 0-.18-.33-.52-.58-.67-5.14-3-5.09-3.07-8.65-7.71a18.56 18.56 0 0 0-3.64-3.25c-.31-.24-1.16-.3-1.05-.69.69-2.38-1.52-2.94-2.61-3.22-2.19-.57-2.36-1.32-1.5-3.16.34-.73-.14-.8-1-.5-2.25.79-3.71.39-3.81-1.23-.17-2.8-2.17-3.91-3.93-5.2s-2.65-3.12-4.58-4.15c-1.18-.62-.75-2.37-.37-3.56.23-.72 1.22-.41 1.8-.3 1.89.35 0 1.25.07 1.34a6.49 6.49 0 0 0 2.7 1.56c2.67.32 4.09 1.59 4.23 4.31 0 .32.15 1.06.86.38 1.17-1.1 1.67-1.05 2.22.75s2.56 2.38 3.89 3.48c1 .83.29.86.29 1.47 0 1.19 1 .86 1.57.26.7-.78 1-.19 1.45.19.71.55.58.85 0 1.46s-.59 1.4.55 1.79c.94.32 1.17-1.48 1.9-.65.44.51.1 2.07.45 2.2.95.34.22 3.67 2.53 1.45.29-.28 1.24.06 1.2.48-.21 1.95 2.3 1.56 2.61 3.39s5.07 6.41 6.83 6.87c1.54.4 1.71 1.09 1.62 2.33-.17 2.16.11 3.92 3 3.94 1.46 0 2.29 1.48 2.85 2.49.37.67 1.82 1.94.25 3 .69 1.13 2.74-.42 2.84 1.12.13 2 2 2 2.7 2.12 1.46.36 1.29 1.05 1.41 2a6.1 6.1 0 0 0 5.36 5.24 2 2 0 0 0 1.75-.63c1-1.09 1.86-2 2-3.72.12-1.16 1.36-2.13-.19-3.19 1-2.59-1.66-3.58-2.48-5.38-.45-1-1.85-1.43-1.54-2.87.06-.28-.06-.86-.18-.88-3.16-.6-3.51-4-5.59-5.63a11.07 11.07 0 0 1-2.87-3.71c-2.32.18-1.07-2.39-2.33-3.06-.21-.12-.25-.78-.39-.78-3.3-.21-2.82-4.3-5.72-5.35-2-.73-3.42-3.18-4.86-5.05a38.27 38.27 0 0 1-2.71-4.76c-2.55.15-2-2.66-3.4-3.63a22.06 22.06 0 0 1-2.85-2.79c1.37-1.29.34-1.31-.72-1.85s-1.9-1.83-2.88-2.73c-.72-.66-.27-2.3-2.06-2.19-.47 0 1-1.59-.42-2.42-1.2-.69-1.76-2.75-2.63-3.18a15.85 15.85 0 0 1-3-2.37 5.94 5.94 0 0 1-2.37-5c.05-1 .79-.93 1.43-.82.27 0 .49.41.73.64 4.89 4.79 10.34 9.07 14 15 2.27.82 3.05 2.82 3.82 4.82 2.8.47 3.64 3.16 4.71 5 1.21 2.09 3 3.42 4.46 5.1 1.07 1.22 1 3.67 3.43 3.51-.1 2 2.45 2.47 2.52 4.47 0 1.22 2-2.06 2 .7 0 .73 1.1 1.62 1.89 2.15 1.06.71.82 2.07 1.72 2.82a12.88 12.88 0 0 1 2.12 2.12c1.51 2 4.52 3 4.3 6.23 0 .49 1.16.26 1.23.43.67 1.74 2.49 2.56 3 4.62.48 1.74 3 2.86 3 5.24 0 .24.34.47.51.71-1.72 1.13 1.03 2.13.17 3.21Z"/><path d="M403.77 307c1.43 0 2.84-.17 4.15.91.43.35 1.61 1.85 2.67.13.26-.42 1.16.14 1.64.67a6.6 6.6 0 0 0 5.54 2.29c.74 0 1.3.15 1.23 1.07 0 .6.33 1 .85.91 3-.6 4.67 1.43 6.86 2.87 1.69 1.1 2.77 2.75 4.42 3.73s3.54 1.56 3.9 3.83a1 1 0 0 0 .67.57c3.76.32 5 3.81 7.23 5.93 1.6 1.51 4.1 2.36 4.48 5 .76-.91 1.37-.83 2.16.1.64.76.16 1.62.47 2.31.47 1.07 2 .71 2.64 1.82.46.86.66 1.66-.49 1.81s-1.64 1.09-1.07 1.54c2 1.58 2.29 4.15 3.82 6s2.67 3.7 4.8 4.87c1.13.62 1.89 1.86 2.88 2.76a1.25 1.25 0 0 1 .35 1.34c-.15.5-.68.61-1.2.57-1.58-.12-3.18.38-4.55-1.17-1-1.19-5.19-5.88-6.58-7.6a21 21 0 0 1-4-6.89 9.05 9.05 0 0 1-.66-2.7c0-.68.07-1.47-.63-1.72-3.13-1.11-4.21-4.24-6.21-6.4a80.29 80.29 0 0 0-13.63-11.6c-2.85-2-6.21-3.1-8.71-5.57a1.43 1.43 0 0 0-.8-.38c-3.14-.15-5.94-1-8-3.55-.76-.92-1 .28-1.39.52s-.54.66 0 1 .73.92 1.1.94c2.09.07 1.17.79.4 1.53.62.5 1.17 1.3 1.87 1.46 2.61.6 4.14 1.24 5.05 3 .31.59.67 1.46 1.07 1.49 3.89.24 4.4 4.29 6.94 6 2 1.36 2.89 4.06 5.59 4.61.2 0 .36.49.46.78a12.42 12.42 0 0 0 4.48 6.16 15 15 0 0 1 3.23 4.13c1.66 2.51 3.72 4.67 3.41 8.15-.15 1.71 1.88-1 1.74.16-.36 3 1.91 3.63 3.63 4.38s2.51 1 1.69 3.1c-.29.76.65 3.32 1.87 3.45 2.56.27 3 2.93 5 3.59 1.55.52 1.16 1.24.43 2.08a2.36 2.36 0 0 1-3.43.51c-3.95-2.42-7.7-5.13-9.95-9.23s-5.34-7.71-8-11.53c-1.72-2.45-2.3-5.65-5-7.53-.87-.61-.79-2.75-1.64-3.17-3.37-1.66-4.93-5.52-8.12-6.92-2.53-1.12-2.87-4-5.37-4.92a6.15 6.15 0 0 1-3-3.17c-.43-.93-.42-3.2-2.39-1.17-1-1-2.45-1.6-2.58-3.27-2.49-1.16-4.21-3.83-7.39-3.68a4.33 4.33 0 0 1-2.79-.52c-1.75-1.07-3.43 1.39-5.37.61-.06 0-.23.22-.34.33 1.36 1.34 3.1.12 4.52.64 5.06 1.86 10.81 2.69 13.39 8.49 3.45 2.78 4.78 7.22 8.06 10.19 1.2 1.08 1.55 3 2.57 4.38 2.49 3.33 5.13 6.55 7.74 9.79 1.6 2 3.26 3.93 4.88 5.89.3.37.89.59.72 1.2-.72 2.66 1.36 3.84 2.82 5.33 1.86 1.91 3.81 3.73 5.63 5.67 1.43 1.52 3.22 2.69 4 4.85.39 1.13 2 1.58 2.4 2.86 0 .06-.21.28-.35.31-1.53.28-2.89-.75-4.47-.56a2.75 2.75 0 0 1-2-1c-1.7-2-2.61-4.85-5.63-5.56-.49-2.74-3.77-3.52-4.35-6.19-2.52-.84-2.76-3.49-4-5.29s-3-3.33-3.95-5.34c-.34-.71-.71-.78-1.26-1.09-1-.55-2.22-1.31-2.51-2.25-1.28-4.18-4.19-7.11-7.15-10a7.44 7.44 0 0 1-1.25-2.48 39.93 39.93 0 0 0-9-12.76 5.59 5.59 0 0 0-2.38-1.28c-2.41.42-4.08-1-5.63-2.22s-2.51.35-3.73.09c-.74-.16-1.84.42-2.1-.66a2.12 2.12 0 0 1 .38-2.3 6.49 6.49 0 0 0 1.39-1.43c.32-.54-1.15-.72-.54-1.37 1.1-1.16 2.11-3 4-2.18s3-2.35 4.88-.45c1.32 1.33 3.55-.56 5.05 1.07.57.62.71-.2.74-.58.15-2.09.14-2.1 1.28-2.11ZM395 366c-.15.66.27 1.37-.39 1.9s-.72.81.27 1.16 3.19.4 1.19 2.36c1.89 1.25-.1 3.94 1.91 5.14a4 4 0 0 0 .86 4.81c-1.36 1.1.2 2.05.19 3.11 0 1.85-.8 3.81-.47 5.38.39 1.88.68 3.35-.58 4.87 1.37 2.33-.17 3-2 3.82-1 .46-1 .14-1-.6-.1-1.58.39-3.24-1-4.6-1.23-1.21 1.8-2.4.11-3.71 2.53-3.4-.5-6.73-.13-10.11-2.09-3.46-1.85-7.54-2.88-11.28-.49-1.77-1.76-3.47-1.15-5.56.52-1.79-.79-3.41-.88-5.08-.15-2.91-1.83-5.3-2.29-8.12-.28-1.75-1.25-3.22-1-5.32.24-1.8-2.08-3.39-1.89-5.65 0-.52-.58-.29-1 0a2.27 2.27 0 0 0-.78 3.05c1.73 3 .75 6.07.53 9.07a3.42 3.42 0 0 0 .17 1.81c1.21 3.07 2.67 6.13 2.15 9.61a2.34 2.34 0 0 0 .07 1.45c.68 1 2.37 1.55 1.15 3.21 1.55.69.06 2.61 1.41 3.42 1.56.93-1.72 2.5.46 3.49 1.86.84-1.09 2.11.14 3.09 1.47 1.18.25 2.89.82 4.16s-1.67 2.09-.36 3.31c-1.46 1.94.57 3.65.36 5.56a21.92 21.92 0 0 0 0 6.47c.48 2.57-2 3.55-2.45 5.54-.13.51-1.12.28-1.64-.26s-1.37-1.13-.9-2.05c.29-.57.92-.95 1.38-1.43.78-.82.26-1-.52-1-1.24-.13-1.28-1.1-.67-1.69 1.19-1.15.91-2.58.64-3.7-.73-3.1-2-6.1 0-9.16-2.46-.81.53-2.56-.71-3.94-.77-.86-.32-2.79-.5-4.24 0-.26-.44-.47-.68-.71 1.43-1.4.93-2.55.09-4.22-.7-1.41-1.82-2.23-2.69-3.36-.6-.78-.79-1.7.2-1.9 1.92-.39 1.6-.95.74-2.26-1.2-1.81-3.76-3.43-1.56-6.15.05-.07 0-.24 0-.35-.33-.93-2.71-1.06-.87-2.9.92-.92-1.33-1.63-1-3a6.41 6.41 0 0 0 0-3.93c-.85-1.79 2.72-3.12.26-4.78.48-1.59 1.3-3.17 1.34-4.77a18.57 18.57 0 0 1 .36-4 32.34 32.34 0 0 0 1.05-4.06c.18-1.6 1.67-2.82 1.13-4.58-.1-.34.26-.89.53-1.25s.76-.85 1-.78c.42.11.7.67 1.09 1s.37.92.3 1.37c-.64 4.46 1.82 8.28 2.59 12.45.1.56.52 1.18.41 1.8-.47 2.72.8 4.93 2 7.18.59 1.1 1.32 2.14 1.06 3.58a2.77 2.77 0 0 0 .3 2.35c2.08 2.78 1.89 6.25 2.48 9.43.17.88 1.7 1.53.61 2.84-.67.76 1.22 1.61.64 2.71Z"/><path d="M372 402.6c.07-1.19-.52-2.78 1.63-2.73-.13-1.42 2.34-2.16.75-4.22-.82-1.06-.78-3.34-.25-4.73s1.21-2.45-.1-3.75c-.29-.3.07-1 .57-1.15s2.2.05.74-1.09c-2.43-1.89-1.09-3.78-.18-5.48.71-1.31 1.68-1.76-.6-2.62-1.38-.52-.07-3.22-1.3-4.59 1.67-1-.49-1.41-.33-2.29s.89-1.24 1.17-2c.46-1.36 1.23-2.31-1.09-1.93-1 .15-1.3-.86-1-1.22 1.35-1.44.15-2.67-.45-3.52-1-1.43 0-1 .71-1.28 1.22-.42.26-.94-.11-1.24-1-.82-2.48-1.13-2.81-2.76-.08-.41-.6-1-.36-1.3 2.43-2.93-1.33-5.8 0-8.68-1.45-1.26-.42-2.64.2-3.57a5.23 5.23 0 0 0 .22-5.44 2.39 2.39 0 0 1-.41-1.32c.19-1.05 2.27-1.22 1.56-2.47a2.7 2.7 0 0 1-.16-3.11c.56-.92 1-1.89 1.59-2.83.77-1.31 2.37-2.09 2.33-4 0-.42 1.47-.23 2-1a1.36 1.36 0 0 1 1.28-.06c.64.44.5 1 .05 1.68-2.28 3.25-2 7.33-3.45 10.86 1.84 1.08-.91 1.61-.31 2.81.46.93.09 2.28.09 3.45v3.49a4.36 4.36 0 0 1 0 1.49c-1.43 3.45 0 6.66 1.13 9.71a14.8 14.8 0 0 1 .87 5.61c0 1.35-.08 2.65 1.27 3.49a1.94 1.94 0 0 1 .79 1.67c.16 1.71-.83 3.67.94 5.08-1.76 1.39.6 2.65.13 4.2s-.11 3.63-.11 5.46v5c0 1.24.13 2.5-.82 3.51 1.56.68.15 2.6 1.41 3.41q-1.53 5.43-3 10.87c-1.44-.3-1.47.77-1.74 1.7-.08.25-2.75-1.16-2.79-1.56s-.06-1.05-.06-1.55ZM404 369.51c-.23-1.73.59-3.75-.42-5.26s-.73-3.25-.52-4.74c.28-1.95-1.76-3.18-1.12-5.1.33-1-.56-1.43-1.09-2a4.23 4.23 0 0 1-.87-1.13c-.55-1.36 1.14-3.27-1-4.25-1.77-.8-1.63-2.82-2.53-4.19s-.64-3.12-2.19-4.06c.53-2.49-2.15-3.65-2.45-6-.23-1.77-1.54-3.62-2.22-5.52-.26-.71-.33-.89.13-1.47s.59-1.61-.64-1.7c-.88-.07-1.38-.7-1-1.2a2.15 2.15 0 0 0 0-2.73c-.11-.17.09-.61.25-.86s.37 0 .71.21c2.71 2 3.76 5.12 4.87 8 .77 2 2.72 3.64 2.16 6.09 2.32.28 1.65 2.11 2.1 3.55s2.36 2.4 2.78 3.82c1 3.3 3.66 5.77 4.18 9.28.14 1 1.92 1.88 1.81 2.66-.48 3.34 1.47 6.29 1.16 9.59a16.92 16.92 0 0 0 .83 7.11c.69 2 .53 4.35.94 6.57 1 5.54 1.64 8.9 4.27 12.4a3.56 3.56 0 0 1 .91 2.63c-.06.63-.16 1.88-.38 1.72-.86-.62-1.47-.93-2.18.09-.3-1.3-2-.48-2.53-1.87a19.53 19.53 0 0 0-3.09-4.69 3.74 3.74 0 0 1-.85-2.17 43.83 43.83 0 0 0-1.82-8.71c-.64-1.87-.2-4.02-.2-6.07ZM413 349.66v-2.68c0-.63.29-.88.83-1s1.24.22 1.13.59c-.72 2.4 1.75 3.28 2.41 5.05.56 1.49.18 3.76 2.31 4.53 1.19 5.89 6.25 9.64 8.37 15 .44 1.1 2.49 1.05 2.09 3.13-.21 1.07.75-.08 1.14-.06 1 .06 1.53.81 1.74 1.79a2.53 2.53 0 0 1-1.11 2.56c-.84.74-1.34.22-2.09-.25-4-2.55-7.78-5.37-8.69-10.31-.3-1.62-3.58-.66-2.12-3.07-1.62-2.12-2.38-4.71-3.68-6.95a15.15 15.15 0 0 1-2.33-8.33ZM455.87 331c1.51.7 3.49 1.14 4.79 2.31 3.78 3.41 8.62 4.11 13.12 5.68 1 .34 1.58.29.5 1.3-.56.52-1.87 1-.47 2.15.27.22-.56.82-.86.56-2.41-2-5.8.13-8.17-2-2.12 1-1.34-2.39-3.06-2-1.41.31-2.47-.75-3.41-1.35-1.89-1.19-2-3.77-3.28-5.55-.28-.4.11-.9.84-1.1ZM427.92 384.42c-.12 1.21-3 2.68-4 2a1.17 1.17 0 0 1-.35-.35c-1.08-1.82-4.14-.92-4.71-3.83-.41-2.05-2.3-3.67-3.42-5.51-.65-1.05-1.93-2.73-.5-4.44.39-.46-.28-1.24 1.24-.79 2.78.81 2.81 3.72 4.74 5.06.26.17.23 1.12.73 1.63 1.85 1.9 3.62 3.87 5.45 5.79a2.78 2.78 0 0 0 .82.44Z"/></svg>