<svg xmlns="http://www.w3.org/2000/svg" id="a1e207f0-97be-4fe1-bebd-866c280fb998" data-name="Layer 1" viewBox="0 0 419.72 6.997"><script>window._wordtune_extension_installed = true;</script><path d="M842.58 509.382c-14.99 0-14.99 4.997-29.98 4.997s-14.99-4.996-29.98-4.996-14.99 4.996-29.98 4.996-14.99-4.996-29.98-4.996-14.99 4.996-29.981 4.996-14.99-4.996-29.98-4.996-14.99 4.996-29.98 4.996-14.99-4.996-29.98-4.996-14.99 4.996-29.98 4.996-14.99-4.996-29.98-4.996-14.99 4.996-29.982 4.996-14.99-4.996-29.98-4.996-14.99 4.996-29.98 4.996-14.99-4.996-29.98-4.996" style="fill:none;stroke:#006855;stroke-miterlimit:10;stroke-width:2px" transform="translate(-422.86 -508.382)"/></svg>